M48
; DRILL file {KiCad 9.0.7} date 2026-02-06T08:29:52-0800
; FORMAT={-:-/ absolute / metric / decimal}
; #@! TF.CreationDate,2026-02-06T08:29:52-08:00
; #@! TF.GenerationSoftware,Kicad,Pcbnew,9.0.7
; #@! TF.FileFunction,Plated,1,4,PTH
FMAT,2
METRIC
; #@! TA.AperFunction,Plated,PTH,ViaDrill
T1C0.300
; #@! TA.AperFunction,Plated,PTH,ComponentDrill
T2C0.400
; #@! TA.AperFunction,Plated,PTH,ComponentDrill
T3C0.650
; #@! TA.AperFunction,Plated,PTH,ComponentDrill
T4C0.850
; #@! TA.AperFunction,Plated,PTH,ComponentDrill
T5C1.000
; #@! TA.AperFunction,Plated,PTH,ComponentDrill
T6C1.300
; #@! TA.AperFunction,Plated,PTH,ComponentDrill
T7C1.600
; #@! TA.AperFunction,Plated,PTH,ComponentDrill
T8C3.200
%
G90
G05
T1
X20.447Y-23.368
X20.447Y-28.956
X20.574Y-20.828
X20.574Y-26.162
X20.574Y-33.274
X20.574Y-37.084
X20.574Y-42.291
X20.574Y-45.339
X20.701Y-54.864
X20.701Y-59.436
X21.971Y-37.15
X22.0Y-38.45
X22.276Y-46.482
X22.581Y-45.212
X22.606Y-27.305
X22.606Y-28.956
X22.606Y-30.734
X22.733Y-32.893
X22.733Y-34.671
X22.8Y-40.1
X22.8Y-41.097
X23.2Y-42.4
X23.292Y-39.345
X23.7Y-37.15
X23.7Y-38.45
X24.4Y-47.6
X24.511Y-32.893
X24.511Y-34.671
X24.714Y-39.345
X25.552Y-39.497
X25.933Y-41.072
X26.162Y-15.367
X26.162Y-47.625
X26.162Y-49.022
X26.162Y-50.419
X26.162Y-65.786
X26.4Y-37.7
X26.99Y-42.037
X26.99Y-42.85
X26.99Y-43.688
X27.165Y-25.921
X27.178Y-28.448
X27.178Y-30.48
X27.432Y-37.719
X27.686Y-58.674
X27.813Y-47.625
X27.813Y-49.022
X27.813Y-50.419
X28.1Y-41.7
X28.15Y-42.75
X28.2Y-43.85
X29.0Y-41.7
X29.0Y-42.75
X29.05Y-43.85
X29.083Y-17.018
X29.337Y-47.625
X29.337Y-49.022
X29.439Y-50.724
X30.124Y-22.962
X30.353Y-45.5
X30.48Y-15.24
X30.734Y-65.786
X31.75Y-26.416
X31.75Y-50.622
X31.8Y-47.45
X31.877Y-58.547
X31.902Y-53.061
X32.004Y-24.003
X32.448Y-20.637
X32.512Y-62.738
X33.05Y-39.75
X33.274Y-30.607
X33.274Y-32.258
X33.648Y-59.721
X33.7Y-36.449
X33.96Y-42.85
X34.036Y-41.275
X34.544Y-63.373
X35.052Y-30.607
X35.052Y-32.258
X35.357Y-53.137
X35.357Y-55.804
X35.648Y-59.721
X36.195Y-41.275
X36.22Y-42.774
X36.3Y-22.25
X36.322Y-18.288
X36.5Y-39.75
X36.576Y-65.786
X37.084Y-34.036
X37.211Y-32.131
X37.55Y-25.0
X38.227Y-41.275
X38.227Y-42.774
X38.248Y-59.721
X38.608Y-15.494
X38.608Y-52.832
X38.735Y-56.769
X38.735Y-61.468
X38.989Y-34.544
X39.243Y-30.988
X39.624Y-39.751
X39.624Y-52.832
X39.624Y-55.245
X39.8Y-41.3
X39.8Y-42.7
X39.878Y-26.162
X40.64Y-26.67
X40.64Y-27.686
X40.64Y-52.832
X41.021Y-36.83
X41.021Y-47.625
X41.021Y-50.292
X41.148Y-25.781
X41.3Y-22.25
X41.402Y-18.288
X41.402Y-30.607
X41.5Y-33.6
X41.529Y-59.721
X42.291Y-48.768
X42.418Y-65.9
X42.545Y-50.292
X42.545Y-53.34
X42.55Y-25.0
X42.9Y-42.5
X42.9Y-45.7
X43.688Y-15.494
X43.8Y-34.5
X43.993Y-52.73
X44.069Y-48.768
X44.1Y-47.6
X44.196Y-30.988
X44.2Y-39.7
X44.298Y-55.88
X44.831Y-26.162
X44.958Y-50.292
X45.278Y-38.522
X45.339Y-45.517
X45.339Y-53.315
X45.466Y-26.67
X45.466Y-27.686
X45.72Y-48.768
X46.101Y-25.781
X46.228Y-18.288
X46.3Y-22.25
X46.3Y-33.5
X46.355Y-30.607
X46.711Y-38.125
X46.939Y-56.794
X46.99Y-50.292
X47.371Y-47.625
X47.371Y-48.768
X47.498Y-65.786
X47.55Y-25.0
X47.752Y-54.356
X47.879Y-43.307
X48.514Y-37.592
X48.768Y-15.494
X48.8Y-34.75
X49.149Y-30.988
X49.378Y-54.178
X49.403Y-47.65
X49.403Y-50.8
X49.784Y-26.162
X49.911Y-43.307
X50.292Y-36.576
X50.546Y-26.67
X50.546Y-27.686
X51.054Y-25.781
X51.054Y-56.388
X51.054Y-61.722
X51.3Y-22.25
X51.3Y-33.25
X51.308Y-18.288
X51.308Y-30.607
X51.384Y-39.573
X51.689Y-42.926
X51.816Y-65.786
X52.324Y-36.068
X52.55Y-25.0
X52.574Y-59.637
X52.832Y-61.722
X53.3Y-56.8
X53.34Y-48.26
X53.34Y-53.086
X53.848Y-15.494
X53.85Y-34.7
X54.102Y-30.988
X54.102Y-54.737
X54.102Y-61.722
X54.864Y-26.162
X55.626Y-26.67
X55.626Y-27.686
X56.007Y-25.781
X56.134Y-18.288
X56.388Y-30.48
X56.4Y-33.4
X56.55Y-22.25
X57.15Y-64.262
X57.404Y-65.786
X57.55Y-25.0
X58.42Y-39.116
X58.42Y-43.18
X58.42Y-48.26
X58.42Y-53.34
X58.674Y-15.494
X58.877Y-34.509
X59.055Y-30.988
X59.944Y-26.162
X60.55Y-22.25
X60.706Y-26.924
X60.706Y-27.94
X61.087Y-25.908
X61.214Y-38.862
X61.3Y-33.5
X61.341Y-30.353
X61.341Y-61.722
X61.4Y-17.0
X61.468Y-53.721
X62.357Y-59.817
X62.484Y-55.626
X62.738Y-65.786
X62.992Y-15.494
X63.5Y-38.862
X63.5Y-43.18
X64.008Y-24.765
X64.262Y-47.625
X64.484Y-55.213
X65.0Y-29.5
X65.0Y-33.0
X65.532Y-38.862
X66.04Y-48.26
X66.04Y-53.34
X68.834Y-22.098
X68.834Y-26.67
X68.834Y-31.242
X68.834Y-35.56
X68.834Y-38.354
T2
X51.181Y-44.541
T3
X39.751Y-62.738
X39.751Y-64.008
X41.021Y-62.738
X41.021Y-64.008
X42.291Y-62.738
X42.291Y-64.008
T4
X51.181Y-48.641
T5
X25.019Y-24.546
X25.019Y-29.546
T6
X33.801Y-18.288
X38.801Y-18.288
X43.801Y-18.288
X48.801Y-18.288
X53.801Y-18.288
X58.801Y-18.288
T7
X24.107Y-49.886
X24.107Y-54.966
T8
X23.749Y-18.542
X23.749Y-62.484
X65.786Y-18.542
X65.786Y-62.484
M30
