%TF.GenerationSoftware,KiCad,Pcbnew,9.0.7*%
%TF.CreationDate,2026-02-06T08:29:47-08:00*%
%TF.ProjectId,Esp32_Lightcontroller,45737033-325f-44c6-9967-6874636f6e74,rev?*%
%TF.SameCoordinates,Original*%
%TF.FileFunction,Legend,Top*%
%TF.FilePolarity,Positive*%
%FSLAX46Y46*%
G04 Gerber Fmt 4.6, Leading zero omitted, Abs format (unit mm)*
G04 Created by KiCad (PCBNEW 9.0.7) date 2026-02-06 08:29:47*
%MOMM*%
%LPD*%
G01*
G04 APERTURE LIST*
%ADD10C,0.100000*%
%ADD11C,0.150000*%
%ADD12C,0.300000*%
%ADD13C,0.125000*%
%ADD14C,0.375000*%
%ADD15C,0.120000*%
%ADD16C,0.127000*%
%ADD17C,0.200000*%
%ADD18C,0.000000*%
G04 APERTURE END LIST*
D10*
X31927800Y-40386000D02*
X31927800Y-53136800D01*
X44958000Y-47752000D02*
X44958000Y-38481000D01*
X40005000Y-65151000D02*
X42037000Y-65188000D01*
X40513000Y-38481000D02*
X40513000Y-40386000D01*
X33147000Y-40386000D02*
X40513000Y-40386000D01*
X49403000Y-47752000D02*
X44958000Y-47752000D01*
X35356800Y-56845200D02*
X35356800Y-53136800D01*
X49403000Y-54267100D02*
X49403000Y-47790100D01*
X40513000Y-40386000D02*
X31927800Y-40386000D01*
X35356800Y-53136800D02*
X31927800Y-53136800D01*
X46964600Y-54279800D02*
X49403000Y-54267100D01*
X46964600Y-56769000D02*
X46964600Y-54279800D01*
X35356800Y-56819800D02*
X46964600Y-56769000D01*
X44958000Y-38481000D02*
X40513000Y-38481000D01*
D11*
X27579884Y-59683933D02*
X28013217Y-59683933D01*
X28013217Y-59683933D02*
X27779884Y-59950600D01*
X27779884Y-59950600D02*
X27879884Y-59950600D01*
X27879884Y-59950600D02*
X27946550Y-59983933D01*
X27946550Y-59983933D02*
X27979884Y-60017266D01*
X27979884Y-60017266D02*
X28013217Y-60083933D01*
X28013217Y-60083933D02*
X28013217Y-60250600D01*
X28013217Y-60250600D02*
X27979884Y-60317266D01*
X27979884Y-60317266D02*
X27946550Y-60350600D01*
X27946550Y-60350600D02*
X27879884Y-60383933D01*
X27879884Y-60383933D02*
X27679884Y-60383933D01*
X27679884Y-60383933D02*
X27613217Y-60350600D01*
X27613217Y-60350600D02*
X27579884Y-60317266D01*
X28313217Y-60317266D02*
X28346551Y-60350600D01*
X28346551Y-60350600D02*
X28313217Y-60383933D01*
X28313217Y-60383933D02*
X28279884Y-60350600D01*
X28279884Y-60350600D02*
X28313217Y-60317266D01*
X28313217Y-60317266D02*
X28313217Y-60383933D01*
X28579884Y-59683933D02*
X29013217Y-59683933D01*
X29013217Y-59683933D02*
X28779884Y-59950600D01*
X28779884Y-59950600D02*
X28879884Y-59950600D01*
X28879884Y-59950600D02*
X28946550Y-59983933D01*
X28946550Y-59983933D02*
X28979884Y-60017266D01*
X28979884Y-60017266D02*
X29013217Y-60083933D01*
X29013217Y-60083933D02*
X29013217Y-60250600D01*
X29013217Y-60250600D02*
X28979884Y-60317266D01*
X28979884Y-60317266D02*
X28946550Y-60350600D01*
X28946550Y-60350600D02*
X28879884Y-60383933D01*
X28879884Y-60383933D02*
X28679884Y-60383933D01*
X28679884Y-60383933D02*
X28613217Y-60350600D01*
X28613217Y-60350600D02*
X28579884Y-60317266D01*
X29246551Y-59917266D02*
X29413217Y-60383933D01*
X29413217Y-60383933D02*
X29579884Y-59917266D01*
X30379883Y-59683933D02*
X30379883Y-60250600D01*
X30379883Y-60250600D02*
X30413217Y-60317266D01*
X30413217Y-60317266D02*
X30446550Y-60350600D01*
X30446550Y-60350600D02*
X30513217Y-60383933D01*
X30513217Y-60383933D02*
X30646550Y-60383933D01*
X30646550Y-60383933D02*
X30713217Y-60350600D01*
X30713217Y-60350600D02*
X30746550Y-60317266D01*
X30746550Y-60317266D02*
X30779883Y-60250600D01*
X30779883Y-60250600D02*
X30779883Y-59683933D01*
X31113216Y-60383933D02*
X31113216Y-59683933D01*
X31113216Y-59683933D02*
X31346550Y-60183933D01*
X31346550Y-60183933D02*
X31579883Y-59683933D01*
X31579883Y-59683933D02*
X31579883Y-60383933D01*
X32313216Y-60317266D02*
X32279883Y-60350600D01*
X32279883Y-60350600D02*
X32179883Y-60383933D01*
X32179883Y-60383933D02*
X32113216Y-60383933D01*
X32113216Y-60383933D02*
X32013216Y-60350600D01*
X32013216Y-60350600D02*
X31946550Y-60283933D01*
X31946550Y-60283933D02*
X31913216Y-60217266D01*
X31913216Y-60217266D02*
X31879883Y-60083933D01*
X31879883Y-60083933D02*
X31879883Y-59983933D01*
X31879883Y-59983933D02*
X31913216Y-59850600D01*
X31913216Y-59850600D02*
X31946550Y-59783933D01*
X31946550Y-59783933D02*
X32013216Y-59717266D01*
X32013216Y-59717266D02*
X32113216Y-59683933D01*
X32113216Y-59683933D02*
X32179883Y-59683933D01*
X32179883Y-59683933D02*
X32279883Y-59717266D01*
X32279883Y-59717266D02*
X32313216Y-59750600D01*
X33013216Y-60317266D02*
X32979883Y-60350600D01*
X32979883Y-60350600D02*
X32879883Y-60383933D01*
X32879883Y-60383933D02*
X32813216Y-60383933D01*
X32813216Y-60383933D02*
X32713216Y-60350600D01*
X32713216Y-60350600D02*
X32646550Y-60283933D01*
X32646550Y-60283933D02*
X32613216Y-60217266D01*
X32613216Y-60217266D02*
X32579883Y-60083933D01*
X32579883Y-60083933D02*
X32579883Y-59983933D01*
X32579883Y-59983933D02*
X32613216Y-59850600D01*
X32613216Y-59850600D02*
X32646550Y-59783933D01*
X32646550Y-59783933D02*
X32713216Y-59717266D01*
X32713216Y-59717266D02*
X32813216Y-59683933D01*
X32813216Y-59683933D02*
X32879883Y-59683933D01*
X32879883Y-59683933D02*
X32979883Y-59717266D01*
X32979883Y-59717266D02*
X33013216Y-59750600D01*
X61982579Y-38843009D02*
X62315912Y-38843009D01*
X62458769Y-39366819D02*
X61982579Y-39366819D01*
X61982579Y-39366819D02*
X61982579Y-38366819D01*
X61982579Y-38366819D02*
X62458769Y-38366819D01*
X62839722Y-39319200D02*
X62982579Y-39366819D01*
X62982579Y-39366819D02*
X63220674Y-39366819D01*
X63220674Y-39366819D02*
X63315912Y-39319200D01*
X63315912Y-39319200D02*
X63363531Y-39271580D01*
X63363531Y-39271580D02*
X63411150Y-39176342D01*
X63411150Y-39176342D02*
X63411150Y-39081104D01*
X63411150Y-39081104D02*
X63363531Y-38985866D01*
X63363531Y-38985866D02*
X63315912Y-38938247D01*
X63315912Y-38938247D02*
X63220674Y-38890628D01*
X63220674Y-38890628D02*
X63030198Y-38843009D01*
X63030198Y-38843009D02*
X62934960Y-38795390D01*
X62934960Y-38795390D02*
X62887341Y-38747771D01*
X62887341Y-38747771D02*
X62839722Y-38652533D01*
X62839722Y-38652533D02*
X62839722Y-38557295D01*
X62839722Y-38557295D02*
X62887341Y-38462057D01*
X62887341Y-38462057D02*
X62934960Y-38414438D01*
X62934960Y-38414438D02*
X63030198Y-38366819D01*
X63030198Y-38366819D02*
X63268293Y-38366819D01*
X63268293Y-38366819D02*
X63411150Y-38414438D01*
X63839722Y-39366819D02*
X63839722Y-38366819D01*
X63839722Y-38366819D02*
X64220674Y-38366819D01*
X64220674Y-38366819D02*
X64315912Y-38414438D01*
X64315912Y-38414438D02*
X64363531Y-38462057D01*
X64363531Y-38462057D02*
X64411150Y-38557295D01*
X64411150Y-38557295D02*
X64411150Y-38700152D01*
X64411150Y-38700152D02*
X64363531Y-38795390D01*
X64363531Y-38795390D02*
X64315912Y-38843009D01*
X64315912Y-38843009D02*
X64220674Y-38890628D01*
X64220674Y-38890628D02*
X63839722Y-38890628D01*
X64744484Y-38366819D02*
X65363531Y-38366819D01*
X65363531Y-38366819D02*
X65030198Y-38747771D01*
X65030198Y-38747771D02*
X65173055Y-38747771D01*
X65173055Y-38747771D02*
X65268293Y-38795390D01*
X65268293Y-38795390D02*
X65315912Y-38843009D01*
X65315912Y-38843009D02*
X65363531Y-38938247D01*
X65363531Y-38938247D02*
X65363531Y-39176342D01*
X65363531Y-39176342D02*
X65315912Y-39271580D01*
X65315912Y-39271580D02*
X65268293Y-39319200D01*
X65268293Y-39319200D02*
X65173055Y-39366819D01*
X65173055Y-39366819D02*
X64887341Y-39366819D01*
X64887341Y-39366819D02*
X64792103Y-39319200D01*
X64792103Y-39319200D02*
X64744484Y-39271580D01*
X65744484Y-38462057D02*
X65792103Y-38414438D01*
X65792103Y-38414438D02*
X65887341Y-38366819D01*
X65887341Y-38366819D02*
X66125436Y-38366819D01*
X66125436Y-38366819D02*
X66220674Y-38414438D01*
X66220674Y-38414438D02*
X66268293Y-38462057D01*
X66268293Y-38462057D02*
X66315912Y-38557295D01*
X66315912Y-38557295D02*
X66315912Y-38652533D01*
X66315912Y-38652533D02*
X66268293Y-38795390D01*
X66268293Y-38795390D02*
X65696865Y-39366819D01*
X65696865Y-39366819D02*
X66315912Y-39366819D01*
X66744484Y-38985866D02*
X67506389Y-38985866D01*
X68554007Y-39271580D02*
X68506388Y-39319200D01*
X68506388Y-39319200D02*
X68363531Y-39366819D01*
X68363531Y-39366819D02*
X68268293Y-39366819D01*
X68268293Y-39366819D02*
X68125436Y-39319200D01*
X68125436Y-39319200D02*
X68030198Y-39223961D01*
X68030198Y-39223961D02*
X67982579Y-39128723D01*
X67982579Y-39128723D02*
X67934960Y-38938247D01*
X67934960Y-38938247D02*
X67934960Y-38795390D01*
X67934960Y-38795390D02*
X67982579Y-38604914D01*
X67982579Y-38604914D02*
X68030198Y-38509676D01*
X68030198Y-38509676D02*
X68125436Y-38414438D01*
X68125436Y-38414438D02*
X68268293Y-38366819D01*
X68268293Y-38366819D02*
X68363531Y-38366819D01*
X68363531Y-38366819D02*
X68506388Y-38414438D01*
X68506388Y-38414438D02*
X68554007Y-38462057D01*
X68934960Y-38462057D02*
X68982579Y-38414438D01*
X68982579Y-38414438D02*
X69077817Y-38366819D01*
X69077817Y-38366819D02*
X69315912Y-38366819D01*
X69315912Y-38366819D02*
X69411150Y-38414438D01*
X69411150Y-38414438D02*
X69458769Y-38462057D01*
X69458769Y-38462057D02*
X69506388Y-38557295D01*
X69506388Y-38557295D02*
X69506388Y-38652533D01*
X69506388Y-38652533D02*
X69458769Y-38795390D01*
X69458769Y-38795390D02*
X68887341Y-39366819D01*
X68887341Y-39366819D02*
X69506388Y-39366819D01*
X65408207Y-35869819D02*
X65074874Y-35393628D01*
X64836779Y-35869819D02*
X64836779Y-34869819D01*
X64836779Y-34869819D02*
X65217731Y-34869819D01*
X65217731Y-34869819D02*
X65312969Y-34917438D01*
X65312969Y-34917438D02*
X65360588Y-34965057D01*
X65360588Y-34965057D02*
X65408207Y-35060295D01*
X65408207Y-35060295D02*
X65408207Y-35203152D01*
X65408207Y-35203152D02*
X65360588Y-35298390D01*
X65360588Y-35298390D02*
X65312969Y-35346009D01*
X65312969Y-35346009D02*
X65217731Y-35393628D01*
X65217731Y-35393628D02*
X64836779Y-35393628D01*
X65789160Y-35822200D02*
X65932017Y-35869819D01*
X65932017Y-35869819D02*
X66170112Y-35869819D01*
X66170112Y-35869819D02*
X66265350Y-35822200D01*
X66265350Y-35822200D02*
X66312969Y-35774580D01*
X66312969Y-35774580D02*
X66360588Y-35679342D01*
X66360588Y-35679342D02*
X66360588Y-35584104D01*
X66360588Y-35584104D02*
X66312969Y-35488866D01*
X66312969Y-35488866D02*
X66265350Y-35441247D01*
X66265350Y-35441247D02*
X66170112Y-35393628D01*
X66170112Y-35393628D02*
X65979636Y-35346009D01*
X65979636Y-35346009D02*
X65884398Y-35298390D01*
X65884398Y-35298390D02*
X65836779Y-35250771D01*
X65836779Y-35250771D02*
X65789160Y-35155533D01*
X65789160Y-35155533D02*
X65789160Y-35060295D01*
X65789160Y-35060295D02*
X65836779Y-34965057D01*
X65836779Y-34965057D02*
X65884398Y-34917438D01*
X65884398Y-34917438D02*
X65979636Y-34869819D01*
X65979636Y-34869819D02*
X66217731Y-34869819D01*
X66217731Y-34869819D02*
X66360588Y-34917438D01*
X66646303Y-34869819D02*
X67217731Y-34869819D01*
X66932017Y-35869819D02*
X66932017Y-34869819D01*
D10*
X50927693Y-45507419D02*
X50880074Y-45483609D01*
X50880074Y-45483609D02*
X50808645Y-45483609D01*
X50808645Y-45483609D02*
X50737217Y-45507419D01*
X50737217Y-45507419D02*
X50689598Y-45555038D01*
X50689598Y-45555038D02*
X50665788Y-45602657D01*
X50665788Y-45602657D02*
X50641979Y-45697895D01*
X50641979Y-45697895D02*
X50641979Y-45769323D01*
X50641979Y-45769323D02*
X50665788Y-45864561D01*
X50665788Y-45864561D02*
X50689598Y-45912180D01*
X50689598Y-45912180D02*
X50737217Y-45959800D01*
X50737217Y-45959800D02*
X50808645Y-45983609D01*
X50808645Y-45983609D02*
X50856264Y-45983609D01*
X50856264Y-45983609D02*
X50927693Y-45959800D01*
X50927693Y-45959800D02*
X50951502Y-45935990D01*
X50951502Y-45935990D02*
X50951502Y-45769323D01*
X50951502Y-45769323D02*
X50856264Y-45769323D01*
X51165788Y-45983609D02*
X51165788Y-45483609D01*
X51165788Y-45483609D02*
X51451502Y-45983609D01*
X51451502Y-45983609D02*
X51451502Y-45483609D01*
X51689598Y-45983609D02*
X51689598Y-45483609D01*
X51689598Y-45483609D02*
X51808646Y-45483609D01*
X51808646Y-45483609D02*
X51880074Y-45507419D01*
X51880074Y-45507419D02*
X51927693Y-45555038D01*
X51927693Y-45555038D02*
X51951503Y-45602657D01*
X51951503Y-45602657D02*
X51975312Y-45697895D01*
X51975312Y-45697895D02*
X51975312Y-45769323D01*
X51975312Y-45769323D02*
X51951503Y-45864561D01*
X51951503Y-45864561D02*
X51927693Y-45912180D01*
X51927693Y-45912180D02*
X51880074Y-45959800D01*
X51880074Y-45959800D02*
X51808646Y-45983609D01*
X51808646Y-45983609D02*
X51689598Y-45983609D01*
D12*
X66731774Y-23268542D02*
X66874632Y-23339971D01*
X66874632Y-23339971D02*
X67088917Y-23339971D01*
X67088917Y-23339971D02*
X67303203Y-23268542D01*
X67303203Y-23268542D02*
X67446060Y-23125685D01*
X67446060Y-23125685D02*
X67517489Y-22982828D01*
X67517489Y-22982828D02*
X67588917Y-22697114D01*
X67588917Y-22697114D02*
X67588917Y-22482828D01*
X67588917Y-22482828D02*
X67517489Y-22197114D01*
X67517489Y-22197114D02*
X67446060Y-22054257D01*
X67446060Y-22054257D02*
X67303203Y-21911400D01*
X67303203Y-21911400D02*
X67088917Y-21839971D01*
X67088917Y-21839971D02*
X66946060Y-21839971D01*
X66946060Y-21839971D02*
X66731774Y-21911400D01*
X66731774Y-21911400D02*
X66660346Y-21982828D01*
X66660346Y-21982828D02*
X66660346Y-22482828D01*
X66660346Y-22482828D02*
X66946060Y-22482828D01*
X66017489Y-21839971D02*
X66017489Y-23339971D01*
X66017489Y-23339971D02*
X65160346Y-21839971D01*
X65160346Y-21839971D02*
X65160346Y-23339971D01*
X64446060Y-21839971D02*
X64446060Y-23339971D01*
X64446060Y-23339971D02*
X64088917Y-23339971D01*
X64088917Y-23339971D02*
X63874631Y-23268542D01*
X63874631Y-23268542D02*
X63731774Y-23125685D01*
X63731774Y-23125685D02*
X63660345Y-22982828D01*
X63660345Y-22982828D02*
X63588917Y-22697114D01*
X63588917Y-22697114D02*
X63588917Y-22482828D01*
X63588917Y-22482828D02*
X63660345Y-22197114D01*
X63660345Y-22197114D02*
X63731774Y-22054257D01*
X63731774Y-22054257D02*
X63874631Y-21911400D01*
X63874631Y-21911400D02*
X64088917Y-21839971D01*
X64088917Y-21839971D02*
X64446060Y-21839971D01*
D11*
X22329611Y-59553361D02*
X22424849Y-59600980D01*
X22424849Y-59600980D02*
X22567706Y-59600980D01*
X22567706Y-59600980D02*
X22710563Y-59553361D01*
X22710563Y-59553361D02*
X22805801Y-59458123D01*
X22805801Y-59458123D02*
X22853420Y-59362885D01*
X22853420Y-59362885D02*
X22901039Y-59172409D01*
X22901039Y-59172409D02*
X22901039Y-59029552D01*
X22901039Y-59029552D02*
X22853420Y-58839076D01*
X22853420Y-58839076D02*
X22805801Y-58743838D01*
X22805801Y-58743838D02*
X22710563Y-58648600D01*
X22710563Y-58648600D02*
X22567706Y-58600980D01*
X22567706Y-58600980D02*
X22472468Y-58600980D01*
X22472468Y-58600980D02*
X22329611Y-58648600D01*
X22329611Y-58648600D02*
X22281992Y-58696219D01*
X22281992Y-58696219D02*
X22281992Y-59029552D01*
X22281992Y-59029552D02*
X22472468Y-59029552D01*
X21853420Y-58600980D02*
X21853420Y-59600980D01*
X21853420Y-59600980D02*
X21281992Y-58600980D01*
X21281992Y-58600980D02*
X21281992Y-59600980D01*
X20805801Y-58600980D02*
X20805801Y-59600980D01*
X20805801Y-59600980D02*
X20567706Y-59600980D01*
X20567706Y-59600980D02*
X20424849Y-59553361D01*
X20424849Y-59553361D02*
X20329611Y-59458123D01*
X20329611Y-59458123D02*
X20281992Y-59362885D01*
X20281992Y-59362885D02*
X20234373Y-59172409D01*
X20234373Y-59172409D02*
X20234373Y-59029552D01*
X20234373Y-59029552D02*
X20281992Y-58839076D01*
X20281992Y-58839076D02*
X20329611Y-58743838D01*
X20329611Y-58743838D02*
X20424849Y-58648600D01*
X20424849Y-58648600D02*
X20567706Y-58600980D01*
X20567706Y-58600980D02*
X20805801Y-58600980D01*
D13*
X32935521Y-65218309D02*
X33030759Y-65218309D01*
X33030759Y-65218309D02*
X33078378Y-65242119D01*
X33078378Y-65242119D02*
X33125997Y-65289738D01*
X33125997Y-65289738D02*
X33149807Y-65384976D01*
X33149807Y-65384976D02*
X33149807Y-65551642D01*
X33149807Y-65551642D02*
X33125997Y-65646880D01*
X33125997Y-65646880D02*
X33078378Y-65694500D01*
X33078378Y-65694500D02*
X33030759Y-65718309D01*
X33030759Y-65718309D02*
X32935521Y-65718309D01*
X32935521Y-65718309D02*
X32887902Y-65694500D01*
X32887902Y-65694500D02*
X32840283Y-65646880D01*
X32840283Y-65646880D02*
X32816474Y-65551642D01*
X32816474Y-65551642D02*
X32816474Y-65384976D01*
X32816474Y-65384976D02*
X32840283Y-65289738D01*
X32840283Y-65289738D02*
X32887902Y-65242119D01*
X32887902Y-65242119D02*
X32935521Y-65218309D01*
X33364093Y-65718309D02*
X33364093Y-65218309D01*
X33364093Y-65218309D02*
X33554569Y-65218309D01*
X33554569Y-65218309D02*
X33602188Y-65242119D01*
X33602188Y-65242119D02*
X33625998Y-65265928D01*
X33625998Y-65265928D02*
X33649807Y-65313547D01*
X33649807Y-65313547D02*
X33649807Y-65384976D01*
X33649807Y-65384976D02*
X33625998Y-65432595D01*
X33625998Y-65432595D02*
X33602188Y-65456404D01*
X33602188Y-65456404D02*
X33554569Y-65480214D01*
X33554569Y-65480214D02*
X33364093Y-65480214D01*
X34173617Y-65218309D02*
X34459331Y-65218309D01*
X34316474Y-65718309D02*
X34316474Y-65218309D01*
X34816473Y-65694500D02*
X34768854Y-65718309D01*
X34768854Y-65718309D02*
X34673616Y-65718309D01*
X34673616Y-65718309D02*
X34625997Y-65694500D01*
X34625997Y-65694500D02*
X34602188Y-65646880D01*
X34602188Y-65646880D02*
X34602188Y-65456404D01*
X34602188Y-65456404D02*
X34625997Y-65408785D01*
X34625997Y-65408785D02*
X34673616Y-65384976D01*
X34673616Y-65384976D02*
X34768854Y-65384976D01*
X34768854Y-65384976D02*
X34816473Y-65408785D01*
X34816473Y-65408785D02*
X34840283Y-65456404D01*
X34840283Y-65456404D02*
X34840283Y-65504023D01*
X34840283Y-65504023D02*
X34602188Y-65551642D01*
X35054568Y-65718309D02*
X35054568Y-65384976D01*
X35054568Y-65480214D02*
X35078378Y-65432595D01*
X35078378Y-65432595D02*
X35102187Y-65408785D01*
X35102187Y-65408785D02*
X35149806Y-65384976D01*
X35149806Y-65384976D02*
X35197425Y-65384976D01*
X35364092Y-65718309D02*
X35364092Y-65384976D01*
X35364092Y-65432595D02*
X35387902Y-65408785D01*
X35387902Y-65408785D02*
X35435521Y-65384976D01*
X35435521Y-65384976D02*
X35506949Y-65384976D01*
X35506949Y-65384976D02*
X35554568Y-65408785D01*
X35554568Y-65408785D02*
X35578378Y-65456404D01*
X35578378Y-65456404D02*
X35578378Y-65718309D01*
X35578378Y-65456404D02*
X35602187Y-65408785D01*
X35602187Y-65408785D02*
X35649806Y-65384976D01*
X35649806Y-65384976D02*
X35721235Y-65384976D01*
X35721235Y-65384976D02*
X35768854Y-65408785D01*
X35768854Y-65408785D02*
X35792664Y-65456404D01*
X35792664Y-65456404D02*
X35792664Y-65718309D01*
X50572664Y-49851309D02*
X50882188Y-49851309D01*
X50882188Y-49851309D02*
X50715521Y-50041785D01*
X50715521Y-50041785D02*
X50786950Y-50041785D01*
X50786950Y-50041785D02*
X50834569Y-50065595D01*
X50834569Y-50065595D02*
X50858378Y-50089404D01*
X50858378Y-50089404D02*
X50882188Y-50137023D01*
X50882188Y-50137023D02*
X50882188Y-50256071D01*
X50882188Y-50256071D02*
X50858378Y-50303690D01*
X50858378Y-50303690D02*
X50834569Y-50327500D01*
X50834569Y-50327500D02*
X50786950Y-50351309D01*
X50786950Y-50351309D02*
X50644093Y-50351309D01*
X50644093Y-50351309D02*
X50596474Y-50327500D01*
X50596474Y-50327500D02*
X50572664Y-50303690D01*
X51096473Y-50303690D02*
X51120283Y-50327500D01*
X51120283Y-50327500D02*
X51096473Y-50351309D01*
X51096473Y-50351309D02*
X51072664Y-50327500D01*
X51072664Y-50327500D02*
X51096473Y-50303690D01*
X51096473Y-50303690D02*
X51096473Y-50351309D01*
X51286949Y-49851309D02*
X51596473Y-49851309D01*
X51596473Y-49851309D02*
X51429806Y-50041785D01*
X51429806Y-50041785D02*
X51501235Y-50041785D01*
X51501235Y-50041785D02*
X51548854Y-50065595D01*
X51548854Y-50065595D02*
X51572663Y-50089404D01*
X51572663Y-50089404D02*
X51596473Y-50137023D01*
X51596473Y-50137023D02*
X51596473Y-50256071D01*
X51596473Y-50256071D02*
X51572663Y-50303690D01*
X51572663Y-50303690D02*
X51548854Y-50327500D01*
X51548854Y-50327500D02*
X51501235Y-50351309D01*
X51501235Y-50351309D02*
X51358378Y-50351309D01*
X51358378Y-50351309D02*
X51310759Y-50327500D01*
X51310759Y-50327500D02*
X51286949Y-50303690D01*
X51763139Y-50017976D02*
X51882187Y-50351309D01*
X51882187Y-50351309D02*
X52001234Y-50017976D01*
D11*
X32943922Y-23619819D02*
X33277255Y-24619819D01*
X33277255Y-24619819D02*
X33610588Y-23619819D01*
X34515350Y-24524580D02*
X34467731Y-24572200D01*
X34467731Y-24572200D02*
X34324874Y-24619819D01*
X34324874Y-24619819D02*
X34229636Y-24619819D01*
X34229636Y-24619819D02*
X34086779Y-24572200D01*
X34086779Y-24572200D02*
X33991541Y-24476961D01*
X33991541Y-24476961D02*
X33943922Y-24381723D01*
X33943922Y-24381723D02*
X33896303Y-24191247D01*
X33896303Y-24191247D02*
X33896303Y-24048390D01*
X33896303Y-24048390D02*
X33943922Y-23857914D01*
X33943922Y-23857914D02*
X33991541Y-23762676D01*
X33991541Y-23762676D02*
X34086779Y-23667438D01*
X34086779Y-23667438D02*
X34229636Y-23619819D01*
X34229636Y-23619819D02*
X34324874Y-23619819D01*
X34324874Y-23619819D02*
X34467731Y-23667438D01*
X34467731Y-23667438D02*
X34515350Y-23715057D01*
X35515350Y-24524580D02*
X35467731Y-24572200D01*
X35467731Y-24572200D02*
X35324874Y-24619819D01*
X35324874Y-24619819D02*
X35229636Y-24619819D01*
X35229636Y-24619819D02*
X35086779Y-24572200D01*
X35086779Y-24572200D02*
X34991541Y-24476961D01*
X34991541Y-24476961D02*
X34943922Y-24381723D01*
X34943922Y-24381723D02*
X34896303Y-24191247D01*
X34896303Y-24191247D02*
X34896303Y-24048390D01*
X34896303Y-24048390D02*
X34943922Y-23857914D01*
X34943922Y-23857914D02*
X34991541Y-23762676D01*
X34991541Y-23762676D02*
X35086779Y-23667438D01*
X35086779Y-23667438D02*
X35229636Y-23619819D01*
X35229636Y-23619819D02*
X35324874Y-23619819D01*
X35324874Y-23619819D02*
X35467731Y-23667438D01*
X35467731Y-23667438D02*
X35515350Y-23715057D01*
X39562970Y-24619819D02*
X39229637Y-24143628D01*
X38991542Y-24619819D02*
X38991542Y-23619819D01*
X38991542Y-23619819D02*
X39372494Y-23619819D01*
X39372494Y-23619819D02*
X39467732Y-23667438D01*
X39467732Y-23667438D02*
X39515351Y-23715057D01*
X39515351Y-23715057D02*
X39562970Y-23810295D01*
X39562970Y-23810295D02*
X39562970Y-23953152D01*
X39562970Y-23953152D02*
X39515351Y-24048390D01*
X39515351Y-24048390D02*
X39467732Y-24096009D01*
X39467732Y-24096009D02*
X39372494Y-24143628D01*
X39372494Y-24143628D02*
X38991542Y-24143628D01*
X44324876Y-23667438D02*
X44229638Y-23619819D01*
X44229638Y-23619819D02*
X44086781Y-23619819D01*
X44086781Y-23619819D02*
X43943924Y-23667438D01*
X43943924Y-23667438D02*
X43848686Y-23762676D01*
X43848686Y-23762676D02*
X43801067Y-23857914D01*
X43801067Y-23857914D02*
X43753448Y-24048390D01*
X43753448Y-24048390D02*
X43753448Y-24191247D01*
X43753448Y-24191247D02*
X43801067Y-24381723D01*
X43801067Y-24381723D02*
X43848686Y-24476961D01*
X43848686Y-24476961D02*
X43943924Y-24572200D01*
X43943924Y-24572200D02*
X44086781Y-24619819D01*
X44086781Y-24619819D02*
X44182019Y-24619819D01*
X44182019Y-24619819D02*
X44324876Y-24572200D01*
X44324876Y-24572200D02*
X44372495Y-24524580D01*
X44372495Y-24524580D02*
X44372495Y-24191247D01*
X44372495Y-24191247D02*
X44182019Y-24191247D01*
X48943925Y-24096009D02*
X49086782Y-24143628D01*
X49086782Y-24143628D02*
X49134401Y-24191247D01*
X49134401Y-24191247D02*
X49182020Y-24286485D01*
X49182020Y-24286485D02*
X49182020Y-24429342D01*
X49182020Y-24429342D02*
X49134401Y-24524580D01*
X49134401Y-24524580D02*
X49086782Y-24572200D01*
X49086782Y-24572200D02*
X48991544Y-24619819D01*
X48991544Y-24619819D02*
X48610592Y-24619819D01*
X48610592Y-24619819D02*
X48610592Y-23619819D01*
X48610592Y-23619819D02*
X48943925Y-23619819D01*
X48943925Y-23619819D02*
X49039163Y-23667438D01*
X49039163Y-23667438D02*
X49086782Y-23715057D01*
X49086782Y-23715057D02*
X49134401Y-23810295D01*
X49134401Y-23810295D02*
X49134401Y-23905533D01*
X49134401Y-23905533D02*
X49086782Y-24000771D01*
X49086782Y-24000771D02*
X49039163Y-24048390D01*
X49039163Y-24048390D02*
X48943925Y-24096009D01*
X48943925Y-24096009D02*
X48610592Y-24096009D01*
X53991545Y-24524580D02*
X53943926Y-24572200D01*
X53943926Y-24572200D02*
X53801069Y-24619819D01*
X53801069Y-24619819D02*
X53705831Y-24619819D01*
X53705831Y-24619819D02*
X53562974Y-24572200D01*
X53562974Y-24572200D02*
X53467736Y-24476961D01*
X53467736Y-24476961D02*
X53420117Y-24381723D01*
X53420117Y-24381723D02*
X53372498Y-24191247D01*
X53372498Y-24191247D02*
X53372498Y-24048390D01*
X53372498Y-24048390D02*
X53420117Y-23857914D01*
X53420117Y-23857914D02*
X53467736Y-23762676D01*
X53467736Y-23762676D02*
X53562974Y-23667438D01*
X53562974Y-23667438D02*
X53705831Y-23619819D01*
X53705831Y-23619819D02*
X53801069Y-23619819D01*
X53801069Y-23619819D02*
X53943926Y-23667438D01*
X53943926Y-23667438D02*
X53991545Y-23715057D01*
X54324879Y-23619819D02*
X54562974Y-24619819D01*
X54562974Y-24619819D02*
X54753450Y-23905533D01*
X54753450Y-23905533D02*
X54943926Y-24619819D01*
X54943926Y-24619819D02*
X55182022Y-23619819D01*
X58515356Y-23619819D02*
X58753451Y-24619819D01*
X58753451Y-24619819D02*
X58943927Y-23905533D01*
X58943927Y-23905533D02*
X59134403Y-24619819D01*
X59134403Y-24619819D02*
X59372499Y-23619819D01*
X59658213Y-23619819D02*
X59896308Y-24619819D01*
X59896308Y-24619819D02*
X60086784Y-23905533D01*
X60086784Y-23905533D02*
X60277260Y-24619819D01*
X60277260Y-24619819D02*
X60515356Y-23619819D01*
X24060588Y-46469819D02*
X23489160Y-46469819D01*
X23774874Y-46469819D02*
X23774874Y-45469819D01*
X23774874Y-45469819D02*
X23679636Y-45612676D01*
X23679636Y-45612676D02*
X23584398Y-45707914D01*
X23584398Y-45707914D02*
X23489160Y-45755533D01*
X24441541Y-45565057D02*
X24489160Y-45517438D01*
X24489160Y-45517438D02*
X24584398Y-45469819D01*
X24584398Y-45469819D02*
X24822493Y-45469819D01*
X24822493Y-45469819D02*
X24917731Y-45517438D01*
X24917731Y-45517438D02*
X24965350Y-45565057D01*
X24965350Y-45565057D02*
X25012969Y-45660295D01*
X25012969Y-45660295D02*
X25012969Y-45755533D01*
X25012969Y-45755533D02*
X24965350Y-45898390D01*
X24965350Y-45898390D02*
X24393922Y-46469819D01*
X24393922Y-46469819D02*
X25012969Y-46469819D01*
X25441541Y-46088866D02*
X26203446Y-46088866D01*
X26632017Y-45565057D02*
X26679636Y-45517438D01*
X26679636Y-45517438D02*
X26774874Y-45469819D01*
X26774874Y-45469819D02*
X27012969Y-45469819D01*
X27012969Y-45469819D02*
X27108207Y-45517438D01*
X27108207Y-45517438D02*
X27155826Y-45565057D01*
X27155826Y-45565057D02*
X27203445Y-45660295D01*
X27203445Y-45660295D02*
X27203445Y-45755533D01*
X27203445Y-45755533D02*
X27155826Y-45898390D01*
X27155826Y-45898390D02*
X26584398Y-46469819D01*
X26584398Y-46469819D02*
X27203445Y-46469819D01*
X28060588Y-45803152D02*
X28060588Y-46469819D01*
X27822493Y-45422200D02*
X27584398Y-46136485D01*
X27584398Y-46136485D02*
X28203445Y-46136485D01*
X28489160Y-45803152D02*
X28727255Y-46469819D01*
X28727255Y-46469819D02*
X28965350Y-45803152D01*
X61249160Y-65045295D02*
X61249160Y-64245295D01*
X61249160Y-64245295D02*
X61553922Y-64245295D01*
X61553922Y-64245295D02*
X61630112Y-64283390D01*
X61630112Y-64283390D02*
X61668207Y-64321485D01*
X61668207Y-64321485D02*
X61706303Y-64397676D01*
X61706303Y-64397676D02*
X61706303Y-64511961D01*
X61706303Y-64511961D02*
X61668207Y-64588152D01*
X61668207Y-64588152D02*
X61630112Y-64626247D01*
X61630112Y-64626247D02*
X61553922Y-64664342D01*
X61553922Y-64664342D02*
X61249160Y-64664342D01*
X62468207Y-65045295D02*
X62011064Y-65045295D01*
X62239636Y-65045295D02*
X62239636Y-64245295D01*
X62239636Y-64245295D02*
X62163445Y-64359580D01*
X62163445Y-64359580D02*
X62087255Y-64435771D01*
X62087255Y-64435771D02*
X62011064Y-64473866D01*
X62925350Y-64588152D02*
X62849160Y-64550057D01*
X62849160Y-64550057D02*
X62811065Y-64511961D01*
X62811065Y-64511961D02*
X62772969Y-64435771D01*
X62772969Y-64435771D02*
X62772969Y-64397676D01*
X62772969Y-64397676D02*
X62811065Y-64321485D01*
X62811065Y-64321485D02*
X62849160Y-64283390D01*
X62849160Y-64283390D02*
X62925350Y-64245295D01*
X62925350Y-64245295D02*
X63077731Y-64245295D01*
X63077731Y-64245295D02*
X63153922Y-64283390D01*
X63153922Y-64283390D02*
X63192017Y-64321485D01*
X63192017Y-64321485D02*
X63230112Y-64397676D01*
X63230112Y-64397676D02*
X63230112Y-64435771D01*
X63230112Y-64435771D02*
X63192017Y-64511961D01*
X63192017Y-64511961D02*
X63153922Y-64550057D01*
X63153922Y-64550057D02*
X63077731Y-64588152D01*
X63077731Y-64588152D02*
X62925350Y-64588152D01*
X62925350Y-64588152D02*
X62849160Y-64626247D01*
X62849160Y-64626247D02*
X62811065Y-64664342D01*
X62811065Y-64664342D02*
X62772969Y-64740533D01*
X62772969Y-64740533D02*
X62772969Y-64892914D01*
X62772969Y-64892914D02*
X62811065Y-64969104D01*
X62811065Y-64969104D02*
X62849160Y-65007200D01*
X62849160Y-65007200D02*
X62925350Y-65045295D01*
X62925350Y-65045295D02*
X63077731Y-65045295D01*
X63077731Y-65045295D02*
X63153922Y-65007200D01*
X63153922Y-65007200D02*
X63192017Y-64969104D01*
X63192017Y-64969104D02*
X63230112Y-64892914D01*
X63230112Y-64892914D02*
X63230112Y-64740533D01*
X63230112Y-64740533D02*
X63192017Y-64664342D01*
X63192017Y-64664342D02*
X63153922Y-64626247D01*
X63153922Y-64626247D02*
X63077731Y-64588152D01*
D14*
X31294071Y-50960967D02*
X29794071Y-51460967D01*
X29794071Y-51460967D02*
X31294071Y-51960967D01*
X29794071Y-52460966D02*
X31294071Y-52460966D01*
X29794071Y-53175252D02*
X31294071Y-53175252D01*
X31294071Y-53175252D02*
X29794071Y-54032395D01*
X29794071Y-54032395D02*
X31294071Y-54032395D01*
D11*
X44052247Y-65290458D02*
X44052247Y-65090458D01*
X44471295Y-65004744D02*
X44471295Y-65290458D01*
X44471295Y-65290458D02*
X43671295Y-65290458D01*
X43671295Y-65290458D02*
X43671295Y-65004744D01*
X44433200Y-64776173D02*
X44471295Y-64690459D01*
X44471295Y-64690459D02*
X44471295Y-64547601D01*
X44471295Y-64547601D02*
X44433200Y-64490459D01*
X44433200Y-64490459D02*
X44395104Y-64461887D01*
X44395104Y-64461887D02*
X44318914Y-64433316D01*
X44318914Y-64433316D02*
X44242723Y-64433316D01*
X44242723Y-64433316D02*
X44166533Y-64461887D01*
X44166533Y-64461887D02*
X44128438Y-64490459D01*
X44128438Y-64490459D02*
X44090342Y-64547601D01*
X44090342Y-64547601D02*
X44052247Y-64661887D01*
X44052247Y-64661887D02*
X44014152Y-64719030D01*
X44014152Y-64719030D02*
X43976057Y-64747601D01*
X43976057Y-64747601D02*
X43899866Y-64776173D01*
X43899866Y-64776173D02*
X43823676Y-64776173D01*
X43823676Y-64776173D02*
X43747485Y-64747601D01*
X43747485Y-64747601D02*
X43709390Y-64719030D01*
X43709390Y-64719030D02*
X43671295Y-64661887D01*
X43671295Y-64661887D02*
X43671295Y-64519030D01*
X43671295Y-64519030D02*
X43709390Y-64433316D01*
X44471295Y-64176172D02*
X43671295Y-64176172D01*
X43671295Y-64176172D02*
X43671295Y-63947601D01*
X43671295Y-63947601D02*
X43709390Y-63890458D01*
X43709390Y-63890458D02*
X43747485Y-63861887D01*
X43747485Y-63861887D02*
X43823676Y-63833315D01*
X43823676Y-63833315D02*
X43937961Y-63833315D01*
X43937961Y-63833315D02*
X44014152Y-63861887D01*
X44014152Y-63861887D02*
X44052247Y-63890458D01*
X44052247Y-63890458D02*
X44090342Y-63947601D01*
X44090342Y-63947601D02*
X44090342Y-64176172D01*
X44166533Y-63576172D02*
X44166533Y-63119030D01*
X44471295Y-62833315D02*
X43671295Y-62833315D01*
X43671295Y-62833315D02*
X43671295Y-62604744D01*
X43671295Y-62604744D02*
X43709390Y-62547601D01*
X43709390Y-62547601D02*
X43747485Y-62519030D01*
X43747485Y-62519030D02*
X43823676Y-62490458D01*
X43823676Y-62490458D02*
X43937961Y-62490458D01*
X43937961Y-62490458D02*
X44014152Y-62519030D01*
X44014152Y-62519030D02*
X44052247Y-62547601D01*
X44052247Y-62547601D02*
X44090342Y-62604744D01*
X44090342Y-62604744D02*
X44090342Y-62833315D01*
X44471295Y-62233315D02*
X43937961Y-62233315D01*
X44090342Y-62233315D02*
X44014152Y-62204744D01*
X44014152Y-62204744D02*
X43976057Y-62176173D01*
X43976057Y-62176173D02*
X43937961Y-62119030D01*
X43937961Y-62119030D02*
X43937961Y-62061887D01*
X44471295Y-61776172D02*
X44433200Y-61833315D01*
X44433200Y-61833315D02*
X44395104Y-61861886D01*
X44395104Y-61861886D02*
X44318914Y-61890458D01*
X44318914Y-61890458D02*
X44090342Y-61890458D01*
X44090342Y-61890458D02*
X44014152Y-61861886D01*
X44014152Y-61861886D02*
X43976057Y-61833315D01*
X43976057Y-61833315D02*
X43937961Y-61776172D01*
X43937961Y-61776172D02*
X43937961Y-61690458D01*
X43937961Y-61690458D02*
X43976057Y-61633315D01*
X43976057Y-61633315D02*
X44014152Y-61604744D01*
X44014152Y-61604744D02*
X44090342Y-61576172D01*
X44090342Y-61576172D02*
X44318914Y-61576172D01*
X44318914Y-61576172D02*
X44395104Y-61604744D01*
X44395104Y-61604744D02*
X44433200Y-61633315D01*
X44433200Y-61633315D02*
X44471295Y-61690458D01*
X44471295Y-61690458D02*
X44471295Y-61776172D01*
X43937961Y-61061887D02*
X44585580Y-61061887D01*
X44585580Y-61061887D02*
X44661771Y-61090458D01*
X44661771Y-61090458D02*
X44699866Y-61119029D01*
X44699866Y-61119029D02*
X44737961Y-61176172D01*
X44737961Y-61176172D02*
X44737961Y-61261887D01*
X44737961Y-61261887D02*
X44699866Y-61319029D01*
X44433200Y-61061887D02*
X44471295Y-61119029D01*
X44471295Y-61119029D02*
X44471295Y-61233315D01*
X44471295Y-61233315D02*
X44433200Y-61290458D01*
X44433200Y-61290458D02*
X44395104Y-61319029D01*
X44395104Y-61319029D02*
X44318914Y-61347601D01*
X44318914Y-61347601D02*
X44090342Y-61347601D01*
X44090342Y-61347601D02*
X44014152Y-61319029D01*
X44014152Y-61319029D02*
X43976057Y-61290458D01*
X43976057Y-61290458D02*
X43937961Y-61233315D01*
X43937961Y-61233315D02*
X43937961Y-61119029D01*
X43937961Y-61119029D02*
X43976057Y-61061887D01*
X64600112Y-27096009D02*
X64742969Y-27143628D01*
X64742969Y-27143628D02*
X64790588Y-27191247D01*
X64790588Y-27191247D02*
X64838207Y-27286485D01*
X64838207Y-27286485D02*
X64838207Y-27429342D01*
X64838207Y-27429342D02*
X64790588Y-27524580D01*
X64790588Y-27524580D02*
X64742969Y-27572200D01*
X64742969Y-27572200D02*
X64647731Y-27619819D01*
X64647731Y-27619819D02*
X64266779Y-27619819D01*
X64266779Y-27619819D02*
X64266779Y-26619819D01*
X64266779Y-26619819D02*
X64600112Y-26619819D01*
X64600112Y-26619819D02*
X64695350Y-26667438D01*
X64695350Y-26667438D02*
X64742969Y-26715057D01*
X64742969Y-26715057D02*
X64790588Y-26810295D01*
X64790588Y-26810295D02*
X64790588Y-26905533D01*
X64790588Y-26905533D02*
X64742969Y-27000771D01*
X64742969Y-27000771D02*
X64695350Y-27048390D01*
X64695350Y-27048390D02*
X64600112Y-27096009D01*
X64600112Y-27096009D02*
X64266779Y-27096009D01*
X65457255Y-26619819D02*
X65647731Y-26619819D01*
X65647731Y-26619819D02*
X65742969Y-26667438D01*
X65742969Y-26667438D02*
X65838207Y-26762676D01*
X65838207Y-26762676D02*
X65885826Y-26953152D01*
X65885826Y-26953152D02*
X65885826Y-27286485D01*
X65885826Y-27286485D02*
X65838207Y-27476961D01*
X65838207Y-27476961D02*
X65742969Y-27572200D01*
X65742969Y-27572200D02*
X65647731Y-27619819D01*
X65647731Y-27619819D02*
X65457255Y-27619819D01*
X65457255Y-27619819D02*
X65362017Y-27572200D01*
X65362017Y-27572200D02*
X65266779Y-27476961D01*
X65266779Y-27476961D02*
X65219160Y-27286485D01*
X65219160Y-27286485D02*
X65219160Y-26953152D01*
X65219160Y-26953152D02*
X65266779Y-26762676D01*
X65266779Y-26762676D02*
X65362017Y-26667438D01*
X65362017Y-26667438D02*
X65457255Y-26619819D01*
X66504874Y-26619819D02*
X66695350Y-26619819D01*
X66695350Y-26619819D02*
X66790588Y-26667438D01*
X66790588Y-26667438D02*
X66885826Y-26762676D01*
X66885826Y-26762676D02*
X66933445Y-26953152D01*
X66933445Y-26953152D02*
X66933445Y-27286485D01*
X66933445Y-27286485D02*
X66885826Y-27476961D01*
X66885826Y-27476961D02*
X66790588Y-27572200D01*
X66790588Y-27572200D02*
X66695350Y-27619819D01*
X66695350Y-27619819D02*
X66504874Y-27619819D01*
X66504874Y-27619819D02*
X66409636Y-27572200D01*
X66409636Y-27572200D02*
X66314398Y-27476961D01*
X66314398Y-27476961D02*
X66266779Y-27286485D01*
X66266779Y-27286485D02*
X66266779Y-26953152D01*
X66266779Y-26953152D02*
X66314398Y-26762676D01*
X66314398Y-26762676D02*
X66409636Y-26667438D01*
X66409636Y-26667438D02*
X66504874Y-26619819D01*
X67219160Y-26619819D02*
X67790588Y-26619819D01*
X67504874Y-27619819D02*
X67504874Y-26619819D01*
X21164779Y-46224866D02*
X21926684Y-46224866D01*
X21545731Y-46605819D02*
X21545731Y-45843914D01*
X41586485Y-26492190D02*
X41548390Y-26568380D01*
X41548390Y-26568380D02*
X41472200Y-26644571D01*
X41472200Y-26644571D02*
X41357914Y-26758857D01*
X41357914Y-26758857D02*
X41319819Y-26835047D01*
X41319819Y-26835047D02*
X41319819Y-26911238D01*
X41510295Y-26873142D02*
X41472200Y-26949333D01*
X41472200Y-26949333D02*
X41396009Y-27025523D01*
X41396009Y-27025523D02*
X41243628Y-27063619D01*
X41243628Y-27063619D02*
X40976961Y-27063619D01*
X40976961Y-27063619D02*
X40824580Y-27025523D01*
X40824580Y-27025523D02*
X40748390Y-26949333D01*
X40748390Y-26949333D02*
X40710295Y-26873142D01*
X40710295Y-26873142D02*
X40710295Y-26720761D01*
X40710295Y-26720761D02*
X40748390Y-26644571D01*
X40748390Y-26644571D02*
X40824580Y-26568380D01*
X40824580Y-26568380D02*
X40976961Y-26530285D01*
X40976961Y-26530285D02*
X41243628Y-26530285D01*
X41243628Y-26530285D02*
X41396009Y-26568380D01*
X41396009Y-26568380D02*
X41472200Y-26644571D01*
X41472200Y-26644571D02*
X41510295Y-26720761D01*
X41510295Y-26720761D02*
X41510295Y-26873142D01*
X40976961Y-25844571D02*
X41510295Y-25844571D01*
X40672200Y-26035047D02*
X41243628Y-26225524D01*
X41243628Y-26225524D02*
X41243628Y-25730285D01*
X35901333Y-43253819D02*
X35425143Y-43253819D01*
X35425143Y-43253819D02*
X35425143Y-42253819D01*
X36758476Y-43253819D02*
X36187048Y-43253819D01*
X36472762Y-43253819D02*
X36472762Y-42253819D01*
X36472762Y-42253819D02*
X36377524Y-42396676D01*
X36377524Y-42396676D02*
X36282286Y-42491914D01*
X36282286Y-42491914D02*
X36187048Y-42539533D01*
X44697714Y-57563104D02*
X44659618Y-57601200D01*
X44659618Y-57601200D02*
X44545333Y-57639295D01*
X44545333Y-57639295D02*
X44469142Y-57639295D01*
X44469142Y-57639295D02*
X44354856Y-57601200D01*
X44354856Y-57601200D02*
X44278666Y-57525009D01*
X44278666Y-57525009D02*
X44240571Y-57448819D01*
X44240571Y-57448819D02*
X44202475Y-57296438D01*
X44202475Y-57296438D02*
X44202475Y-57182152D01*
X44202475Y-57182152D02*
X44240571Y-57029771D01*
X44240571Y-57029771D02*
X44278666Y-56953580D01*
X44278666Y-56953580D02*
X44354856Y-56877390D01*
X44354856Y-56877390D02*
X44469142Y-56839295D01*
X44469142Y-56839295D02*
X44545333Y-56839295D01*
X44545333Y-56839295D02*
X44659618Y-56877390D01*
X44659618Y-56877390D02*
X44697714Y-56915485D01*
X45459618Y-57639295D02*
X45002475Y-57639295D01*
X45231047Y-57639295D02*
X45231047Y-56839295D01*
X45231047Y-56839295D02*
X45154856Y-56953580D01*
X45154856Y-56953580D02*
X45078666Y-57029771D01*
X45078666Y-57029771D02*
X45002475Y-57067866D01*
X46145333Y-57105961D02*
X46145333Y-57639295D01*
X45954857Y-56801200D02*
X45764380Y-57372628D01*
X45764380Y-57372628D02*
X46259619Y-57372628D01*
X56684057Y-26511238D02*
X56636438Y-26606476D01*
X56636438Y-26606476D02*
X56541200Y-26701714D01*
X56541200Y-26701714D02*
X56398342Y-26844571D01*
X56398342Y-26844571D02*
X56350723Y-26939809D01*
X56350723Y-26939809D02*
X56350723Y-27035047D01*
X56588819Y-26987428D02*
X56541200Y-27082666D01*
X56541200Y-27082666D02*
X56445961Y-27177904D01*
X56445961Y-27177904D02*
X56255485Y-27225523D01*
X56255485Y-27225523D02*
X55922152Y-27225523D01*
X55922152Y-27225523D02*
X55731676Y-27177904D01*
X55731676Y-27177904D02*
X55636438Y-27082666D01*
X55636438Y-27082666D02*
X55588819Y-26987428D01*
X55588819Y-26987428D02*
X55588819Y-26796952D01*
X55588819Y-26796952D02*
X55636438Y-26701714D01*
X55636438Y-26701714D02*
X55731676Y-26606476D01*
X55731676Y-26606476D02*
X55922152Y-26558857D01*
X55922152Y-26558857D02*
X56255485Y-26558857D01*
X56255485Y-26558857D02*
X56445961Y-26606476D01*
X56445961Y-26606476D02*
X56541200Y-26701714D01*
X56541200Y-26701714D02*
X56588819Y-26796952D01*
X56588819Y-26796952D02*
X56588819Y-26987428D01*
X55588819Y-25654095D02*
X55588819Y-26130285D01*
X55588819Y-26130285D02*
X56065009Y-26177904D01*
X56065009Y-26177904D02*
X56017390Y-26130285D01*
X56017390Y-26130285D02*
X55969771Y-26035047D01*
X55969771Y-26035047D02*
X55969771Y-25796952D01*
X55969771Y-25796952D02*
X56017390Y-25701714D01*
X56017390Y-25701714D02*
X56065009Y-25654095D01*
X56065009Y-25654095D02*
X56160247Y-25606476D01*
X56160247Y-25606476D02*
X56398342Y-25606476D01*
X56398342Y-25606476D02*
X56493580Y-25654095D01*
X56493580Y-25654095D02*
X56541200Y-25701714D01*
X56541200Y-25701714D02*
X56588819Y-25796952D01*
X56588819Y-25796952D02*
X56588819Y-26035047D01*
X56588819Y-26035047D02*
X56541200Y-26130285D01*
X56541200Y-26130285D02*
X56493580Y-26177904D01*
X36442714Y-56369295D02*
X36176047Y-55988342D01*
X35985571Y-56369295D02*
X35985571Y-55569295D01*
X35985571Y-55569295D02*
X36290333Y-55569295D01*
X36290333Y-55569295D02*
X36366523Y-55607390D01*
X36366523Y-55607390D02*
X36404618Y-55645485D01*
X36404618Y-55645485D02*
X36442714Y-55721676D01*
X36442714Y-55721676D02*
X36442714Y-55835961D01*
X36442714Y-55835961D02*
X36404618Y-55912152D01*
X36404618Y-55912152D02*
X36366523Y-55950247D01*
X36366523Y-55950247D02*
X36290333Y-55988342D01*
X36290333Y-55988342D02*
X35985571Y-55988342D01*
X37204618Y-56369295D02*
X36747475Y-56369295D01*
X36976047Y-56369295D02*
X36976047Y-55569295D01*
X36976047Y-55569295D02*
X36899856Y-55683580D01*
X36899856Y-55683580D02*
X36823666Y-55759771D01*
X36823666Y-55759771D02*
X36747475Y-55797866D01*
X37699857Y-55569295D02*
X37776047Y-55569295D01*
X37776047Y-55569295D02*
X37852238Y-55607390D01*
X37852238Y-55607390D02*
X37890333Y-55645485D01*
X37890333Y-55645485D02*
X37928428Y-55721676D01*
X37928428Y-55721676D02*
X37966523Y-55874057D01*
X37966523Y-55874057D02*
X37966523Y-56064533D01*
X37966523Y-56064533D02*
X37928428Y-56216914D01*
X37928428Y-56216914D02*
X37890333Y-56293104D01*
X37890333Y-56293104D02*
X37852238Y-56331200D01*
X37852238Y-56331200D02*
X37776047Y-56369295D01*
X37776047Y-56369295D02*
X37699857Y-56369295D01*
X37699857Y-56369295D02*
X37623666Y-56331200D01*
X37623666Y-56331200D02*
X37585571Y-56293104D01*
X37585571Y-56293104D02*
X37547476Y-56216914D01*
X37547476Y-56216914D02*
X37509380Y-56064533D01*
X37509380Y-56064533D02*
X37509380Y-55874057D01*
X37509380Y-55874057D02*
X37547476Y-55721676D01*
X37547476Y-55721676D02*
X37585571Y-55645485D01*
X37585571Y-55645485D02*
X37623666Y-55607390D01*
X37623666Y-55607390D02*
X37699857Y-55569295D01*
X61764057Y-26511238D02*
X61716438Y-26606476D01*
X61716438Y-26606476D02*
X61621200Y-26701714D01*
X61621200Y-26701714D02*
X61478342Y-26844571D01*
X61478342Y-26844571D02*
X61430723Y-26939809D01*
X61430723Y-26939809D02*
X61430723Y-27035047D01*
X61668819Y-26987428D02*
X61621200Y-27082666D01*
X61621200Y-27082666D02*
X61525961Y-27177904D01*
X61525961Y-27177904D02*
X61335485Y-27225523D01*
X61335485Y-27225523D02*
X61002152Y-27225523D01*
X61002152Y-27225523D02*
X60811676Y-27177904D01*
X60811676Y-27177904D02*
X60716438Y-27082666D01*
X60716438Y-27082666D02*
X60668819Y-26987428D01*
X60668819Y-26987428D02*
X60668819Y-26796952D01*
X60668819Y-26796952D02*
X60716438Y-26701714D01*
X60716438Y-26701714D02*
X60811676Y-26606476D01*
X60811676Y-26606476D02*
X61002152Y-26558857D01*
X61002152Y-26558857D02*
X61335485Y-26558857D01*
X61335485Y-26558857D02*
X61525961Y-26606476D01*
X61525961Y-26606476D02*
X61621200Y-26701714D01*
X61621200Y-26701714D02*
X61668819Y-26796952D01*
X61668819Y-26796952D02*
X61668819Y-26987428D01*
X60668819Y-26225523D02*
X60668819Y-25606476D01*
X60668819Y-25606476D02*
X61049771Y-25939809D01*
X61049771Y-25939809D02*
X61049771Y-25796952D01*
X61049771Y-25796952D02*
X61097390Y-25701714D01*
X61097390Y-25701714D02*
X61145009Y-25654095D01*
X61145009Y-25654095D02*
X61240247Y-25606476D01*
X61240247Y-25606476D02*
X61478342Y-25606476D01*
X61478342Y-25606476D02*
X61573580Y-25654095D01*
X61573580Y-25654095D02*
X61621200Y-25701714D01*
X61621200Y-25701714D02*
X61668819Y-25796952D01*
X61668819Y-25796952D02*
X61668819Y-26082666D01*
X61668819Y-26082666D02*
X61621200Y-26177904D01*
X61621200Y-26177904D02*
X61573580Y-26225523D01*
X39824819Y-38611666D02*
X39348628Y-38944999D01*
X39824819Y-39183094D02*
X38824819Y-39183094D01*
X38824819Y-39183094D02*
X38824819Y-38802142D01*
X38824819Y-38802142D02*
X38872438Y-38706904D01*
X38872438Y-38706904D02*
X38920057Y-38659285D01*
X38920057Y-38659285D02*
X39015295Y-38611666D01*
X39015295Y-38611666D02*
X39158152Y-38611666D01*
X39158152Y-38611666D02*
X39253390Y-38659285D01*
X39253390Y-38659285D02*
X39301009Y-38706904D01*
X39301009Y-38706904D02*
X39348628Y-38802142D01*
X39348628Y-38802142D02*
X39348628Y-39183094D01*
X39158152Y-37754523D02*
X39824819Y-37754523D01*
X38777200Y-37992618D02*
X39491485Y-38230713D01*
X39491485Y-38230713D02*
X39491485Y-37611666D01*
X28440142Y-16869580D02*
X28392523Y-16917200D01*
X28392523Y-16917200D02*
X28249666Y-16964819D01*
X28249666Y-16964819D02*
X28154428Y-16964819D01*
X28154428Y-16964819D02*
X28011571Y-16917200D01*
X28011571Y-16917200D02*
X27916333Y-16821961D01*
X27916333Y-16821961D02*
X27868714Y-16726723D01*
X27868714Y-16726723D02*
X27821095Y-16536247D01*
X27821095Y-16536247D02*
X27821095Y-16393390D01*
X27821095Y-16393390D02*
X27868714Y-16202914D01*
X27868714Y-16202914D02*
X27916333Y-16107676D01*
X27916333Y-16107676D02*
X28011571Y-16012438D01*
X28011571Y-16012438D02*
X28154428Y-15964819D01*
X28154428Y-15964819D02*
X28249666Y-15964819D01*
X28249666Y-15964819D02*
X28392523Y-16012438D01*
X28392523Y-16012438D02*
X28440142Y-16060057D01*
X28821095Y-16060057D02*
X28868714Y-16012438D01*
X28868714Y-16012438D02*
X28963952Y-15964819D01*
X28963952Y-15964819D02*
X29202047Y-15964819D01*
X29202047Y-15964819D02*
X29297285Y-16012438D01*
X29297285Y-16012438D02*
X29344904Y-16060057D01*
X29344904Y-16060057D02*
X29392523Y-16155295D01*
X29392523Y-16155295D02*
X29392523Y-16250533D01*
X29392523Y-16250533D02*
X29344904Y-16393390D01*
X29344904Y-16393390D02*
X28773476Y-16964819D01*
X28773476Y-16964819D02*
X29392523Y-16964819D01*
X30344904Y-16964819D02*
X29773476Y-16964819D01*
X30059190Y-16964819D02*
X30059190Y-15964819D01*
X30059190Y-15964819D02*
X29963952Y-16107676D01*
X29963952Y-16107676D02*
X29868714Y-16202914D01*
X29868714Y-16202914D02*
X29773476Y-16250533D01*
X45973333Y-29664819D02*
X45640000Y-29188628D01*
X45401905Y-29664819D02*
X45401905Y-28664819D01*
X45401905Y-28664819D02*
X45782857Y-28664819D01*
X45782857Y-28664819D02*
X45878095Y-28712438D01*
X45878095Y-28712438D02*
X45925714Y-28760057D01*
X45925714Y-28760057D02*
X45973333Y-28855295D01*
X45973333Y-28855295D02*
X45973333Y-28998152D01*
X45973333Y-28998152D02*
X45925714Y-29093390D01*
X45925714Y-29093390D02*
X45878095Y-29141009D01*
X45878095Y-29141009D02*
X45782857Y-29188628D01*
X45782857Y-29188628D02*
X45401905Y-29188628D01*
X46306667Y-28664819D02*
X46925714Y-28664819D01*
X46925714Y-28664819D02*
X46592381Y-29045771D01*
X46592381Y-29045771D02*
X46735238Y-29045771D01*
X46735238Y-29045771D02*
X46830476Y-29093390D01*
X46830476Y-29093390D02*
X46878095Y-29141009D01*
X46878095Y-29141009D02*
X46925714Y-29236247D01*
X46925714Y-29236247D02*
X46925714Y-29474342D01*
X46925714Y-29474342D02*
X46878095Y-29569580D01*
X46878095Y-29569580D02*
X46830476Y-29617200D01*
X46830476Y-29617200D02*
X46735238Y-29664819D01*
X46735238Y-29664819D02*
X46449524Y-29664819D01*
X46449524Y-29664819D02*
X46354286Y-29617200D01*
X46354286Y-29617200D02*
X46306667Y-29569580D01*
X50851333Y-29664819D02*
X50518000Y-29188628D01*
X50279905Y-29664819D02*
X50279905Y-28664819D01*
X50279905Y-28664819D02*
X50660857Y-28664819D01*
X50660857Y-28664819D02*
X50756095Y-28712438D01*
X50756095Y-28712438D02*
X50803714Y-28760057D01*
X50803714Y-28760057D02*
X50851333Y-28855295D01*
X50851333Y-28855295D02*
X50851333Y-28998152D01*
X50851333Y-28998152D02*
X50803714Y-29093390D01*
X50803714Y-29093390D02*
X50756095Y-29141009D01*
X50756095Y-29141009D02*
X50660857Y-29188628D01*
X50660857Y-29188628D02*
X50279905Y-29188628D01*
X51756095Y-28664819D02*
X51279905Y-28664819D01*
X51279905Y-28664819D02*
X51232286Y-29141009D01*
X51232286Y-29141009D02*
X51279905Y-29093390D01*
X51279905Y-29093390D02*
X51375143Y-29045771D01*
X51375143Y-29045771D02*
X51613238Y-29045771D01*
X51613238Y-29045771D02*
X51708476Y-29093390D01*
X51708476Y-29093390D02*
X51756095Y-29141009D01*
X51756095Y-29141009D02*
X51803714Y-29236247D01*
X51803714Y-29236247D02*
X51803714Y-29474342D01*
X51803714Y-29474342D02*
X51756095Y-29569580D01*
X51756095Y-29569580D02*
X51708476Y-29617200D01*
X51708476Y-29617200D02*
X51613238Y-29664819D01*
X51613238Y-29664819D02*
X51375143Y-29664819D01*
X51375143Y-29664819D02*
X51279905Y-29617200D01*
X51279905Y-29617200D02*
X51232286Y-29569580D01*
X50270580Y-39123857D02*
X50318200Y-39171476D01*
X50318200Y-39171476D02*
X50365819Y-39314333D01*
X50365819Y-39314333D02*
X50365819Y-39409571D01*
X50365819Y-39409571D02*
X50318200Y-39552428D01*
X50318200Y-39552428D02*
X50222961Y-39647666D01*
X50222961Y-39647666D02*
X50127723Y-39695285D01*
X50127723Y-39695285D02*
X49937247Y-39742904D01*
X49937247Y-39742904D02*
X49794390Y-39742904D01*
X49794390Y-39742904D02*
X49603914Y-39695285D01*
X49603914Y-39695285D02*
X49508676Y-39647666D01*
X49508676Y-39647666D02*
X49413438Y-39552428D01*
X49413438Y-39552428D02*
X49365819Y-39409571D01*
X49365819Y-39409571D02*
X49365819Y-39314333D01*
X49365819Y-39314333D02*
X49413438Y-39171476D01*
X49413438Y-39171476D02*
X49461057Y-39123857D01*
X49461057Y-38742904D02*
X49413438Y-38695285D01*
X49413438Y-38695285D02*
X49365819Y-38600047D01*
X49365819Y-38600047D02*
X49365819Y-38361952D01*
X49365819Y-38361952D02*
X49413438Y-38266714D01*
X49413438Y-38266714D02*
X49461057Y-38219095D01*
X49461057Y-38219095D02*
X49556295Y-38171476D01*
X49556295Y-38171476D02*
X49651533Y-38171476D01*
X49651533Y-38171476D02*
X49794390Y-38219095D01*
X49794390Y-38219095D02*
X50365819Y-38790523D01*
X50365819Y-38790523D02*
X50365819Y-38171476D01*
X49461057Y-37790523D02*
X49413438Y-37742904D01*
X49413438Y-37742904D02*
X49365819Y-37647666D01*
X49365819Y-37647666D02*
X49365819Y-37409571D01*
X49365819Y-37409571D02*
X49413438Y-37314333D01*
X49413438Y-37314333D02*
X49461057Y-37266714D01*
X49461057Y-37266714D02*
X49556295Y-37219095D01*
X49556295Y-37219095D02*
X49651533Y-37219095D01*
X49651533Y-37219095D02*
X49794390Y-37266714D01*
X49794390Y-37266714D02*
X50365819Y-37838142D01*
X50365819Y-37838142D02*
X50365819Y-37219095D01*
X56204295Y-34112523D02*
X56851914Y-34112523D01*
X56851914Y-34112523D02*
X56928104Y-34074428D01*
X56928104Y-34074428D02*
X56966200Y-34036333D01*
X56966200Y-34036333D02*
X57004295Y-33960142D01*
X57004295Y-33960142D02*
X57004295Y-33807761D01*
X57004295Y-33807761D02*
X56966200Y-33731571D01*
X56966200Y-33731571D02*
X56928104Y-33693476D01*
X56928104Y-33693476D02*
X56851914Y-33655380D01*
X56851914Y-33655380D02*
X56204295Y-33655380D01*
X56204295Y-33350619D02*
X56204295Y-32855381D01*
X56204295Y-32855381D02*
X56509057Y-33122047D01*
X56509057Y-33122047D02*
X56509057Y-33007762D01*
X56509057Y-33007762D02*
X56547152Y-32931571D01*
X56547152Y-32931571D02*
X56585247Y-32893476D01*
X56585247Y-32893476D02*
X56661438Y-32855381D01*
X56661438Y-32855381D02*
X56851914Y-32855381D01*
X56851914Y-32855381D02*
X56928104Y-32893476D01*
X56928104Y-32893476D02*
X56966200Y-32931571D01*
X56966200Y-32931571D02*
X57004295Y-33007762D01*
X57004295Y-33007762D02*
X57004295Y-33236333D01*
X57004295Y-33236333D02*
X56966200Y-33312524D01*
X56966200Y-33312524D02*
X56928104Y-33350619D01*
X43006180Y-49722066D02*
X43053800Y-49769685D01*
X43053800Y-49769685D02*
X43101419Y-49912542D01*
X43101419Y-49912542D02*
X43101419Y-50007780D01*
X43101419Y-50007780D02*
X43053800Y-50150637D01*
X43053800Y-50150637D02*
X42958561Y-50245875D01*
X42958561Y-50245875D02*
X42863323Y-50293494D01*
X42863323Y-50293494D02*
X42672847Y-50341113D01*
X42672847Y-50341113D02*
X42529990Y-50341113D01*
X42529990Y-50341113D02*
X42339514Y-50293494D01*
X42339514Y-50293494D02*
X42244276Y-50245875D01*
X42244276Y-50245875D02*
X42149038Y-50150637D01*
X42149038Y-50150637D02*
X42101419Y-50007780D01*
X42101419Y-50007780D02*
X42101419Y-49912542D01*
X42101419Y-49912542D02*
X42149038Y-49769685D01*
X42149038Y-49769685D02*
X42196657Y-49722066D01*
X42196657Y-49341113D02*
X42149038Y-49293494D01*
X42149038Y-49293494D02*
X42101419Y-49198256D01*
X42101419Y-49198256D02*
X42101419Y-48960161D01*
X42101419Y-48960161D02*
X42149038Y-48864923D01*
X42149038Y-48864923D02*
X42196657Y-48817304D01*
X42196657Y-48817304D02*
X42291895Y-48769685D01*
X42291895Y-48769685D02*
X42387133Y-48769685D01*
X42387133Y-48769685D02*
X42529990Y-48817304D01*
X42529990Y-48817304D02*
X43101419Y-49388732D01*
X43101419Y-49388732D02*
X43101419Y-48769685D01*
X51604057Y-26511238D02*
X51556438Y-26606476D01*
X51556438Y-26606476D02*
X51461200Y-26701714D01*
X51461200Y-26701714D02*
X51318342Y-26844571D01*
X51318342Y-26844571D02*
X51270723Y-26939809D01*
X51270723Y-26939809D02*
X51270723Y-27035047D01*
X51508819Y-26987428D02*
X51461200Y-27082666D01*
X51461200Y-27082666D02*
X51365961Y-27177904D01*
X51365961Y-27177904D02*
X51175485Y-27225523D01*
X51175485Y-27225523D02*
X50842152Y-27225523D01*
X50842152Y-27225523D02*
X50651676Y-27177904D01*
X50651676Y-27177904D02*
X50556438Y-27082666D01*
X50556438Y-27082666D02*
X50508819Y-26987428D01*
X50508819Y-26987428D02*
X50508819Y-26796952D01*
X50508819Y-26796952D02*
X50556438Y-26701714D01*
X50556438Y-26701714D02*
X50651676Y-26606476D01*
X50651676Y-26606476D02*
X50842152Y-26558857D01*
X50842152Y-26558857D02*
X51175485Y-26558857D01*
X51175485Y-26558857D02*
X51365961Y-26606476D01*
X51365961Y-26606476D02*
X51461200Y-26701714D01*
X51461200Y-26701714D02*
X51508819Y-26796952D01*
X51508819Y-26796952D02*
X51508819Y-26987428D01*
X50604057Y-26177904D02*
X50556438Y-26130285D01*
X50556438Y-26130285D02*
X50508819Y-26035047D01*
X50508819Y-26035047D02*
X50508819Y-25796952D01*
X50508819Y-25796952D02*
X50556438Y-25701714D01*
X50556438Y-25701714D02*
X50604057Y-25654095D01*
X50604057Y-25654095D02*
X50699295Y-25606476D01*
X50699295Y-25606476D02*
X50794533Y-25606476D01*
X50794533Y-25606476D02*
X50937390Y-25654095D01*
X50937390Y-25654095D02*
X51508819Y-26225523D01*
X51508819Y-26225523D02*
X51508819Y-25606476D01*
X51360295Y-34112523D02*
X52007914Y-34112523D01*
X52007914Y-34112523D02*
X52084104Y-34074428D01*
X52084104Y-34074428D02*
X52122200Y-34036333D01*
X52122200Y-34036333D02*
X52160295Y-33960142D01*
X52160295Y-33960142D02*
X52160295Y-33807761D01*
X52160295Y-33807761D02*
X52122200Y-33731571D01*
X52122200Y-33731571D02*
X52084104Y-33693476D01*
X52084104Y-33693476D02*
X52007914Y-33655380D01*
X52007914Y-33655380D02*
X51360295Y-33655380D01*
X51626961Y-32931571D02*
X52160295Y-32931571D01*
X51322200Y-33122047D02*
X51893628Y-33312524D01*
X51893628Y-33312524D02*
X51893628Y-32817285D01*
X41997571Y-59128819D02*
X41521381Y-59128819D01*
X41521381Y-59128819D02*
X41521381Y-58128819D01*
X42330905Y-58605009D02*
X42664238Y-58605009D01*
X42807095Y-59128819D02*
X42330905Y-59128819D01*
X42330905Y-59128819D02*
X42330905Y-58128819D01*
X42330905Y-58128819D02*
X42807095Y-58128819D01*
X43235667Y-59128819D02*
X43235667Y-58128819D01*
X43235667Y-58128819D02*
X43473762Y-58128819D01*
X43473762Y-58128819D02*
X43616619Y-58176438D01*
X43616619Y-58176438D02*
X43711857Y-58271676D01*
X43711857Y-58271676D02*
X43759476Y-58366914D01*
X43759476Y-58366914D02*
X43807095Y-58557390D01*
X43807095Y-58557390D02*
X43807095Y-58700247D01*
X43807095Y-58700247D02*
X43759476Y-58890723D01*
X43759476Y-58890723D02*
X43711857Y-58985961D01*
X43711857Y-58985961D02*
X43616619Y-59081200D01*
X43616619Y-59081200D02*
X43473762Y-59128819D01*
X43473762Y-59128819D02*
X43235667Y-59128819D01*
X43997572Y-59224057D02*
X44759476Y-59224057D01*
X45188048Y-58128819D02*
X45378524Y-58128819D01*
X45378524Y-58128819D02*
X45473762Y-58176438D01*
X45473762Y-58176438D02*
X45569000Y-58271676D01*
X45569000Y-58271676D02*
X45616619Y-58462152D01*
X45616619Y-58462152D02*
X45616619Y-58795485D01*
X45616619Y-58795485D02*
X45569000Y-58985961D01*
X45569000Y-58985961D02*
X45473762Y-59081200D01*
X45473762Y-59081200D02*
X45378524Y-59128819D01*
X45378524Y-59128819D02*
X45188048Y-59128819D01*
X45188048Y-59128819D02*
X45092810Y-59081200D01*
X45092810Y-59081200D02*
X44997572Y-58985961D01*
X44997572Y-58985961D02*
X44949953Y-58795485D01*
X44949953Y-58795485D02*
X44949953Y-58462152D01*
X44949953Y-58462152D02*
X44997572Y-58271676D01*
X44997572Y-58271676D02*
X45092810Y-58176438D01*
X45092810Y-58176438D02*
X45188048Y-58128819D01*
X46045191Y-59128819D02*
X46045191Y-58128819D01*
X46045191Y-58128819D02*
X46616619Y-59128819D01*
X46616619Y-59128819D02*
X46616619Y-58128819D01*
X46412485Y-26492190D02*
X46374390Y-26568380D01*
X46374390Y-26568380D02*
X46298200Y-26644571D01*
X46298200Y-26644571D02*
X46183914Y-26758857D01*
X46183914Y-26758857D02*
X46145819Y-26835047D01*
X46145819Y-26835047D02*
X46145819Y-26911238D01*
X46336295Y-26873142D02*
X46298200Y-26949333D01*
X46298200Y-26949333D02*
X46222009Y-27025523D01*
X46222009Y-27025523D02*
X46069628Y-27063619D01*
X46069628Y-27063619D02*
X45802961Y-27063619D01*
X45802961Y-27063619D02*
X45650580Y-27025523D01*
X45650580Y-27025523D02*
X45574390Y-26949333D01*
X45574390Y-26949333D02*
X45536295Y-26873142D01*
X45536295Y-26873142D02*
X45536295Y-26720761D01*
X45536295Y-26720761D02*
X45574390Y-26644571D01*
X45574390Y-26644571D02*
X45650580Y-26568380D01*
X45650580Y-26568380D02*
X45802961Y-26530285D01*
X45802961Y-26530285D02*
X46069628Y-26530285D01*
X46069628Y-26530285D02*
X46222009Y-26568380D01*
X46222009Y-26568380D02*
X46298200Y-26644571D01*
X46298200Y-26644571D02*
X46336295Y-26720761D01*
X46336295Y-26720761D02*
X46336295Y-26873142D01*
X46336295Y-25768381D02*
X46336295Y-26225524D01*
X46336295Y-25996952D02*
X45536295Y-25996952D01*
X45536295Y-25996952D02*
X45650580Y-26073143D01*
X45650580Y-26073143D02*
X45726771Y-26149333D01*
X45726771Y-26149333D02*
X45764866Y-26225524D01*
X33394714Y-59112495D02*
X33128047Y-58731542D01*
X32937571Y-59112495D02*
X32937571Y-58312495D01*
X32937571Y-58312495D02*
X33242333Y-58312495D01*
X33242333Y-58312495D02*
X33318523Y-58350590D01*
X33318523Y-58350590D02*
X33356618Y-58388685D01*
X33356618Y-58388685D02*
X33394714Y-58464876D01*
X33394714Y-58464876D02*
X33394714Y-58579161D01*
X33394714Y-58579161D02*
X33356618Y-58655352D01*
X33356618Y-58655352D02*
X33318523Y-58693447D01*
X33318523Y-58693447D02*
X33242333Y-58731542D01*
X33242333Y-58731542D02*
X32937571Y-58731542D01*
X34156618Y-59112495D02*
X33699475Y-59112495D01*
X33928047Y-59112495D02*
X33928047Y-58312495D01*
X33928047Y-58312495D02*
X33851856Y-58426780D01*
X33851856Y-58426780D02*
X33775666Y-58502971D01*
X33775666Y-58502971D02*
X33699475Y-58541066D01*
X34423285Y-58312495D02*
X34918523Y-58312495D01*
X34918523Y-58312495D02*
X34651857Y-58617257D01*
X34651857Y-58617257D02*
X34766142Y-58617257D01*
X34766142Y-58617257D02*
X34842333Y-58655352D01*
X34842333Y-58655352D02*
X34880428Y-58693447D01*
X34880428Y-58693447D02*
X34918523Y-58769638D01*
X34918523Y-58769638D02*
X34918523Y-58960114D01*
X34918523Y-58960114D02*
X34880428Y-59036304D01*
X34880428Y-59036304D02*
X34842333Y-59074400D01*
X34842333Y-59074400D02*
X34766142Y-59112495D01*
X34766142Y-59112495D02*
X34537571Y-59112495D01*
X34537571Y-59112495D02*
X34461380Y-59074400D01*
X34461380Y-59074400D02*
X34423285Y-59036304D01*
X61938819Y-49529904D02*
X62748342Y-49529904D01*
X62748342Y-49529904D02*
X62843580Y-49482285D01*
X62843580Y-49482285D02*
X62891200Y-49434666D01*
X62891200Y-49434666D02*
X62938819Y-49339428D01*
X62938819Y-49339428D02*
X62938819Y-49148952D01*
X62938819Y-49148952D02*
X62891200Y-49053714D01*
X62891200Y-49053714D02*
X62843580Y-49006095D01*
X62843580Y-49006095D02*
X62748342Y-48958476D01*
X62748342Y-48958476D02*
X61938819Y-48958476D01*
X62938819Y-47958476D02*
X62938819Y-48529904D01*
X62938819Y-48244190D02*
X61938819Y-48244190D01*
X61938819Y-48244190D02*
X62081676Y-48339428D01*
X62081676Y-48339428D02*
X62176914Y-48434666D01*
X62176914Y-48434666D02*
X62224533Y-48529904D01*
X33521714Y-63227295D02*
X33255047Y-62846342D01*
X33064571Y-63227295D02*
X33064571Y-62427295D01*
X33064571Y-62427295D02*
X33369333Y-62427295D01*
X33369333Y-62427295D02*
X33445523Y-62465390D01*
X33445523Y-62465390D02*
X33483618Y-62503485D01*
X33483618Y-62503485D02*
X33521714Y-62579676D01*
X33521714Y-62579676D02*
X33521714Y-62693961D01*
X33521714Y-62693961D02*
X33483618Y-62770152D01*
X33483618Y-62770152D02*
X33445523Y-62808247D01*
X33445523Y-62808247D02*
X33369333Y-62846342D01*
X33369333Y-62846342D02*
X33064571Y-62846342D01*
X34283618Y-63227295D02*
X33826475Y-63227295D01*
X34055047Y-63227295D02*
X34055047Y-62427295D01*
X34055047Y-62427295D02*
X33978856Y-62541580D01*
X33978856Y-62541580D02*
X33902666Y-62617771D01*
X33902666Y-62617771D02*
X33826475Y-62655866D01*
X35007428Y-62427295D02*
X34626476Y-62427295D01*
X34626476Y-62427295D02*
X34588380Y-62808247D01*
X34588380Y-62808247D02*
X34626476Y-62770152D01*
X34626476Y-62770152D02*
X34702666Y-62732057D01*
X34702666Y-62732057D02*
X34893142Y-62732057D01*
X34893142Y-62732057D02*
X34969333Y-62770152D01*
X34969333Y-62770152D02*
X35007428Y-62808247D01*
X35007428Y-62808247D02*
X35045523Y-62884438D01*
X35045523Y-62884438D02*
X35045523Y-63074914D01*
X35045523Y-63074914D02*
X35007428Y-63151104D01*
X35007428Y-63151104D02*
X34969333Y-63189200D01*
X34969333Y-63189200D02*
X34893142Y-63227295D01*
X34893142Y-63227295D02*
X34702666Y-63227295D01*
X34702666Y-63227295D02*
X34626476Y-63189200D01*
X34626476Y-63189200D02*
X34588380Y-63151104D01*
X46298295Y-34112523D02*
X46945914Y-34112523D01*
X46945914Y-34112523D02*
X47022104Y-34074428D01*
X47022104Y-34074428D02*
X47060200Y-34036333D01*
X47060200Y-34036333D02*
X47098295Y-33960142D01*
X47098295Y-33960142D02*
X47098295Y-33807761D01*
X47098295Y-33807761D02*
X47060200Y-33731571D01*
X47060200Y-33731571D02*
X47022104Y-33693476D01*
X47022104Y-33693476D02*
X46945914Y-33655380D01*
X46945914Y-33655380D02*
X46298295Y-33655380D01*
X46298295Y-33350619D02*
X46298295Y-32817285D01*
X46298295Y-32817285D02*
X47098295Y-33160143D01*
X45905009Y-37917333D02*
X45905009Y-38250666D01*
X46428819Y-38250666D02*
X45428819Y-38250666D01*
X45428819Y-38250666D02*
X45428819Y-37774476D01*
X45905009Y-37060190D02*
X45952628Y-36917333D01*
X45952628Y-36917333D02*
X46000247Y-36869714D01*
X46000247Y-36869714D02*
X46095485Y-36822095D01*
X46095485Y-36822095D02*
X46238342Y-36822095D01*
X46238342Y-36822095D02*
X46333580Y-36869714D01*
X46333580Y-36869714D02*
X46381200Y-36917333D01*
X46381200Y-36917333D02*
X46428819Y-37012571D01*
X46428819Y-37012571D02*
X46428819Y-37393523D01*
X46428819Y-37393523D02*
X45428819Y-37393523D01*
X45428819Y-37393523D02*
X45428819Y-37060190D01*
X45428819Y-37060190D02*
X45476438Y-36964952D01*
X45476438Y-36964952D02*
X45524057Y-36917333D01*
X45524057Y-36917333D02*
X45619295Y-36869714D01*
X45619295Y-36869714D02*
X45714533Y-36869714D01*
X45714533Y-36869714D02*
X45809771Y-36917333D01*
X45809771Y-36917333D02*
X45857390Y-36964952D01*
X45857390Y-36964952D02*
X45905009Y-37060190D01*
X45905009Y-37060190D02*
X45905009Y-37393523D01*
X46428819Y-35869714D02*
X46428819Y-36441142D01*
X46428819Y-36155428D02*
X45428819Y-36155428D01*
X45428819Y-36155428D02*
X45571676Y-36250666D01*
X45571676Y-36250666D02*
X45666914Y-36345904D01*
X45666914Y-36345904D02*
X45714533Y-36441142D01*
X60884333Y-29664819D02*
X60551000Y-29188628D01*
X60312905Y-29664819D02*
X60312905Y-28664819D01*
X60312905Y-28664819D02*
X60693857Y-28664819D01*
X60693857Y-28664819D02*
X60789095Y-28712438D01*
X60789095Y-28712438D02*
X60836714Y-28760057D01*
X60836714Y-28760057D02*
X60884333Y-28855295D01*
X60884333Y-28855295D02*
X60884333Y-28998152D01*
X60884333Y-28998152D02*
X60836714Y-29093390D01*
X60836714Y-29093390D02*
X60789095Y-29141009D01*
X60789095Y-29141009D02*
X60693857Y-29188628D01*
X60693857Y-29188628D02*
X60312905Y-29188628D01*
X61217667Y-28664819D02*
X61884333Y-28664819D01*
X61884333Y-28664819D02*
X61455762Y-29664819D01*
X48086104Y-50171285D02*
X48124200Y-50209381D01*
X48124200Y-50209381D02*
X48162295Y-50323666D01*
X48162295Y-50323666D02*
X48162295Y-50399857D01*
X48162295Y-50399857D02*
X48124200Y-50514143D01*
X48124200Y-50514143D02*
X48048009Y-50590333D01*
X48048009Y-50590333D02*
X47971819Y-50628428D01*
X47971819Y-50628428D02*
X47819438Y-50666524D01*
X47819438Y-50666524D02*
X47705152Y-50666524D01*
X47705152Y-50666524D02*
X47552771Y-50628428D01*
X47552771Y-50628428D02*
X47476580Y-50590333D01*
X47476580Y-50590333D02*
X47400390Y-50514143D01*
X47400390Y-50514143D02*
X47362295Y-50399857D01*
X47362295Y-50399857D02*
X47362295Y-50323666D01*
X47362295Y-50323666D02*
X47400390Y-50209381D01*
X47400390Y-50209381D02*
X47438485Y-50171285D01*
X48162295Y-49409381D02*
X48162295Y-49866524D01*
X48162295Y-49637952D02*
X47362295Y-49637952D01*
X47362295Y-49637952D02*
X47476580Y-49714143D01*
X47476580Y-49714143D02*
X47552771Y-49790333D01*
X47552771Y-49790333D02*
X47590866Y-49866524D01*
X47362295Y-48723666D02*
X47362295Y-48876047D01*
X47362295Y-48876047D02*
X47400390Y-48952238D01*
X47400390Y-48952238D02*
X47438485Y-48990333D01*
X47438485Y-48990333D02*
X47552771Y-49066523D01*
X47552771Y-49066523D02*
X47705152Y-49104619D01*
X47705152Y-49104619D02*
X48009914Y-49104619D01*
X48009914Y-49104619D02*
X48086104Y-49066523D01*
X48086104Y-49066523D02*
X48124200Y-49028428D01*
X48124200Y-49028428D02*
X48162295Y-48952238D01*
X48162295Y-48952238D02*
X48162295Y-48799857D01*
X48162295Y-48799857D02*
X48124200Y-48723666D01*
X48124200Y-48723666D02*
X48086104Y-48685571D01*
X48086104Y-48685571D02*
X48009914Y-48647476D01*
X48009914Y-48647476D02*
X47819438Y-48647476D01*
X47819438Y-48647476D02*
X47743247Y-48685571D01*
X47743247Y-48685571D02*
X47705152Y-48723666D01*
X47705152Y-48723666D02*
X47667057Y-48799857D01*
X47667057Y-48799857D02*
X47667057Y-48952238D01*
X47667057Y-48952238D02*
X47705152Y-49028428D01*
X47705152Y-49028428D02*
X47743247Y-49066523D01*
X47743247Y-49066523D02*
X47819438Y-49104619D01*
X50618580Y-42171857D02*
X50666200Y-42219476D01*
X50666200Y-42219476D02*
X50713819Y-42362333D01*
X50713819Y-42362333D02*
X50713819Y-42457571D01*
X50713819Y-42457571D02*
X50666200Y-42600428D01*
X50666200Y-42600428D02*
X50570961Y-42695666D01*
X50570961Y-42695666D02*
X50475723Y-42743285D01*
X50475723Y-42743285D02*
X50285247Y-42790904D01*
X50285247Y-42790904D02*
X50142390Y-42790904D01*
X50142390Y-42790904D02*
X49951914Y-42743285D01*
X49951914Y-42743285D02*
X49856676Y-42695666D01*
X49856676Y-42695666D02*
X49761438Y-42600428D01*
X49761438Y-42600428D02*
X49713819Y-42457571D01*
X49713819Y-42457571D02*
X49713819Y-42362333D01*
X49713819Y-42362333D02*
X49761438Y-42219476D01*
X49761438Y-42219476D02*
X49809057Y-42171857D01*
X50713819Y-41219476D02*
X50713819Y-41790904D01*
X50713819Y-41505190D02*
X49713819Y-41505190D01*
X49713819Y-41505190D02*
X49856676Y-41600428D01*
X49856676Y-41600428D02*
X49951914Y-41695666D01*
X49951914Y-41695666D02*
X49999533Y-41790904D01*
X49809057Y-40838523D02*
X49761438Y-40790904D01*
X49761438Y-40790904D02*
X49713819Y-40695666D01*
X49713819Y-40695666D02*
X49713819Y-40457571D01*
X49713819Y-40457571D02*
X49761438Y-40362333D01*
X49761438Y-40362333D02*
X49809057Y-40314714D01*
X49809057Y-40314714D02*
X49904295Y-40267095D01*
X49904295Y-40267095D02*
X49999533Y-40267095D01*
X49999533Y-40267095D02*
X50142390Y-40314714D01*
X50142390Y-40314714D02*
X50713819Y-40886142D01*
X50713819Y-40886142D02*
X50713819Y-40267095D01*
X30404819Y-32261904D02*
X31214342Y-32261904D01*
X31214342Y-32261904D02*
X31309580Y-32214285D01*
X31309580Y-32214285D02*
X31357200Y-32166666D01*
X31357200Y-32166666D02*
X31404819Y-32071428D01*
X31404819Y-32071428D02*
X31404819Y-31880952D01*
X31404819Y-31880952D02*
X31357200Y-31785714D01*
X31357200Y-31785714D02*
X31309580Y-31738095D01*
X31309580Y-31738095D02*
X31214342Y-31690476D01*
X31214342Y-31690476D02*
X30404819Y-31690476D01*
X30833390Y-31071428D02*
X30785771Y-31166666D01*
X30785771Y-31166666D02*
X30738152Y-31214285D01*
X30738152Y-31214285D02*
X30642914Y-31261904D01*
X30642914Y-31261904D02*
X30595295Y-31261904D01*
X30595295Y-31261904D02*
X30500057Y-31214285D01*
X30500057Y-31214285D02*
X30452438Y-31166666D01*
X30452438Y-31166666D02*
X30404819Y-31071428D01*
X30404819Y-31071428D02*
X30404819Y-30880952D01*
X30404819Y-30880952D02*
X30452438Y-30785714D01*
X30452438Y-30785714D02*
X30500057Y-30738095D01*
X30500057Y-30738095D02*
X30595295Y-30690476D01*
X30595295Y-30690476D02*
X30642914Y-30690476D01*
X30642914Y-30690476D02*
X30738152Y-30738095D01*
X30738152Y-30738095D02*
X30785771Y-30785714D01*
X30785771Y-30785714D02*
X30833390Y-30880952D01*
X30833390Y-30880952D02*
X30833390Y-31071428D01*
X30833390Y-31071428D02*
X30881009Y-31166666D01*
X30881009Y-31166666D02*
X30928628Y-31214285D01*
X30928628Y-31214285D02*
X31023866Y-31261904D01*
X31023866Y-31261904D02*
X31214342Y-31261904D01*
X31214342Y-31261904D02*
X31309580Y-31214285D01*
X31309580Y-31214285D02*
X31357200Y-31166666D01*
X31357200Y-31166666D02*
X31404819Y-31071428D01*
X31404819Y-31071428D02*
X31404819Y-30880952D01*
X31404819Y-30880952D02*
X31357200Y-30785714D01*
X31357200Y-30785714D02*
X31309580Y-30738095D01*
X31309580Y-30738095D02*
X31214342Y-30690476D01*
X31214342Y-30690476D02*
X31023866Y-30690476D01*
X31023866Y-30690476D02*
X30928628Y-30738095D01*
X30928628Y-30738095D02*
X30881009Y-30785714D01*
X30881009Y-30785714D02*
X30833390Y-30880952D01*
X48238580Y-38996857D02*
X48286200Y-39044476D01*
X48286200Y-39044476D02*
X48333819Y-39187333D01*
X48333819Y-39187333D02*
X48333819Y-39282571D01*
X48333819Y-39282571D02*
X48286200Y-39425428D01*
X48286200Y-39425428D02*
X48190961Y-39520666D01*
X48190961Y-39520666D02*
X48095723Y-39568285D01*
X48095723Y-39568285D02*
X47905247Y-39615904D01*
X47905247Y-39615904D02*
X47762390Y-39615904D01*
X47762390Y-39615904D02*
X47571914Y-39568285D01*
X47571914Y-39568285D02*
X47476676Y-39520666D01*
X47476676Y-39520666D02*
X47381438Y-39425428D01*
X47381438Y-39425428D02*
X47333819Y-39282571D01*
X47333819Y-39282571D02*
X47333819Y-39187333D01*
X47333819Y-39187333D02*
X47381438Y-39044476D01*
X47381438Y-39044476D02*
X47429057Y-38996857D01*
X47429057Y-38615904D02*
X47381438Y-38568285D01*
X47381438Y-38568285D02*
X47333819Y-38473047D01*
X47333819Y-38473047D02*
X47333819Y-38234952D01*
X47333819Y-38234952D02*
X47381438Y-38139714D01*
X47381438Y-38139714D02*
X47429057Y-38092095D01*
X47429057Y-38092095D02*
X47524295Y-38044476D01*
X47524295Y-38044476D02*
X47619533Y-38044476D01*
X47619533Y-38044476D02*
X47762390Y-38092095D01*
X47762390Y-38092095D02*
X48333819Y-38663523D01*
X48333819Y-38663523D02*
X48333819Y-38044476D01*
X47333819Y-37425428D02*
X47333819Y-37330190D01*
X47333819Y-37330190D02*
X47381438Y-37234952D01*
X47381438Y-37234952D02*
X47429057Y-37187333D01*
X47429057Y-37187333D02*
X47524295Y-37139714D01*
X47524295Y-37139714D02*
X47714771Y-37092095D01*
X47714771Y-37092095D02*
X47952866Y-37092095D01*
X47952866Y-37092095D02*
X48143342Y-37139714D01*
X48143342Y-37139714D02*
X48238580Y-37187333D01*
X48238580Y-37187333D02*
X48286200Y-37234952D01*
X48286200Y-37234952D02*
X48333819Y-37330190D01*
X48333819Y-37330190D02*
X48333819Y-37425428D01*
X48333819Y-37425428D02*
X48286200Y-37520666D01*
X48286200Y-37520666D02*
X48238580Y-37568285D01*
X48238580Y-37568285D02*
X48143342Y-37615904D01*
X48143342Y-37615904D02*
X47952866Y-37663523D01*
X47952866Y-37663523D02*
X47714771Y-37663523D01*
X47714771Y-37663523D02*
X47524295Y-37615904D01*
X47524295Y-37615904D02*
X47429057Y-37568285D01*
X47429057Y-37568285D02*
X47381438Y-37520666D01*
X47381438Y-37520666D02*
X47333819Y-37425428D01*
X25614333Y-40618580D02*
X25566714Y-40666200D01*
X25566714Y-40666200D02*
X25423857Y-40713819D01*
X25423857Y-40713819D02*
X25328619Y-40713819D01*
X25328619Y-40713819D02*
X25185762Y-40666200D01*
X25185762Y-40666200D02*
X25090524Y-40570961D01*
X25090524Y-40570961D02*
X25042905Y-40475723D01*
X25042905Y-40475723D02*
X24995286Y-40285247D01*
X24995286Y-40285247D02*
X24995286Y-40142390D01*
X24995286Y-40142390D02*
X25042905Y-39951914D01*
X25042905Y-39951914D02*
X25090524Y-39856676D01*
X25090524Y-39856676D02*
X25185762Y-39761438D01*
X25185762Y-39761438D02*
X25328619Y-39713819D01*
X25328619Y-39713819D02*
X25423857Y-39713819D01*
X25423857Y-39713819D02*
X25566714Y-39761438D01*
X25566714Y-39761438D02*
X25614333Y-39809057D01*
X25947667Y-39713819D02*
X26614333Y-39713819D01*
X26614333Y-39713819D02*
X26185762Y-40713819D01*
X29935714Y-24086104D02*
X29897618Y-24124200D01*
X29897618Y-24124200D02*
X29783333Y-24162295D01*
X29783333Y-24162295D02*
X29707142Y-24162295D01*
X29707142Y-24162295D02*
X29592856Y-24124200D01*
X29592856Y-24124200D02*
X29516666Y-24048009D01*
X29516666Y-24048009D02*
X29478571Y-23971819D01*
X29478571Y-23971819D02*
X29440475Y-23819438D01*
X29440475Y-23819438D02*
X29440475Y-23705152D01*
X29440475Y-23705152D02*
X29478571Y-23552771D01*
X29478571Y-23552771D02*
X29516666Y-23476580D01*
X29516666Y-23476580D02*
X29592856Y-23400390D01*
X29592856Y-23400390D02*
X29707142Y-23362295D01*
X29707142Y-23362295D02*
X29783333Y-23362295D01*
X29783333Y-23362295D02*
X29897618Y-23400390D01*
X29897618Y-23400390D02*
X29935714Y-23438485D01*
X30697618Y-24162295D02*
X30240475Y-24162295D01*
X30469047Y-24162295D02*
X30469047Y-23362295D01*
X30469047Y-23362295D02*
X30392856Y-23476580D01*
X30392856Y-23476580D02*
X30316666Y-23552771D01*
X30316666Y-23552771D02*
X30240475Y-23590866D01*
X31421428Y-23362295D02*
X31040476Y-23362295D01*
X31040476Y-23362295D02*
X31002380Y-23743247D01*
X31002380Y-23743247D02*
X31040476Y-23705152D01*
X31040476Y-23705152D02*
X31116666Y-23667057D01*
X31116666Y-23667057D02*
X31307142Y-23667057D01*
X31307142Y-23667057D02*
X31383333Y-23705152D01*
X31383333Y-23705152D02*
X31421428Y-23743247D01*
X31421428Y-23743247D02*
X31459523Y-23819438D01*
X31459523Y-23819438D02*
X31459523Y-24009914D01*
X31459523Y-24009914D02*
X31421428Y-24086104D01*
X31421428Y-24086104D02*
X31383333Y-24124200D01*
X31383333Y-24124200D02*
X31307142Y-24162295D01*
X31307142Y-24162295D02*
X31116666Y-24162295D01*
X31116666Y-24162295D02*
X31040476Y-24124200D01*
X31040476Y-24124200D02*
X31002380Y-24086104D01*
X39903476Y-49600295D02*
X39903476Y-50247914D01*
X39903476Y-50247914D02*
X39941571Y-50324104D01*
X39941571Y-50324104D02*
X39979666Y-50362200D01*
X39979666Y-50362200D02*
X40055857Y-50400295D01*
X40055857Y-50400295D02*
X40208238Y-50400295D01*
X40208238Y-50400295D02*
X40284428Y-50362200D01*
X40284428Y-50362200D02*
X40322523Y-50324104D01*
X40322523Y-50324104D02*
X40360619Y-50247914D01*
X40360619Y-50247914D02*
X40360619Y-49600295D01*
X40779666Y-50400295D02*
X40932047Y-50400295D01*
X40932047Y-50400295D02*
X41008237Y-50362200D01*
X41008237Y-50362200D02*
X41046333Y-50324104D01*
X41046333Y-50324104D02*
X41122523Y-50209819D01*
X41122523Y-50209819D02*
X41160618Y-50057438D01*
X41160618Y-50057438D02*
X41160618Y-49752676D01*
X41160618Y-49752676D02*
X41122523Y-49676485D01*
X41122523Y-49676485D02*
X41084428Y-49638390D01*
X41084428Y-49638390D02*
X41008237Y-49600295D01*
X41008237Y-49600295D02*
X40855856Y-49600295D01*
X40855856Y-49600295D02*
X40779666Y-49638390D01*
X40779666Y-49638390D02*
X40741571Y-49676485D01*
X40741571Y-49676485D02*
X40703475Y-49752676D01*
X40703475Y-49752676D02*
X40703475Y-49943152D01*
X40703475Y-49943152D02*
X40741571Y-50019342D01*
X40741571Y-50019342D02*
X40779666Y-50057438D01*
X40779666Y-50057438D02*
X40855856Y-50095533D01*
X40855856Y-50095533D02*
X41008237Y-50095533D01*
X41008237Y-50095533D02*
X41084428Y-50057438D01*
X41084428Y-50057438D02*
X41122523Y-50019342D01*
X41122523Y-50019342D02*
X41160618Y-49943152D01*
X36662295Y-34709523D02*
X37309914Y-34709523D01*
X37309914Y-34709523D02*
X37386104Y-34671428D01*
X37386104Y-34671428D02*
X37424200Y-34633333D01*
X37424200Y-34633333D02*
X37462295Y-34557142D01*
X37462295Y-34557142D02*
X37462295Y-34404761D01*
X37462295Y-34404761D02*
X37424200Y-34328571D01*
X37424200Y-34328571D02*
X37386104Y-34290476D01*
X37386104Y-34290476D02*
X37309914Y-34252380D01*
X37309914Y-34252380D02*
X36662295Y-34252380D01*
X36662295Y-33490476D02*
X36662295Y-33871428D01*
X36662295Y-33871428D02*
X37043247Y-33909524D01*
X37043247Y-33909524D02*
X37005152Y-33871428D01*
X37005152Y-33871428D02*
X36967057Y-33795238D01*
X36967057Y-33795238D02*
X36967057Y-33604762D01*
X36967057Y-33604762D02*
X37005152Y-33528571D01*
X37005152Y-33528571D02*
X37043247Y-33490476D01*
X37043247Y-33490476D02*
X37119438Y-33452381D01*
X37119438Y-33452381D02*
X37309914Y-33452381D01*
X37309914Y-33452381D02*
X37386104Y-33490476D01*
X37386104Y-33490476D02*
X37424200Y-33528571D01*
X37424200Y-33528571D02*
X37462295Y-33604762D01*
X37462295Y-33604762D02*
X37462295Y-33795238D01*
X37462295Y-33795238D02*
X37424200Y-33871428D01*
X37424200Y-33871428D02*
X37386104Y-33909524D01*
X21074142Y-22330580D02*
X21026523Y-22378200D01*
X21026523Y-22378200D02*
X20883666Y-22425819D01*
X20883666Y-22425819D02*
X20788428Y-22425819D01*
X20788428Y-22425819D02*
X20645571Y-22378200D01*
X20645571Y-22378200D02*
X20550333Y-22282961D01*
X20550333Y-22282961D02*
X20502714Y-22187723D01*
X20502714Y-22187723D02*
X20455095Y-21997247D01*
X20455095Y-21997247D02*
X20455095Y-21854390D01*
X20455095Y-21854390D02*
X20502714Y-21663914D01*
X20502714Y-21663914D02*
X20550333Y-21568676D01*
X20550333Y-21568676D02*
X20645571Y-21473438D01*
X20645571Y-21473438D02*
X20788428Y-21425819D01*
X20788428Y-21425819D02*
X20883666Y-21425819D01*
X20883666Y-21425819D02*
X21026523Y-21473438D01*
X21026523Y-21473438D02*
X21074142Y-21521057D01*
X22026523Y-22425819D02*
X21455095Y-22425819D01*
X21740809Y-22425819D02*
X21740809Y-21425819D01*
X21740809Y-21425819D02*
X21645571Y-21568676D01*
X21645571Y-21568676D02*
X21550333Y-21663914D01*
X21550333Y-21663914D02*
X21455095Y-21711533D01*
X22359857Y-21425819D02*
X23026523Y-21425819D01*
X23026523Y-21425819D02*
X22597952Y-22425819D01*
X45759580Y-49664857D02*
X45807200Y-49712476D01*
X45807200Y-49712476D02*
X45854819Y-49855333D01*
X45854819Y-49855333D02*
X45854819Y-49950571D01*
X45854819Y-49950571D02*
X45807200Y-50093428D01*
X45807200Y-50093428D02*
X45711961Y-50188666D01*
X45711961Y-50188666D02*
X45616723Y-50236285D01*
X45616723Y-50236285D02*
X45426247Y-50283904D01*
X45426247Y-50283904D02*
X45283390Y-50283904D01*
X45283390Y-50283904D02*
X45092914Y-50236285D01*
X45092914Y-50236285D02*
X44997676Y-50188666D01*
X44997676Y-50188666D02*
X44902438Y-50093428D01*
X44902438Y-50093428D02*
X44854819Y-49950571D01*
X44854819Y-49950571D02*
X44854819Y-49855333D01*
X44854819Y-49855333D02*
X44902438Y-49712476D01*
X44902438Y-49712476D02*
X44950057Y-49664857D01*
X45854819Y-48712476D02*
X45854819Y-49283904D01*
X45854819Y-48998190D02*
X44854819Y-48998190D01*
X44854819Y-48998190D02*
X44997676Y-49093428D01*
X44997676Y-49093428D02*
X45092914Y-49188666D01*
X45092914Y-49188666D02*
X45140533Y-49283904D01*
X45854819Y-48236285D02*
X45854819Y-48045809D01*
X45854819Y-48045809D02*
X45807200Y-47950571D01*
X45807200Y-47950571D02*
X45759580Y-47902952D01*
X45759580Y-47902952D02*
X45616723Y-47807714D01*
X45616723Y-47807714D02*
X45426247Y-47760095D01*
X45426247Y-47760095D02*
X45045295Y-47760095D01*
X45045295Y-47760095D02*
X44950057Y-47807714D01*
X44950057Y-47807714D02*
X44902438Y-47855333D01*
X44902438Y-47855333D02*
X44854819Y-47950571D01*
X44854819Y-47950571D02*
X44854819Y-48141047D01*
X44854819Y-48141047D02*
X44902438Y-48236285D01*
X44902438Y-48236285D02*
X44950057Y-48283904D01*
X44950057Y-48283904D02*
X45045295Y-48331523D01*
X45045295Y-48331523D02*
X45283390Y-48331523D01*
X45283390Y-48331523D02*
X45378628Y-48283904D01*
X45378628Y-48283904D02*
X45426247Y-48236285D01*
X45426247Y-48236285D02*
X45473866Y-48141047D01*
X45473866Y-48141047D02*
X45473866Y-47950571D01*
X45473866Y-47950571D02*
X45426247Y-47855333D01*
X45426247Y-47855333D02*
X45378628Y-47807714D01*
X45378628Y-47807714D02*
X45283390Y-47760095D01*
X55955142Y-29664819D02*
X55621809Y-29188628D01*
X55383714Y-29664819D02*
X55383714Y-28664819D01*
X55383714Y-28664819D02*
X55764666Y-28664819D01*
X55764666Y-28664819D02*
X55859904Y-28712438D01*
X55859904Y-28712438D02*
X55907523Y-28760057D01*
X55907523Y-28760057D02*
X55955142Y-28855295D01*
X55955142Y-28855295D02*
X55955142Y-28998152D01*
X55955142Y-28998152D02*
X55907523Y-29093390D01*
X55907523Y-29093390D02*
X55859904Y-29141009D01*
X55859904Y-29141009D02*
X55764666Y-29188628D01*
X55764666Y-29188628D02*
X55383714Y-29188628D01*
X56907523Y-29664819D02*
X56336095Y-29664819D01*
X56621809Y-29664819D02*
X56621809Y-28664819D01*
X56621809Y-28664819D02*
X56526571Y-28807676D01*
X56526571Y-28807676D02*
X56431333Y-28902914D01*
X56431333Y-28902914D02*
X56336095Y-28950533D01*
X57859904Y-29664819D02*
X57288476Y-29664819D01*
X57574190Y-29664819D02*
X57574190Y-28664819D01*
X57574190Y-28664819D02*
X57478952Y-28807676D01*
X57478952Y-28807676D02*
X57383714Y-28902914D01*
X57383714Y-28902914D02*
X57288476Y-28950533D01*
X32758142Y-35128580D02*
X32710523Y-35176200D01*
X32710523Y-35176200D02*
X32567666Y-35223819D01*
X32567666Y-35223819D02*
X32472428Y-35223819D01*
X32472428Y-35223819D02*
X32329571Y-35176200D01*
X32329571Y-35176200D02*
X32234333Y-35080961D01*
X32234333Y-35080961D02*
X32186714Y-34985723D01*
X32186714Y-34985723D02*
X32139095Y-34795247D01*
X32139095Y-34795247D02*
X32139095Y-34652390D01*
X32139095Y-34652390D02*
X32186714Y-34461914D01*
X32186714Y-34461914D02*
X32234333Y-34366676D01*
X32234333Y-34366676D02*
X32329571Y-34271438D01*
X32329571Y-34271438D02*
X32472428Y-34223819D01*
X32472428Y-34223819D02*
X32567666Y-34223819D01*
X32567666Y-34223819D02*
X32710523Y-34271438D01*
X32710523Y-34271438D02*
X32758142Y-34319057D01*
X33710523Y-35223819D02*
X33139095Y-35223819D01*
X33424809Y-35223819D02*
X33424809Y-34223819D01*
X33424809Y-34223819D02*
X33329571Y-34366676D01*
X33329571Y-34366676D02*
X33234333Y-34461914D01*
X33234333Y-34461914D02*
X33139095Y-34509533D01*
X34043857Y-34223819D02*
X34662904Y-34223819D01*
X34662904Y-34223819D02*
X34329571Y-34604771D01*
X34329571Y-34604771D02*
X34472428Y-34604771D01*
X34472428Y-34604771D02*
X34567666Y-34652390D01*
X34567666Y-34652390D02*
X34615285Y-34700009D01*
X34615285Y-34700009D02*
X34662904Y-34795247D01*
X34662904Y-34795247D02*
X34662904Y-35033342D01*
X34662904Y-35033342D02*
X34615285Y-35128580D01*
X34615285Y-35128580D02*
X34567666Y-35176200D01*
X34567666Y-35176200D02*
X34472428Y-35223819D01*
X34472428Y-35223819D02*
X34186714Y-35223819D01*
X34186714Y-35223819D02*
X34091476Y-35176200D01*
X34091476Y-35176200D02*
X34043857Y-35128580D01*
X42033333Y-40459580D02*
X41985714Y-40507200D01*
X41985714Y-40507200D02*
X41842857Y-40554819D01*
X41842857Y-40554819D02*
X41747619Y-40554819D01*
X41747619Y-40554819D02*
X41604762Y-40507200D01*
X41604762Y-40507200D02*
X41509524Y-40411961D01*
X41509524Y-40411961D02*
X41461905Y-40316723D01*
X41461905Y-40316723D02*
X41414286Y-40126247D01*
X41414286Y-40126247D02*
X41414286Y-39983390D01*
X41414286Y-39983390D02*
X41461905Y-39792914D01*
X41461905Y-39792914D02*
X41509524Y-39697676D01*
X41509524Y-39697676D02*
X41604762Y-39602438D01*
X41604762Y-39602438D02*
X41747619Y-39554819D01*
X41747619Y-39554819D02*
X41842857Y-39554819D01*
X41842857Y-39554819D02*
X41985714Y-39602438D01*
X41985714Y-39602438D02*
X42033333Y-39650057D01*
X42938095Y-39554819D02*
X42461905Y-39554819D01*
X42461905Y-39554819D02*
X42414286Y-40031009D01*
X42414286Y-40031009D02*
X42461905Y-39983390D01*
X42461905Y-39983390D02*
X42557143Y-39935771D01*
X42557143Y-39935771D02*
X42795238Y-39935771D01*
X42795238Y-39935771D02*
X42890476Y-39983390D01*
X42890476Y-39983390D02*
X42938095Y-40031009D01*
X42938095Y-40031009D02*
X42985714Y-40126247D01*
X42985714Y-40126247D02*
X42985714Y-40364342D01*
X42985714Y-40364342D02*
X42938095Y-40459580D01*
X42938095Y-40459580D02*
X42890476Y-40507200D01*
X42890476Y-40507200D02*
X42795238Y-40554819D01*
X42795238Y-40554819D02*
X42557143Y-40554819D01*
X42557143Y-40554819D02*
X42461905Y-40507200D01*
X42461905Y-40507200D02*
X42414286Y-40459580D01*
X44824714Y-56242295D02*
X44558047Y-55861342D01*
X44367571Y-56242295D02*
X44367571Y-55442295D01*
X44367571Y-55442295D02*
X44672333Y-55442295D01*
X44672333Y-55442295D02*
X44748523Y-55480390D01*
X44748523Y-55480390D02*
X44786618Y-55518485D01*
X44786618Y-55518485D02*
X44824714Y-55594676D01*
X44824714Y-55594676D02*
X44824714Y-55708961D01*
X44824714Y-55708961D02*
X44786618Y-55785152D01*
X44786618Y-55785152D02*
X44748523Y-55823247D01*
X44748523Y-55823247D02*
X44672333Y-55861342D01*
X44672333Y-55861342D02*
X44367571Y-55861342D01*
X45586618Y-56242295D02*
X45129475Y-56242295D01*
X45358047Y-56242295D02*
X45358047Y-55442295D01*
X45358047Y-55442295D02*
X45281856Y-55556580D01*
X45281856Y-55556580D02*
X45205666Y-55632771D01*
X45205666Y-55632771D02*
X45129475Y-55670866D01*
X45891380Y-55518485D02*
X45929476Y-55480390D01*
X45929476Y-55480390D02*
X46005666Y-55442295D01*
X46005666Y-55442295D02*
X46196142Y-55442295D01*
X46196142Y-55442295D02*
X46272333Y-55480390D01*
X46272333Y-55480390D02*
X46310428Y-55518485D01*
X46310428Y-55518485D02*
X46348523Y-55594676D01*
X46348523Y-55594676D02*
X46348523Y-55670866D01*
X46348523Y-55670866D02*
X46310428Y-55785152D01*
X46310428Y-55785152D02*
X45853285Y-56242295D01*
X45853285Y-56242295D02*
X46348523Y-56242295D01*
X47466667Y-47786104D02*
X47428571Y-47824200D01*
X47428571Y-47824200D02*
X47314286Y-47862295D01*
X47314286Y-47862295D02*
X47238095Y-47862295D01*
X47238095Y-47862295D02*
X47123809Y-47824200D01*
X47123809Y-47824200D02*
X47047619Y-47748009D01*
X47047619Y-47748009D02*
X47009524Y-47671819D01*
X47009524Y-47671819D02*
X46971428Y-47519438D01*
X46971428Y-47519438D02*
X46971428Y-47405152D01*
X46971428Y-47405152D02*
X47009524Y-47252771D01*
X47009524Y-47252771D02*
X47047619Y-47176580D01*
X47047619Y-47176580D02*
X47123809Y-47100390D01*
X47123809Y-47100390D02*
X47238095Y-47062295D01*
X47238095Y-47062295D02*
X47314286Y-47062295D01*
X47314286Y-47062295D02*
X47428571Y-47100390D01*
X47428571Y-47100390D02*
X47466667Y-47138485D01*
X48228571Y-47862295D02*
X47771428Y-47862295D01*
X48000000Y-47862295D02*
X48000000Y-47062295D01*
X48000000Y-47062295D02*
X47923809Y-47176580D01*
X47923809Y-47176580D02*
X47847619Y-47252771D01*
X47847619Y-47252771D02*
X47771428Y-47290866D01*
D10*
X50196876Y-55978295D02*
X50654019Y-55978295D01*
X50425447Y-56778295D02*
X50425447Y-55978295D01*
X50920686Y-56778295D02*
X50920686Y-55978295D01*
X50920686Y-55978295D02*
X51225448Y-55978295D01*
X51225448Y-55978295D02*
X51301638Y-56016390D01*
X51301638Y-56016390D02*
X51339733Y-56054485D01*
X51339733Y-56054485D02*
X51377829Y-56130676D01*
X51377829Y-56130676D02*
X51377829Y-56244961D01*
X51377829Y-56244961D02*
X51339733Y-56321152D01*
X51339733Y-56321152D02*
X51301638Y-56359247D01*
X51301638Y-56359247D02*
X51225448Y-56397342D01*
X51225448Y-56397342D02*
X50920686Y-56397342D01*
X52139733Y-56778295D02*
X51682590Y-56778295D01*
X51911162Y-56778295D02*
X51911162Y-55978295D01*
X51911162Y-55978295D02*
X51834971Y-56092580D01*
X51834971Y-56092580D02*
X51758781Y-56168771D01*
X51758781Y-56168771D02*
X51682590Y-56206866D01*
D11*
X41170333Y-29664819D02*
X40837000Y-29188628D01*
X40598905Y-29664819D02*
X40598905Y-28664819D01*
X40598905Y-28664819D02*
X40979857Y-28664819D01*
X40979857Y-28664819D02*
X41075095Y-28712438D01*
X41075095Y-28712438D02*
X41122714Y-28760057D01*
X41122714Y-28760057D02*
X41170333Y-28855295D01*
X41170333Y-28855295D02*
X41170333Y-28998152D01*
X41170333Y-28998152D02*
X41122714Y-29093390D01*
X41122714Y-29093390D02*
X41075095Y-29141009D01*
X41075095Y-29141009D02*
X40979857Y-29188628D01*
X40979857Y-29188628D02*
X40598905Y-29188628D01*
X41646524Y-29664819D02*
X41837000Y-29664819D01*
X41837000Y-29664819D02*
X41932238Y-29617200D01*
X41932238Y-29617200D02*
X41979857Y-29569580D01*
X41979857Y-29569580D02*
X42075095Y-29426723D01*
X42075095Y-29426723D02*
X42122714Y-29236247D01*
X42122714Y-29236247D02*
X42122714Y-28855295D01*
X42122714Y-28855295D02*
X42075095Y-28760057D01*
X42075095Y-28760057D02*
X42027476Y-28712438D01*
X42027476Y-28712438D02*
X41932238Y-28664819D01*
X41932238Y-28664819D02*
X41741762Y-28664819D01*
X41741762Y-28664819D02*
X41646524Y-28712438D01*
X41646524Y-28712438D02*
X41598905Y-28760057D01*
X41598905Y-28760057D02*
X41551286Y-28855295D01*
X41551286Y-28855295D02*
X41551286Y-29093390D01*
X41551286Y-29093390D02*
X41598905Y-29188628D01*
X41598905Y-29188628D02*
X41646524Y-29236247D01*
X41646524Y-29236247D02*
X41741762Y-29283866D01*
X41741762Y-29283866D02*
X41932238Y-29283866D01*
X41932238Y-29283866D02*
X42027476Y-29236247D01*
X42027476Y-29236247D02*
X42075095Y-29188628D01*
X42075095Y-29188628D02*
X42122714Y-29093390D01*
X57880067Y-60814295D02*
X57613400Y-60433342D01*
X57422924Y-60814295D02*
X57422924Y-60014295D01*
X57422924Y-60014295D02*
X57727686Y-60014295D01*
X57727686Y-60014295D02*
X57803876Y-60052390D01*
X57803876Y-60052390D02*
X57841971Y-60090485D01*
X57841971Y-60090485D02*
X57880067Y-60166676D01*
X57880067Y-60166676D02*
X57880067Y-60280961D01*
X57880067Y-60280961D02*
X57841971Y-60357152D01*
X57841971Y-60357152D02*
X57803876Y-60395247D01*
X57803876Y-60395247D02*
X57727686Y-60433342D01*
X57727686Y-60433342D02*
X57422924Y-60433342D01*
X58641971Y-60814295D02*
X58184828Y-60814295D01*
X58413400Y-60814295D02*
X58413400Y-60014295D01*
X58413400Y-60014295D02*
X58337209Y-60128580D01*
X58337209Y-60128580D02*
X58261019Y-60204771D01*
X58261019Y-60204771D02*
X58184828Y-60242866D01*
X57854667Y-59163295D02*
X57588000Y-58782342D01*
X57397524Y-59163295D02*
X57397524Y-58363295D01*
X57397524Y-58363295D02*
X57702286Y-58363295D01*
X57702286Y-58363295D02*
X57778476Y-58401390D01*
X57778476Y-58401390D02*
X57816571Y-58439485D01*
X57816571Y-58439485D02*
X57854667Y-58515676D01*
X57854667Y-58515676D02*
X57854667Y-58629961D01*
X57854667Y-58629961D02*
X57816571Y-58706152D01*
X57816571Y-58706152D02*
X57778476Y-58744247D01*
X57778476Y-58744247D02*
X57702286Y-58782342D01*
X57702286Y-58782342D02*
X57397524Y-58782342D01*
X58159428Y-58439485D02*
X58197524Y-58401390D01*
X58197524Y-58401390D02*
X58273714Y-58363295D01*
X58273714Y-58363295D02*
X58464190Y-58363295D01*
X58464190Y-58363295D02*
X58540381Y-58401390D01*
X58540381Y-58401390D02*
X58578476Y-58439485D01*
X58578476Y-58439485D02*
X58616571Y-58515676D01*
X58616571Y-58515676D02*
X58616571Y-58591866D01*
X58616571Y-58591866D02*
X58578476Y-58706152D01*
X58578476Y-58706152D02*
X58121333Y-59163295D01*
X58121333Y-59163295D02*
X58616571Y-59163295D01*
X42121714Y-38430104D02*
X42083618Y-38468200D01*
X42083618Y-38468200D02*
X41969333Y-38506295D01*
X41969333Y-38506295D02*
X41893142Y-38506295D01*
X41893142Y-38506295D02*
X41778856Y-38468200D01*
X41778856Y-38468200D02*
X41702666Y-38392009D01*
X41702666Y-38392009D02*
X41664571Y-38315819D01*
X41664571Y-38315819D02*
X41626475Y-38163438D01*
X41626475Y-38163438D02*
X41626475Y-38049152D01*
X41626475Y-38049152D02*
X41664571Y-37896771D01*
X41664571Y-37896771D02*
X41702666Y-37820580D01*
X41702666Y-37820580D02*
X41778856Y-37744390D01*
X41778856Y-37744390D02*
X41893142Y-37706295D01*
X41893142Y-37706295D02*
X41969333Y-37706295D01*
X41969333Y-37706295D02*
X42083618Y-37744390D01*
X42083618Y-37744390D02*
X42121714Y-37782485D01*
X42883618Y-38506295D02*
X42426475Y-38506295D01*
X42655047Y-38506295D02*
X42655047Y-37706295D01*
X42655047Y-37706295D02*
X42578856Y-37820580D01*
X42578856Y-37820580D02*
X42502666Y-37896771D01*
X42502666Y-37896771D02*
X42426475Y-37934866D01*
X43340761Y-38049152D02*
X43264571Y-38011057D01*
X43264571Y-38011057D02*
X43226476Y-37972961D01*
X43226476Y-37972961D02*
X43188380Y-37896771D01*
X43188380Y-37896771D02*
X43188380Y-37858676D01*
X43188380Y-37858676D02*
X43226476Y-37782485D01*
X43226476Y-37782485D02*
X43264571Y-37744390D01*
X43264571Y-37744390D02*
X43340761Y-37706295D01*
X43340761Y-37706295D02*
X43493142Y-37706295D01*
X43493142Y-37706295D02*
X43569333Y-37744390D01*
X43569333Y-37744390D02*
X43607428Y-37782485D01*
X43607428Y-37782485D02*
X43645523Y-37858676D01*
X43645523Y-37858676D02*
X43645523Y-37896771D01*
X43645523Y-37896771D02*
X43607428Y-37972961D01*
X43607428Y-37972961D02*
X43569333Y-38011057D01*
X43569333Y-38011057D02*
X43493142Y-38049152D01*
X43493142Y-38049152D02*
X43340761Y-38049152D01*
X43340761Y-38049152D02*
X43264571Y-38087247D01*
X43264571Y-38087247D02*
X43226476Y-38125342D01*
X43226476Y-38125342D02*
X43188380Y-38201533D01*
X43188380Y-38201533D02*
X43188380Y-38353914D01*
X43188380Y-38353914D02*
X43226476Y-38430104D01*
X43226476Y-38430104D02*
X43264571Y-38468200D01*
X43264571Y-38468200D02*
X43340761Y-38506295D01*
X43340761Y-38506295D02*
X43493142Y-38506295D01*
X43493142Y-38506295D02*
X43569333Y-38468200D01*
X43569333Y-38468200D02*
X43607428Y-38430104D01*
X43607428Y-38430104D02*
X43645523Y-38353914D01*
X43645523Y-38353914D02*
X43645523Y-38201533D01*
X43645523Y-38201533D02*
X43607428Y-38125342D01*
X43607428Y-38125342D02*
X43569333Y-38087247D01*
X43569333Y-38087247D02*
X43493142Y-38049152D01*
X38300819Y-38611666D02*
X37824628Y-38944999D01*
X38300819Y-39183094D02*
X37300819Y-39183094D01*
X37300819Y-39183094D02*
X37300819Y-38802142D01*
X37300819Y-38802142D02*
X37348438Y-38706904D01*
X37348438Y-38706904D02*
X37396057Y-38659285D01*
X37396057Y-38659285D02*
X37491295Y-38611666D01*
X37491295Y-38611666D02*
X37634152Y-38611666D01*
X37634152Y-38611666D02*
X37729390Y-38659285D01*
X37729390Y-38659285D02*
X37777009Y-38706904D01*
X37777009Y-38706904D02*
X37824628Y-38802142D01*
X37824628Y-38802142D02*
X37824628Y-39183094D01*
X37300819Y-37754523D02*
X37300819Y-37944999D01*
X37300819Y-37944999D02*
X37348438Y-38040237D01*
X37348438Y-38040237D02*
X37396057Y-38087856D01*
X37396057Y-38087856D02*
X37538914Y-38183094D01*
X37538914Y-38183094D02*
X37729390Y-38230713D01*
X37729390Y-38230713D02*
X38110342Y-38230713D01*
X38110342Y-38230713D02*
X38205580Y-38183094D01*
X38205580Y-38183094D02*
X38253200Y-38135475D01*
X38253200Y-38135475D02*
X38300819Y-38040237D01*
X38300819Y-38040237D02*
X38300819Y-37849761D01*
X38300819Y-37849761D02*
X38253200Y-37754523D01*
X38253200Y-37754523D02*
X38205580Y-37706904D01*
X38205580Y-37706904D02*
X38110342Y-37659285D01*
X38110342Y-37659285D02*
X37872247Y-37659285D01*
X37872247Y-37659285D02*
X37777009Y-37706904D01*
X37777009Y-37706904D02*
X37729390Y-37754523D01*
X37729390Y-37754523D02*
X37681771Y-37849761D01*
X37681771Y-37849761D02*
X37681771Y-38040237D01*
X37681771Y-38040237D02*
X37729390Y-38135475D01*
X37729390Y-38135475D02*
X37777009Y-38183094D01*
X37777009Y-38183094D02*
X37872247Y-38230713D01*
D10*
X59493276Y-61058295D02*
X59950419Y-61058295D01*
X59721847Y-61858295D02*
X59721847Y-61058295D01*
X60217086Y-61858295D02*
X60217086Y-61058295D01*
X60217086Y-61058295D02*
X60521848Y-61058295D01*
X60521848Y-61058295D02*
X60598038Y-61096390D01*
X60598038Y-61096390D02*
X60636133Y-61134485D01*
X60636133Y-61134485D02*
X60674229Y-61210676D01*
X60674229Y-61210676D02*
X60674229Y-61324961D01*
X60674229Y-61324961D02*
X60636133Y-61401152D01*
X60636133Y-61401152D02*
X60598038Y-61439247D01*
X60598038Y-61439247D02*
X60521848Y-61477342D01*
X60521848Y-61477342D02*
X60217086Y-61477342D01*
X61398038Y-61058295D02*
X61017086Y-61058295D01*
X61017086Y-61058295D02*
X60978990Y-61439247D01*
X60978990Y-61439247D02*
X61017086Y-61401152D01*
X61017086Y-61401152D02*
X61093276Y-61363057D01*
X61093276Y-61363057D02*
X61283752Y-61363057D01*
X61283752Y-61363057D02*
X61359943Y-61401152D01*
X61359943Y-61401152D02*
X61398038Y-61439247D01*
X61398038Y-61439247D02*
X61436133Y-61515438D01*
X61436133Y-61515438D02*
X61436133Y-61705914D01*
X61436133Y-61705914D02*
X61398038Y-61782104D01*
X61398038Y-61782104D02*
X61359943Y-61820200D01*
X61359943Y-61820200D02*
X61283752Y-61858295D01*
X61283752Y-61858295D02*
X61093276Y-61858295D01*
X61093276Y-61858295D02*
X61017086Y-61820200D01*
X61017086Y-61820200D02*
X60978990Y-61782104D01*
D11*
X41284295Y-34137523D02*
X41931914Y-34137523D01*
X41931914Y-34137523D02*
X42008104Y-34099428D01*
X42008104Y-34099428D02*
X42046200Y-34061333D01*
X42046200Y-34061333D02*
X42084295Y-33985142D01*
X42084295Y-33985142D02*
X42084295Y-33832761D01*
X42084295Y-33832761D02*
X42046200Y-33756571D01*
X42046200Y-33756571D02*
X42008104Y-33718476D01*
X42008104Y-33718476D02*
X41931914Y-33680380D01*
X41931914Y-33680380D02*
X41284295Y-33680380D01*
X41284295Y-32956571D02*
X41284295Y-33108952D01*
X41284295Y-33108952D02*
X41322390Y-33185143D01*
X41322390Y-33185143D02*
X41360485Y-33223238D01*
X41360485Y-33223238D02*
X41474771Y-33299428D01*
X41474771Y-33299428D02*
X41627152Y-33337524D01*
X41627152Y-33337524D02*
X41931914Y-33337524D01*
X41931914Y-33337524D02*
X42008104Y-33299428D01*
X42008104Y-33299428D02*
X42046200Y-33261333D01*
X42046200Y-33261333D02*
X42084295Y-33185143D01*
X42084295Y-33185143D02*
X42084295Y-33032762D01*
X42084295Y-33032762D02*
X42046200Y-32956571D01*
X42046200Y-32956571D02*
X42008104Y-32918476D01*
X42008104Y-32918476D02*
X41931914Y-32880381D01*
X41931914Y-32880381D02*
X41741438Y-32880381D01*
X41741438Y-32880381D02*
X41665247Y-32918476D01*
X41665247Y-32918476D02*
X41627152Y-32956571D01*
X41627152Y-32956571D02*
X41589057Y-33032762D01*
X41589057Y-33032762D02*
X41589057Y-33185143D01*
X41589057Y-33185143D02*
X41627152Y-33261333D01*
X41627152Y-33261333D02*
X41665247Y-33299428D01*
X41665247Y-33299428D02*
X41741438Y-33337524D01*
D10*
X56140476Y-61032895D02*
X56597619Y-61032895D01*
X56369047Y-61832895D02*
X56369047Y-61032895D01*
X56864286Y-61832895D02*
X56864286Y-61032895D01*
X56864286Y-61032895D02*
X57169048Y-61032895D01*
X57169048Y-61032895D02*
X57245238Y-61070990D01*
X57245238Y-61070990D02*
X57283333Y-61109085D01*
X57283333Y-61109085D02*
X57321429Y-61185276D01*
X57321429Y-61185276D02*
X57321429Y-61299561D01*
X57321429Y-61299561D02*
X57283333Y-61375752D01*
X57283333Y-61375752D02*
X57245238Y-61413847D01*
X57245238Y-61413847D02*
X57169048Y-61451942D01*
X57169048Y-61451942D02*
X56864286Y-61451942D01*
X58007143Y-61299561D02*
X58007143Y-61832895D01*
X57816667Y-60994800D02*
X57626190Y-61566228D01*
X57626190Y-61566228D02*
X58121429Y-61566228D01*
D11*
X41997333Y-43779580D02*
X41949714Y-43827200D01*
X41949714Y-43827200D02*
X41806857Y-43874819D01*
X41806857Y-43874819D02*
X41711619Y-43874819D01*
X41711619Y-43874819D02*
X41568762Y-43827200D01*
X41568762Y-43827200D02*
X41473524Y-43731961D01*
X41473524Y-43731961D02*
X41425905Y-43636723D01*
X41425905Y-43636723D02*
X41378286Y-43446247D01*
X41378286Y-43446247D02*
X41378286Y-43303390D01*
X41378286Y-43303390D02*
X41425905Y-43112914D01*
X41425905Y-43112914D02*
X41473524Y-43017676D01*
X41473524Y-43017676D02*
X41568762Y-42922438D01*
X41568762Y-42922438D02*
X41711619Y-42874819D01*
X41711619Y-42874819D02*
X41806857Y-42874819D01*
X41806857Y-42874819D02*
X41949714Y-42922438D01*
X41949714Y-42922438D02*
X41997333Y-42970057D01*
X42854476Y-43208152D02*
X42854476Y-43874819D01*
X42616381Y-42827200D02*
X42378286Y-43541485D01*
X42378286Y-43541485D02*
X42997333Y-43541485D01*
X36009580Y-52216666D02*
X36057200Y-52264285D01*
X36057200Y-52264285D02*
X36104819Y-52407142D01*
X36104819Y-52407142D02*
X36104819Y-52502380D01*
X36104819Y-52502380D02*
X36057200Y-52645237D01*
X36057200Y-52645237D02*
X35961961Y-52740475D01*
X35961961Y-52740475D02*
X35866723Y-52788094D01*
X35866723Y-52788094D02*
X35676247Y-52835713D01*
X35676247Y-52835713D02*
X35533390Y-52835713D01*
X35533390Y-52835713D02*
X35342914Y-52788094D01*
X35342914Y-52788094D02*
X35247676Y-52740475D01*
X35247676Y-52740475D02*
X35152438Y-52645237D01*
X35152438Y-52645237D02*
X35104819Y-52502380D01*
X35104819Y-52502380D02*
X35104819Y-52407142D01*
X35104819Y-52407142D02*
X35152438Y-52264285D01*
X35152438Y-52264285D02*
X35200057Y-52216666D01*
X35104819Y-51883332D02*
X35104819Y-51264285D01*
X35104819Y-51264285D02*
X35485771Y-51597618D01*
X35485771Y-51597618D02*
X35485771Y-51454761D01*
X35485771Y-51454761D02*
X35533390Y-51359523D01*
X35533390Y-51359523D02*
X35581009Y-51311904D01*
X35581009Y-51311904D02*
X35676247Y-51264285D01*
X35676247Y-51264285D02*
X35914342Y-51264285D01*
X35914342Y-51264285D02*
X36009580Y-51311904D01*
X36009580Y-51311904D02*
X36057200Y-51359523D01*
X36057200Y-51359523D02*
X36104819Y-51454761D01*
X36104819Y-51454761D02*
X36104819Y-51740475D01*
X36104819Y-51740475D02*
X36057200Y-51835713D01*
X36057200Y-51835713D02*
X36009580Y-51883332D01*
X62770104Y-31629332D02*
X62808200Y-31667428D01*
X62808200Y-31667428D02*
X62846295Y-31781713D01*
X62846295Y-31781713D02*
X62846295Y-31857904D01*
X62846295Y-31857904D02*
X62808200Y-31972190D01*
X62808200Y-31972190D02*
X62732009Y-32048380D01*
X62732009Y-32048380D02*
X62655819Y-32086475D01*
X62655819Y-32086475D02*
X62503438Y-32124571D01*
X62503438Y-32124571D02*
X62389152Y-32124571D01*
X62389152Y-32124571D02*
X62236771Y-32086475D01*
X62236771Y-32086475D02*
X62160580Y-32048380D01*
X62160580Y-32048380D02*
X62084390Y-31972190D01*
X62084390Y-31972190D02*
X62046295Y-31857904D01*
X62046295Y-31857904D02*
X62046295Y-31781713D01*
X62046295Y-31781713D02*
X62084390Y-31667428D01*
X62084390Y-31667428D02*
X62122485Y-31629332D01*
X62046295Y-30943618D02*
X62046295Y-31095999D01*
X62046295Y-31095999D02*
X62084390Y-31172190D01*
X62084390Y-31172190D02*
X62122485Y-31210285D01*
X62122485Y-31210285D02*
X62236771Y-31286475D01*
X62236771Y-31286475D02*
X62389152Y-31324571D01*
X62389152Y-31324571D02*
X62693914Y-31324571D01*
X62693914Y-31324571D02*
X62770104Y-31286475D01*
X62770104Y-31286475D02*
X62808200Y-31248380D01*
X62808200Y-31248380D02*
X62846295Y-31172190D01*
X62846295Y-31172190D02*
X62846295Y-31019809D01*
X62846295Y-31019809D02*
X62808200Y-30943618D01*
X62808200Y-30943618D02*
X62770104Y-30905523D01*
X62770104Y-30905523D02*
X62693914Y-30867428D01*
X62693914Y-30867428D02*
X62503438Y-30867428D01*
X62503438Y-30867428D02*
X62427247Y-30905523D01*
X62427247Y-30905523D02*
X62389152Y-30943618D01*
X62389152Y-30943618D02*
X62351057Y-31019809D01*
X62351057Y-31019809D02*
X62351057Y-31172190D01*
X62351057Y-31172190D02*
X62389152Y-31248380D01*
X62389152Y-31248380D02*
X62427247Y-31286475D01*
X62427247Y-31286475D02*
X62503438Y-31324571D01*
X56764285Y-64912771D02*
X56564285Y-64627057D01*
X56421428Y-64912771D02*
X56421428Y-64312771D01*
X56421428Y-64312771D02*
X56649999Y-64312771D01*
X56649999Y-64312771D02*
X56707142Y-64341342D01*
X56707142Y-64341342D02*
X56735713Y-64369914D01*
X56735713Y-64369914D02*
X56764285Y-64427057D01*
X56764285Y-64427057D02*
X56764285Y-64512771D01*
X56764285Y-64512771D02*
X56735713Y-64569914D01*
X56735713Y-64569914D02*
X56707142Y-64598485D01*
X56707142Y-64598485D02*
X56649999Y-64627057D01*
X56649999Y-64627057D02*
X56421428Y-64627057D01*
X57335713Y-64912771D02*
X56992856Y-64912771D01*
X57164285Y-64912771D02*
X57164285Y-64312771D01*
X57164285Y-64312771D02*
X57107142Y-64398485D01*
X57107142Y-64398485D02*
X57049999Y-64455628D01*
X57049999Y-64455628D02*
X56992856Y-64484200D01*
X57850000Y-64512771D02*
X57850000Y-64912771D01*
X57707142Y-64284200D02*
X57564285Y-64712771D01*
X57564285Y-64712771D02*
X57935714Y-64712771D01*
D15*
%TO.C,Q4*%
X37302000Y-25656000D02*
X38302000Y-25656000D01*
X37302000Y-27176000D02*
X37302000Y-25656000D01*
X37352000Y-27176000D02*
X37302000Y-27176000D01*
X39252000Y-27176000D02*
X38472000Y-27176000D01*
X39422000Y-25656000D02*
X40422000Y-25656000D01*
X40422000Y-25656000D02*
X40422000Y-27176000D01*
X40422000Y-27176000D02*
X40372000Y-27176000D01*
X38812000Y-27956000D02*
X38482000Y-27716000D01*
X38812000Y-27476000D01*
X38812000Y-27956000D01*
G36*
X38812000Y-27956000D02*
G01*
X38482000Y-27716000D01*
X38812000Y-27476000D01*
X38812000Y-27956000D01*
G37*
%TO.C,L1*%
X32578000Y-43600000D02*
X39558000Y-43600000D01*
X32578000Y-50380000D02*
X32578000Y-43600000D01*
X39558000Y-43600000D02*
X39558000Y-50380000D01*
X39558000Y-50380000D02*
X32578000Y-50380000D01*
%TO.C,C14*%
X42779836Y-56917000D02*
X42564164Y-56917000D01*
X42779836Y-57637000D02*
X42564164Y-57637000D01*
%TO.C,Q5*%
X52288000Y-25656000D02*
X53288000Y-25656000D01*
X52288000Y-27176000D02*
X52288000Y-25656000D01*
X52338000Y-27176000D02*
X52288000Y-27176000D01*
X54238000Y-27176000D02*
X53458000Y-27176000D01*
X54408000Y-25656000D02*
X55408000Y-25656000D01*
X55408000Y-25656000D02*
X55408000Y-27176000D01*
X55408000Y-27176000D02*
X55358000Y-27176000D01*
X53798000Y-27956000D02*
X53468000Y-27716000D01*
X53798000Y-27476000D01*
X53798000Y-27956000D01*
G36*
X53798000Y-27956000D02*
G01*
X53468000Y-27716000D01*
X53798000Y-27476000D01*
X53798000Y-27956000D01*
G37*
%TO.C,R10*%
X39861258Y-55357500D02*
X39386742Y-55357500D01*
X39861258Y-56402500D02*
X39386742Y-56402500D01*
%TO.C,Q3*%
X57241000Y-25656000D02*
X58241000Y-25656000D01*
X57241000Y-27176000D02*
X57241000Y-25656000D01*
X57291000Y-27176000D02*
X57241000Y-27176000D01*
X59191000Y-27176000D02*
X58411000Y-27176000D01*
X59361000Y-25656000D02*
X60361000Y-25656000D01*
X60361000Y-25656000D02*
X60361000Y-27176000D01*
X60361000Y-27176000D02*
X60311000Y-27176000D01*
X58751000Y-27956000D02*
X58421000Y-27716000D01*
X58751000Y-27476000D01*
X58751000Y-27956000D01*
G36*
X58751000Y-27956000D02*
G01*
X58421000Y-27716000D01*
X58751000Y-27476000D01*
X58751000Y-27956000D01*
G37*
%TO.C,R4*%
X38847500Y-35957742D02*
X38847500Y-36432258D01*
X39892500Y-35957742D02*
X39892500Y-36432258D01*
%TO.C,C21*%
X27723000Y-20142252D02*
X27723000Y-18719748D01*
X30443000Y-20142252D02*
X30443000Y-18719748D01*
%TO.C,R3*%
X43577742Y-28687500D02*
X44052258Y-28687500D01*
X43577742Y-29732500D02*
X44052258Y-29732500D01*
%TO.C,C8*%
X55901000Y-31642164D02*
X55901000Y-31857836D01*
X56621000Y-31642164D02*
X56621000Y-31857836D01*
%TO.C,R5*%
X48530742Y-28687500D02*
X49005258Y-28687500D01*
X48530742Y-29732500D02*
X49005258Y-29732500D01*
%TO.C,C22*%
X49176000Y-41917252D02*
X49176000Y-41394748D01*
X50646000Y-41917252D02*
X50646000Y-41394748D01*
D16*
%TO.C,U3*%
X57351000Y-32588000D02*
X57351000Y-31928000D01*
X58466000Y-31458000D02*
X59136000Y-31458000D01*
X60251000Y-31928000D02*
X60251000Y-32588000D01*
D17*
X57851000Y-34668000D02*
G75*
G02*
X57651000Y-34668000I-100000J0D01*
G01*
X57651000Y-34668000D02*
G75*
G02*
X57851000Y-34668000I100000J0D01*
G01*
D15*
%TO.C,C2*%
X41635000Y-52120748D02*
X41635000Y-53543252D01*
X43455000Y-52120748D02*
X43455000Y-53543252D01*
%TO.C,Q2*%
X47208000Y-25656000D02*
X48208000Y-25656000D01*
X47208000Y-27176000D02*
X47208000Y-25656000D01*
X47258000Y-27176000D02*
X47208000Y-27176000D01*
X49158000Y-27176000D02*
X48378000Y-27176000D01*
X49328000Y-25656000D02*
X50328000Y-25656000D01*
X50328000Y-25656000D02*
X50328000Y-27176000D01*
X50328000Y-27176000D02*
X50278000Y-27176000D01*
X48718000Y-27956000D02*
X48388000Y-27716000D01*
X48718000Y-27476000D01*
X48718000Y-27956000D01*
G36*
X48718000Y-27956000D02*
G01*
X48388000Y-27716000D01*
X48718000Y-27476000D01*
X48718000Y-27956000D01*
G37*
D16*
%TO.C,U4*%
X52398000Y-32588000D02*
X52398000Y-31928000D01*
X53513000Y-31458000D02*
X54183000Y-31458000D01*
X55298000Y-31928000D02*
X55298000Y-32588000D01*
D17*
X52898000Y-34668000D02*
G75*
G02*
X52698000Y-34668000I-100000J0D01*
G01*
X52698000Y-34668000D02*
G75*
G02*
X52898000Y-34668000I100000J0D01*
G01*
D15*
%TO.C,D6*%
X38951000Y-59409000D02*
X41236000Y-59409000D01*
X41236000Y-57939000D02*
X38951000Y-57939000D01*
X41236000Y-59409000D02*
X41236000Y-57939000D01*
%TO.C,C10*%
X45995000Y-31642164D02*
X45995000Y-31857836D01*
X46715000Y-31642164D02*
X46715000Y-31857836D01*
%TO.C,Q1*%
X42255000Y-25656000D02*
X43255000Y-25656000D01*
X42255000Y-27176000D02*
X42255000Y-25656000D01*
X42305000Y-27176000D02*
X42255000Y-27176000D01*
X44205000Y-27176000D02*
X43425000Y-27176000D01*
X44375000Y-25656000D02*
X45375000Y-25656000D01*
X45375000Y-25656000D02*
X45375000Y-27176000D01*
X45375000Y-27176000D02*
X45325000Y-27176000D01*
X43765000Y-27956000D02*
X43435000Y-27716000D01*
X43765000Y-27476000D01*
X43765000Y-27956000D01*
G36*
X43765000Y-27956000D02*
G01*
X43435000Y-27716000D01*
X43765000Y-27476000D01*
X43765000Y-27956000D01*
G37*
%TO.C,R13*%
X36211742Y-58151500D02*
X36686258Y-58151500D01*
X36211742Y-59196500D02*
X36686258Y-59196500D01*
%TO.C,TP2*%
X52004000Y-62992000D02*
G75*
G02*
X50104000Y-62992000I-950000J0D01*
G01*
X50104000Y-62992000D02*
G75*
G02*
X52004000Y-62992000I950000J0D01*
G01*
%TO.C,U1*%
X52784000Y-39718000D02*
X52784000Y-40718000D01*
X52784000Y-57768000D02*
X52784000Y-56768000D01*
X53564000Y-39718000D02*
X52784000Y-39718000D01*
X53564000Y-57768000D02*
X52784000Y-57768000D01*
X71959000Y-39643000D02*
X71459000Y-39643000D01*
X71459000Y-39143000D01*
X71959000Y-39643000D01*
G36*
X71959000Y-39643000D02*
G01*
X71459000Y-39643000D01*
X71459000Y-39143000D01*
X71959000Y-39643000D01*
G37*
%TO.C,R15*%
X34273258Y-63739500D02*
X33798742Y-63739500D01*
X34273258Y-64784500D02*
X33798742Y-64784500D01*
%TO.C,J3*%
X31181000Y-14368000D02*
X58501000Y-14368000D01*
X31181000Y-22408000D02*
X31181000Y-14368000D01*
X31989000Y-17788000D02*
X31181000Y-17788000D01*
X31989000Y-18788000D02*
X31181000Y-18788000D01*
X33258000Y-16488000D02*
X31181000Y-16488000D01*
X36989000Y-17788000D02*
X35613000Y-17788000D01*
X36989000Y-18788000D02*
X35613000Y-18788000D01*
X38258000Y-16488000D02*
X34344000Y-16488000D01*
X41989000Y-17788000D02*
X40613000Y-17788000D01*
X41989000Y-18788000D02*
X40613000Y-18788000D01*
X43258000Y-16488000D02*
X39344000Y-16488000D01*
X46989000Y-17788000D02*
X45613000Y-17788000D01*
X46989000Y-18788000D02*
X45613000Y-18788000D01*
X48258000Y-16488000D02*
X44344000Y-16488000D01*
X51989000Y-17788000D02*
X50613000Y-17788000D01*
X51989000Y-18788000D02*
X50613000Y-18788000D01*
X53258000Y-16488000D02*
X49344000Y-16488000D01*
X56921000Y-16488000D02*
X54344000Y-16488000D01*
X56921000Y-17788000D02*
X55613000Y-17788000D01*
X56921000Y-18788000D02*
X55613000Y-18788000D01*
X59101000Y-14368000D02*
X61921000Y-14368000D01*
X61921000Y-14368000D02*
X61921000Y-22408000D01*
X61921000Y-16488000D02*
X60681000Y-16488000D01*
X61921000Y-17788000D02*
X60681000Y-17788000D01*
X61921000Y-18788000D02*
X60681000Y-18788000D01*
X61921000Y-22408000D02*
X31181000Y-22408000D01*
X58801000Y-14368000D02*
X58361000Y-13758000D01*
X59241000Y-13758000D01*
X58801000Y-14368000D01*
G36*
X58801000Y-14368000D02*
G01*
X58361000Y-13758000D01*
X59241000Y-13758000D01*
X58801000Y-14368000D01*
G37*
D16*
%TO.C,U7*%
X47445000Y-32588000D02*
X47445000Y-31928000D01*
X48560000Y-31458000D02*
X49230000Y-31458000D01*
X50345000Y-31928000D02*
X50345000Y-32588000D01*
D17*
X47945000Y-34668000D02*
G75*
G02*
X47745000Y-34668000I-100000J0D01*
G01*
X47745000Y-34668000D02*
G75*
G02*
X47945000Y-34668000I100000J0D01*
G01*
D15*
%TO.C,FB1*%
X45174000Y-38405000D02*
X45174000Y-41605000D01*
X45174000Y-41605000D02*
X46774000Y-41605000D01*
X46774000Y-38405000D02*
X45174000Y-38405000D01*
X46774000Y-41605000D02*
X46774000Y-38405000D01*
%TO.C,TP6*%
X28423000Y-61238000D02*
X29223000Y-61238000D01*
X28423000Y-61438000D02*
X28423000Y-61238000D01*
X28423000Y-64238000D02*
X28423000Y-64038000D01*
X29223000Y-61238000D02*
X29223000Y-60738000D01*
X29223000Y-64238000D02*
X28423000Y-64238000D01*
X30623000Y-61238000D02*
X30623000Y-60738000D01*
X30623000Y-61238000D02*
X31223000Y-61238000D01*
X31223000Y-61238000D02*
X31423000Y-61438000D01*
X31423000Y-64038000D02*
X31423000Y-64238000D01*
X31423000Y-64238000D02*
X30623000Y-64238000D01*
%TO.C,R7*%
X58563742Y-28687500D02*
X59038258Y-28687500D01*
X58563742Y-29732500D02*
X59038258Y-29732500D01*
%TO.C,C16*%
X47290000Y-52183420D02*
X47290000Y-52464580D01*
X48310000Y-52183420D02*
X48310000Y-52464580D01*
%TO.C,C12*%
X51179000Y-41669580D02*
X51179000Y-41388420D01*
X52199000Y-41669580D02*
X52199000Y-41388420D01*
%TO.C,SW1*%
X63970000Y-31450000D02*
X68110000Y-31450000D01*
X63970000Y-31750000D02*
X63970000Y-31450000D01*
X63970000Y-34590000D02*
X63970000Y-34290000D01*
X68110000Y-31450000D02*
X68110000Y-31750000D01*
X68110000Y-34290000D02*
X68110000Y-34590000D01*
X68110000Y-34590000D02*
X63970000Y-34590000D01*
%TO.C,U8*%
X31603000Y-29436000D02*
X31698000Y-29436000D01*
X31603000Y-33556000D02*
X31603000Y-29436000D01*
X31698000Y-33556000D02*
X31603000Y-33556000D01*
X36628000Y-29436000D02*
X36723000Y-29436000D01*
X36723000Y-29436000D02*
X36723000Y-33556000D01*
X36723000Y-33556000D02*
X36628000Y-33556000D01*
X31693000Y-34096000D02*
X31363000Y-34336000D01*
X31363000Y-33856000D01*
X31693000Y-34096000D01*
G36*
X31693000Y-34096000D02*
G01*
X31363000Y-34336000D01*
X31363000Y-33856000D01*
X31693000Y-34096000D01*
G37*
%TO.C,C20*%
X47144000Y-41917252D02*
X47144000Y-41394748D01*
X48614000Y-41917252D02*
X48614000Y-41394748D01*
%TO.C,C11*%
X50948000Y-31642164D02*
X50948000Y-31857836D01*
X51668000Y-31642164D02*
X51668000Y-31857836D01*
%TO.C,C7*%
X21437500Y-34220500D02*
X22225000Y-34220500D01*
X21831250Y-33826750D02*
X21831250Y-34614250D01*
X22465000Y-33722437D02*
X22465000Y-35008000D01*
X22465000Y-33722437D02*
X23529437Y-32658000D01*
X22465000Y-38413563D02*
X22465000Y-37128000D01*
X22465000Y-38413563D02*
X23529437Y-39478000D01*
X23529437Y-32658000D02*
X29285000Y-32658000D01*
X23529437Y-39478000D02*
X29285000Y-39478000D01*
X29285000Y-32658000D02*
X29285000Y-35008000D01*
X29285000Y-39478000D02*
X29285000Y-37128000D01*
D10*
%TO.C,D13*%
X61108000Y-64643000D02*
G75*
G02*
X61008000Y-64643000I-50000J0D01*
G01*
X61008000Y-64643000D02*
G75*
G02*
X61108000Y-64643000I50000J0D01*
G01*
D15*
%TO.C,C15*%
X35001252Y-25506000D02*
X33578748Y-25506000D01*
X35001252Y-27326000D02*
X33578748Y-27326000D01*
%TO.C,U9*%
X37697000Y-50632000D02*
X37697000Y-54432000D01*
X38297000Y-55032000D02*
X41297000Y-55032000D01*
X41297000Y-50632000D02*
X37697000Y-50632000D01*
X41297000Y-55032000D02*
X41297000Y-50632000D01*
D17*
X37960500Y-54832000D02*
G75*
G02*
X37833500Y-54832000I-63500J0D01*
G01*
X37833500Y-54832000D02*
G75*
G02*
X37960500Y-54832000I63500J0D01*
G01*
D16*
%TO.C,U5*%
X37539000Y-32588000D02*
X37539000Y-31928000D01*
X38654000Y-31458000D02*
X39324000Y-31458000D01*
X40439000Y-31928000D02*
X40439000Y-32588000D01*
D17*
X38039000Y-34668000D02*
G75*
G02*
X37839000Y-34668000I-100000J0D01*
G01*
X37839000Y-34668000D02*
G75*
G02*
X38039000Y-34668000I100000J0D01*
G01*
D18*
%TO.C,G\u002A\u002A\u002A*%
G36*
X24386849Y-44344817D02*
G01*
X24445813Y-44418189D01*
X24453992Y-44438197D01*
X24475126Y-44541282D01*
X24433871Y-44589188D01*
X24324711Y-44588285D01*
X24324155Y-44588196D01*
X24208444Y-44541182D01*
X24158507Y-44443110D01*
X24155188Y-44399488D01*
X24180282Y-44343968D01*
X24267770Y-44325464D01*
X24282801Y-44325281D01*
X24386849Y-44344817D01*
G37*
G36*
X26037959Y-44357756D02*
G01*
X26082562Y-44437093D01*
X26059984Y-44536167D01*
X26047633Y-44554212D01*
X25974002Y-44610142D01*
X25873668Y-44646498D01*
X25784606Y-44652378D01*
X25754013Y-44638501D01*
X25725452Y-44561033D01*
X25733819Y-44457226D01*
X25774372Y-44376166D01*
X25853171Y-44337469D01*
X25939042Y-44325281D01*
X26037959Y-44357756D01*
G37*
G36*
X25187800Y-44623539D02*
G01*
X25281628Y-44733635D01*
X25297501Y-44811145D01*
X25235644Y-44855275D01*
X25119230Y-44865904D01*
X24994134Y-44860030D01*
X24901952Y-44848991D01*
X24886008Y-44845000D01*
X24841865Y-44801285D01*
X24837005Y-44741190D01*
X24873522Y-44707239D01*
X24879211Y-44706918D01*
X24937299Y-44676898D01*
X25001519Y-44612938D01*
X25077618Y-44518959D01*
X25187800Y-44623539D01*
G37*
G36*
X25947032Y-41225798D02*
G01*
X26070609Y-41327907D01*
X26139550Y-41474015D01*
X26147527Y-41548255D01*
X26174955Y-41677266D01*
X26261742Y-41752949D01*
X26414639Y-41780678D01*
X26439977Y-41781041D01*
X26581897Y-41801824D01*
X26764634Y-41856592D01*
X26957347Y-41933974D01*
X27129193Y-42022599D01*
X27176227Y-42052484D01*
X27275392Y-42112277D01*
X27340142Y-42123492D01*
X27399534Y-42093032D01*
X27504947Y-42053578D01*
X27655206Y-42038919D01*
X27814050Y-42049066D01*
X27945218Y-42084033D01*
X27962853Y-42092832D01*
X28094002Y-42207055D01*
X28188703Y-42367370D01*
X28225044Y-42535818D01*
X28204243Y-42679947D01*
X28150714Y-42816355D01*
X28078594Y-42914273D01*
X28039676Y-42939300D01*
X28009997Y-42963623D01*
X28006189Y-43016632D01*
X28029899Y-43116812D01*
X28065633Y-43230665D01*
X28119379Y-43442173D01*
X28148817Y-43684896D01*
X28157440Y-43922443D01*
X28157144Y-44126353D01*
X28148358Y-44271956D01*
X28126553Y-44385662D01*
X28087200Y-44493880D01*
X28043407Y-44587406D01*
X27901200Y-44819138D01*
X27719554Y-45007660D01*
X27491179Y-45156092D01*
X27208783Y-45267557D01*
X26865077Y-45345176D01*
X26452770Y-45392068D01*
X26126325Y-45408088D01*
X25773608Y-45412615D01*
X25488526Y-45403323D01*
X25254924Y-45379481D01*
X25166380Y-45364593D01*
X24845023Y-45292752D01*
X24590104Y-45209063D01*
X24383331Y-45105294D01*
X24206411Y-44973209D01*
X24125491Y-44896080D01*
X23971981Y-44718356D01*
X23875224Y-44549024D01*
X23839264Y-44448542D01*
X23787553Y-44176507D01*
X23781285Y-44021922D01*
X23967658Y-44021922D01*
X23980800Y-44150445D01*
X24054268Y-44439973D01*
X24176385Y-44675127D01*
X24353590Y-44861224D01*
X24592322Y-45003580D01*
X24899023Y-45107514D01*
X25214639Y-45169126D01*
X25518122Y-45211528D01*
X25763217Y-45237835D01*
X25974721Y-45248477D01*
X26177429Y-45243883D01*
X26396137Y-45224484D01*
X26634135Y-45193742D01*
X26933439Y-45143604D01*
X27167638Y-45083305D01*
X27356384Y-45005504D01*
X27519332Y-44902862D01*
X27609092Y-44829649D01*
X27768377Y-44650886D01*
X27877049Y-44432538D01*
X27941008Y-44160126D01*
X27960176Y-43967905D01*
X27946362Y-43558918D01*
X27855753Y-43178909D01*
X27693437Y-42834758D01*
X27464497Y-42533344D01*
X27174018Y-42281546D01*
X27094789Y-42236945D01*
X27532172Y-42236945D01*
X27544898Y-42285698D01*
X27597824Y-42377261D01*
X27675409Y-42490525D01*
X27762113Y-42604383D01*
X27842395Y-42697728D01*
X27900715Y-42749450D01*
X27912702Y-42753800D01*
X27977567Y-42726675D01*
X28011942Y-42694368D01*
X28036979Y-42605806D01*
X28015917Y-42484910D01*
X27958895Y-42362825D01*
X27876052Y-42270698D01*
X27873411Y-42268819D01*
X27776297Y-42225506D01*
X27662943Y-42206062D01*
X27568375Y-42213757D01*
X27532172Y-42236945D01*
X27094789Y-42236945D01*
X26827086Y-42086244D01*
X26481309Y-41967134D01*
X26315892Y-41931221D01*
X26211128Y-41935124D01*
X26147542Y-41990878D01*
X26105661Y-42110513D01*
X26083880Y-42212693D01*
X26042139Y-42351449D01*
X25984227Y-42454941D01*
X25922292Y-42506880D01*
X25872797Y-42495738D01*
X25868641Y-42445974D01*
X25877498Y-42332321D01*
X25897504Y-42174383D01*
X25912997Y-42073197D01*
X25948770Y-41843167D01*
X25968825Y-41681140D01*
X25973212Y-41571791D01*
X25961977Y-41499793D01*
X25935171Y-41449822D01*
X25915051Y-41427411D01*
X25820895Y-41387206D01*
X25699329Y-41403437D01*
X25604080Y-41455446D01*
X25515191Y-41566948D01*
X25435604Y-41756043D01*
X25364128Y-42025780D01*
X25345220Y-42117114D01*
X25309201Y-42278354D01*
X25273665Y-42400714D01*
X25244320Y-42465849D01*
X25234902Y-42471668D01*
X25209927Y-42428550D01*
X25178890Y-42322570D01*
X25147733Y-42174821D01*
X25141927Y-42141622D01*
X25083437Y-41874645D01*
X25010412Y-41671990D01*
X24926026Y-41540089D01*
X24833454Y-41485376D01*
X24817511Y-41484213D01*
X24692943Y-41515804D01*
X24607451Y-41612518D01*
X24560223Y-41777264D01*
X24550445Y-42012953D01*
X24577305Y-42322496D01*
X24579224Y-42337168D01*
X24600499Y-42516450D01*
X24613210Y-42662430D01*
X24615954Y-42756022D01*
X24611713Y-42779738D01*
X24568514Y-42771731D01*
X24516824Y-42730924D01*
X24458695Y-42683898D01*
X24410864Y-42697444D01*
X24366728Y-42739506D01*
X24230286Y-42926302D01*
X24115509Y-43172253D01*
X24029045Y-43453048D01*
X23977544Y-43744375D01*
X23967658Y-44021922D01*
X23781285Y-44021922D01*
X23774957Y-43865862D01*
X23800911Y-43552950D01*
X23857085Y-43298392D01*
X23914772Y-43146338D01*
X23997078Y-42972179D01*
X24091992Y-42797069D01*
X24187502Y-42642161D01*
X24271595Y-42528608D01*
X24319922Y-42483323D01*
X24343438Y-42426874D01*
X24359481Y-42299969D01*
X24366407Y-42116763D01*
X24366559Y-42081694D01*
X24378499Y-41798181D01*
X24417596Y-41588286D01*
X24488760Y-41443787D01*
X24596906Y-41356463D01*
X24746946Y-41318093D01*
X24824939Y-41314597D01*
X24975093Y-41339558D01*
X25083783Y-41422542D01*
X25165644Y-41575697D01*
X25177012Y-41606902D01*
X25225253Y-41745286D01*
X25298720Y-41581192D01*
X25409441Y-41403420D01*
X25554189Y-41269939D01*
X25713271Y-41196586D01*
X25788419Y-41187385D01*
X25947032Y-41225798D01*
G37*
D15*
%TO.C,C17*%
X19939000Y-27005677D02*
X30099000Y-27005677D01*
X19939000Y-27045677D02*
X30099000Y-27045677D01*
X19940000Y-26925677D02*
X30098000Y-26925677D01*
X19940000Y-26965677D02*
X30098000Y-26965677D01*
X19942000Y-26885677D02*
X30096000Y-26885677D01*
X19943000Y-26845677D02*
X30095000Y-26845677D01*
X19945000Y-26805677D02*
X30093000Y-26805677D01*
X19947000Y-26765677D02*
X30091000Y-26765677D01*
X19949000Y-26725677D02*
X30089000Y-26725677D01*
X19952000Y-26685677D02*
X30086000Y-26685677D01*
X19955000Y-26645677D02*
X30083000Y-26645677D01*
X19958000Y-26605677D02*
X30080000Y-26605677D01*
X19962000Y-26565677D02*
X30076000Y-26565677D01*
X19965000Y-26525677D02*
X30073000Y-26525677D01*
X19970000Y-26485677D02*
X30068000Y-26485677D01*
X19974000Y-26445677D02*
X30064000Y-26445677D01*
X19979000Y-26405677D02*
X30059000Y-26405677D01*
X19984000Y-26365677D02*
X30054000Y-26365677D01*
X19990000Y-26325677D02*
X30048000Y-26325677D01*
X19996000Y-26285677D02*
X30042000Y-26285677D01*
X20002000Y-26245677D02*
X30036000Y-26245677D01*
X20008000Y-26205677D02*
X30030000Y-26205677D01*
X20015000Y-26165677D02*
X30023000Y-26165677D01*
X20022000Y-26125677D02*
X30016000Y-26125677D01*
X20030000Y-26085677D02*
X30008000Y-26085677D01*
X20038000Y-26045677D02*
X30000000Y-26045677D01*
X20046000Y-26005677D02*
X29992000Y-26005677D01*
X20054000Y-25965677D02*
X29984000Y-25965677D01*
X20063000Y-25925677D02*
X29975000Y-25925677D01*
X20072000Y-25885677D02*
X29966000Y-25885677D01*
X20082000Y-25845677D02*
X29956000Y-25845677D01*
X20091000Y-25805677D02*
X29947000Y-25805677D01*
X20102000Y-25765677D02*
X23779000Y-25765677D01*
X20112000Y-25725677D02*
X23779000Y-25725677D01*
X20123000Y-25685677D02*
X23779000Y-25685677D01*
X20134000Y-25645677D02*
X23779000Y-25645677D01*
X20146000Y-25605677D02*
X23779000Y-25605677D01*
X20158000Y-25565677D02*
X23779000Y-25565677D01*
X20170000Y-25525677D02*
X23779000Y-25525677D01*
X20182000Y-25485677D02*
X23779000Y-25485677D01*
X20195000Y-25445677D02*
X23779000Y-25445677D01*
X20209000Y-25405677D02*
X23779000Y-25405677D01*
X20222000Y-25365677D02*
X23779000Y-25365677D01*
X20237000Y-25325677D02*
X23779000Y-25325677D01*
X20251000Y-25285677D02*
X23779000Y-25285677D01*
X20266000Y-25245677D02*
X23779000Y-25245677D01*
X20281000Y-25205677D02*
X23779000Y-25205677D01*
X20297000Y-25165677D02*
X23779000Y-25165677D01*
X20313000Y-25125677D02*
X23779000Y-25125677D01*
X20329000Y-25085677D02*
X23779000Y-25085677D01*
X20346000Y-25045677D02*
X23779000Y-25045677D01*
X20363000Y-25005677D02*
X23779000Y-25005677D01*
X20381000Y-24965677D02*
X23779000Y-24965677D01*
X20399000Y-24925677D02*
X23779000Y-24925677D01*
X20417000Y-24885677D02*
X23779000Y-24885677D01*
X20436000Y-24845677D02*
X23779000Y-24845677D01*
X20455000Y-24805677D02*
X23779000Y-24805677D01*
X20475000Y-24765677D02*
X23779000Y-24765677D01*
X20495000Y-24725677D02*
X23779000Y-24725677D01*
X20515000Y-24685677D02*
X23779000Y-24685677D01*
X20536000Y-24645677D02*
X23779000Y-24645677D01*
X20558000Y-24605677D02*
X23779000Y-24605677D01*
X20580000Y-24565677D02*
X23779000Y-24565677D01*
X20602000Y-24525677D02*
X23779000Y-24525677D01*
X20625000Y-24485677D02*
X23779000Y-24485677D01*
X20648000Y-24445677D02*
X23779000Y-24445677D01*
X20672000Y-24405677D02*
X23779000Y-24405677D01*
X20696000Y-24365677D02*
X23779000Y-24365677D01*
X20721000Y-24325677D02*
X23779000Y-24325677D01*
X20747000Y-24285677D02*
X23779000Y-24285677D01*
X20772000Y-24245677D02*
X23779000Y-24245677D01*
X20799000Y-24205677D02*
X23779000Y-24205677D01*
X20826000Y-24165677D02*
X23779000Y-24165677D01*
X20853000Y-24125677D02*
X23779000Y-24125677D01*
X20881000Y-24085677D02*
X23779000Y-24085677D01*
X20910000Y-24045677D02*
X23779000Y-24045677D01*
X20939000Y-24005677D02*
X23779000Y-24005677D01*
X20969000Y-23965677D02*
X23779000Y-23965677D01*
X20999000Y-23925677D02*
X23779000Y-23925677D01*
X21031000Y-23885677D02*
X23779000Y-23885677D01*
X21062000Y-23845677D02*
X23779000Y-23845677D01*
X21095000Y-23805677D02*
X23779000Y-23805677D01*
X21128000Y-23765677D02*
X23779000Y-23765677D01*
X21161000Y-23725677D02*
X23779000Y-23725677D01*
X21196000Y-23685677D02*
X23779000Y-23685677D01*
X21231000Y-23645677D02*
X23779000Y-23645677D01*
X21267000Y-23605677D02*
X23779000Y-23605677D01*
X21303000Y-23565677D02*
X23779000Y-23565677D01*
X21341000Y-23525677D02*
X23779000Y-23525677D01*
X21379000Y-23485677D02*
X23779000Y-23485677D01*
X21418000Y-23445677D02*
X23779000Y-23445677D01*
X21458000Y-23405677D02*
X23779000Y-23405677D01*
X21499000Y-23365677D02*
X23779000Y-23365677D01*
X21541000Y-23325677D02*
X23779000Y-23325677D01*
X21584000Y-23285677D02*
X28454000Y-23285677D01*
X21628000Y-23245677D02*
X28410000Y-23245677D01*
X21644000Y-32025323D02*
X22644000Y-32025323D01*
X21672000Y-23205677D02*
X28366000Y-23205677D01*
X21718000Y-23165677D02*
X28320000Y-23165677D01*
X21765000Y-23125677D02*
X28273000Y-23125677D01*
X21814000Y-23085677D02*
X28224000Y-23085677D01*
X21863000Y-23045677D02*
X28175000Y-23045677D01*
X21914000Y-23005677D02*
X28124000Y-23005677D01*
X21966000Y-22965677D02*
X28072000Y-22965677D01*
X22019000Y-22925677D02*
X28019000Y-22925677D01*
X22074000Y-22885677D02*
X27964000Y-22885677D01*
X22131000Y-22845677D02*
X27907000Y-22845677D01*
X22144000Y-32525323D02*
X22144000Y-31525323D01*
X22189000Y-22805677D02*
X27849000Y-22805677D01*
X22249000Y-22765677D02*
X27789000Y-22765677D01*
X22311000Y-22725677D02*
X27727000Y-22725677D01*
X22375000Y-22685677D02*
X27663000Y-22685677D01*
X22441000Y-22645677D02*
X27597000Y-22645677D01*
X22509000Y-22605677D02*
X27529000Y-22605677D01*
X22580000Y-22565677D02*
X27458000Y-22565677D01*
X22654000Y-22525677D02*
X27384000Y-22525677D01*
X22731000Y-22485677D02*
X27307000Y-22485677D01*
X22811000Y-22445677D02*
X27227000Y-22445677D01*
X22895000Y-22405677D02*
X27143000Y-22405677D01*
X22982000Y-22365677D02*
X27056000Y-22365677D01*
X23075000Y-22325677D02*
X26963000Y-22325677D01*
X23173000Y-22285677D02*
X26865000Y-22285677D01*
X23277000Y-22245677D02*
X26761000Y-22245677D01*
X23389000Y-22205677D02*
X26649000Y-22205677D01*
X23510000Y-22165677D02*
X26528000Y-22165677D01*
X23642000Y-22125677D02*
X26396000Y-22125677D01*
X23789000Y-22085677D02*
X26249000Y-22085677D01*
X23957000Y-22045677D02*
X26081000Y-22045677D01*
X24157000Y-22005677D02*
X25881000Y-22005677D01*
X24420000Y-21965677D02*
X25618000Y-21965677D01*
X26259000Y-23325677D02*
X28497000Y-23325677D01*
X26259000Y-23365677D02*
X28539000Y-23365677D01*
X26259000Y-23405677D02*
X28580000Y-23405677D01*
X26259000Y-23445677D02*
X28620000Y-23445677D01*
X26259000Y-23485677D02*
X28659000Y-23485677D01*
X26259000Y-23525677D02*
X28697000Y-23525677D01*
X26259000Y-23565677D02*
X28735000Y-23565677D01*
X26259000Y-23605677D02*
X28771000Y-23605677D01*
X26259000Y-23645677D02*
X28807000Y-23645677D01*
X26259000Y-23685677D02*
X28842000Y-23685677D01*
X26259000Y-23725677D02*
X28877000Y-23725677D01*
X26259000Y-23765677D02*
X28910000Y-23765677D01*
X26259000Y-23805677D02*
X28943000Y-23805677D01*
X26259000Y-23845677D02*
X28976000Y-23845677D01*
X26259000Y-23885677D02*
X29007000Y-23885677D01*
X26259000Y-23925677D02*
X29039000Y-23925677D01*
X26259000Y-23965677D02*
X29069000Y-23965677D01*
X26259000Y-24005677D02*
X29099000Y-24005677D01*
X26259000Y-24045677D02*
X29128000Y-24045677D01*
X26259000Y-24085677D02*
X29157000Y-24085677D01*
X26259000Y-24125677D02*
X29185000Y-24125677D01*
X26259000Y-24165677D02*
X29212000Y-24165677D01*
X26259000Y-24205677D02*
X29239000Y-24205677D01*
X26259000Y-24245677D02*
X29266000Y-24245677D01*
X26259000Y-24285677D02*
X29291000Y-24285677D01*
X26259000Y-24325677D02*
X29317000Y-24325677D01*
X26259000Y-24365677D02*
X29342000Y-24365677D01*
X26259000Y-24405677D02*
X29366000Y-24405677D01*
X26259000Y-24445677D02*
X29390000Y-24445677D01*
X26259000Y-24485677D02*
X29413000Y-24485677D01*
X26259000Y-24525677D02*
X29436000Y-24525677D01*
X26259000Y-24565677D02*
X29458000Y-24565677D01*
X26259000Y-24605677D02*
X29480000Y-24605677D01*
X26259000Y-24645677D02*
X29502000Y-24645677D01*
X26259000Y-24685677D02*
X29523000Y-24685677D01*
X26259000Y-24725677D02*
X29543000Y-24725677D01*
X26259000Y-24765677D02*
X29563000Y-24765677D01*
X26259000Y-24805677D02*
X29583000Y-24805677D01*
X26259000Y-24845677D02*
X29602000Y-24845677D01*
X26259000Y-24885677D02*
X29621000Y-24885677D01*
X26259000Y-24925677D02*
X29639000Y-24925677D01*
X26259000Y-24965677D02*
X29657000Y-24965677D01*
X26259000Y-25005677D02*
X29675000Y-25005677D01*
X26259000Y-25045677D02*
X29692000Y-25045677D01*
X26259000Y-25085677D02*
X29709000Y-25085677D01*
X26259000Y-25125677D02*
X29725000Y-25125677D01*
X26259000Y-25165677D02*
X29741000Y-25165677D01*
X26259000Y-25205677D02*
X29757000Y-25205677D01*
X26259000Y-25245677D02*
X29772000Y-25245677D01*
X26259000Y-25285677D02*
X29787000Y-25285677D01*
X26259000Y-25325677D02*
X29801000Y-25325677D01*
X26259000Y-25365677D02*
X29816000Y-25365677D01*
X26259000Y-25405677D02*
X29829000Y-25405677D01*
X26259000Y-25445677D02*
X29843000Y-25445677D01*
X26259000Y-25485677D02*
X29856000Y-25485677D01*
X26259000Y-25525677D02*
X29868000Y-25525677D01*
X26259000Y-25565677D02*
X29880000Y-25565677D01*
X26259000Y-25605677D02*
X29892000Y-25605677D01*
X26259000Y-25645677D02*
X29904000Y-25645677D01*
X26259000Y-25685677D02*
X29915000Y-25685677D01*
X26259000Y-25725677D02*
X29926000Y-25725677D01*
X26259000Y-25765677D02*
X29936000Y-25765677D01*
X30139000Y-27045677D02*
G75*
G02*
X19899000Y-27045677I-5120000J0D01*
G01*
X19899000Y-27045677D02*
G75*
G02*
X30139000Y-27045677I5120000J0D01*
G01*
%TO.C,C19*%
X44040000Y-52120748D02*
X44040000Y-53543252D01*
X46760000Y-52120748D02*
X46760000Y-53543252D01*
%TO.C,R11*%
X53610742Y-28687500D02*
X54085258Y-28687500D01*
X53610742Y-29732500D02*
X54085258Y-29732500D01*
%TO.C,C13*%
X33139748Y-35714000D02*
X33662252Y-35714000D01*
X33139748Y-37184000D02*
X33662252Y-37184000D01*
%TO.C,TP3*%
X55052000Y-62992000D02*
G75*
G02*
X53152000Y-62992000I-950000J0D01*
G01*
X53152000Y-62992000D02*
G75*
G02*
X55052000Y-62992000I950000J0D01*
G01*
%TO.C,C5*%
X41488748Y-41040000D02*
X42911252Y-41040000D01*
X41488748Y-43760000D02*
X42911252Y-43760000D01*
%TO.C,R12*%
X42434742Y-55357500D02*
X42909258Y-55357500D01*
X42434742Y-56402500D02*
X42909258Y-56402500D01*
%TO.C,J1*%
X38941000Y-65188000D02*
X38941000Y-64008000D01*
X39006000Y-61558000D02*
X43036000Y-61558000D01*
X39006000Y-62420077D02*
X39006000Y-61558000D01*
X39751000Y-65188000D02*
X38941000Y-65188000D01*
X40561000Y-65188000D02*
X40561000Y-64674708D01*
X40561000Y-65188000D02*
X43036000Y-65188000D01*
X43036000Y-62420077D02*
X43036000Y-61558000D01*
X43036000Y-63690077D02*
X43036000Y-63055923D01*
X43036000Y-65188000D02*
X43036000Y-64325923D01*
%TO.C,C1*%
X46913748Y-44106000D02*
X48336252Y-44106000D01*
X46913748Y-46826000D02*
X48336252Y-46826000D01*
%TO.C,C9*%
X41042000Y-31642164D02*
X41042000Y-31857836D01*
X41762000Y-31642164D02*
X41762000Y-31857836D01*
%TO.C,TP1*%
X49972000Y-56388000D02*
G75*
G02*
X48072000Y-56388000I-950000J0D01*
G01*
X48072000Y-56388000D02*
G75*
G02*
X49972000Y-56388000I950000J0D01*
G01*
%TO.C,R9*%
X38624742Y-28687500D02*
X39099258Y-28687500D01*
X38624742Y-29732500D02*
X39099258Y-29732500D01*
%TO.C,R1*%
X55736258Y-59929500D02*
X55261742Y-59929500D01*
X55736258Y-60974500D02*
X55261742Y-60974500D01*
%TO.C,R2*%
X55736258Y-58278500D02*
X55261742Y-58278500D01*
X55736258Y-59323500D02*
X55261742Y-59323500D01*
%TO.C,C18*%
X42338748Y-38965000D02*
X42861252Y-38965000D01*
X42338748Y-40435000D02*
X42861252Y-40435000D01*
%TO.C,R6*%
X37323500Y-35957742D02*
X37323500Y-36432258D01*
X38368500Y-35957742D02*
X38368500Y-36432258D01*
%TO.C,J2*%
X18636500Y-47225600D02*
X29126500Y-47225600D01*
X18636500Y-49585600D02*
X18636500Y-47225600D01*
X18636500Y-58225600D02*
X18636500Y-50185600D01*
X19756500Y-47225600D02*
X19756500Y-58225600D01*
X27506500Y-47225600D02*
X27506500Y-58225600D01*
X29126500Y-47225600D02*
X29126500Y-58225600D01*
X29126500Y-58225600D02*
X18636500Y-58225600D01*
X18636500Y-49885600D02*
X18026500Y-50325600D01*
X18026500Y-49445600D01*
X18636500Y-49885600D01*
G36*
X18636500Y-49885600D02*
G01*
X18026500Y-50325600D01*
X18026500Y-49445600D01*
X18636500Y-49885600D01*
G37*
%TO.C,SW2*%
X63970000Y-27894000D02*
X68110000Y-27894000D01*
X63970000Y-28194000D02*
X63970000Y-27894000D01*
X63970000Y-31034000D02*
X63970000Y-30734000D01*
X68110000Y-27894000D02*
X68110000Y-28194000D01*
X68110000Y-30734000D02*
X68110000Y-31034000D01*
X68110000Y-31034000D02*
X63970000Y-31034000D01*
%TO.C,TP5*%
X61402000Y-62992000D02*
G75*
G02*
X59502000Y-62992000I-950000J0D01*
G01*
X59502000Y-62992000D02*
G75*
G02*
X61402000Y-62992000I950000J0D01*
G01*
D16*
%TO.C,U6*%
X42431000Y-32588000D02*
X42431000Y-31928000D01*
X43546000Y-31458000D02*
X44216000Y-31458000D01*
X45331000Y-31928000D02*
X45331000Y-32588000D01*
D17*
X42931000Y-34668000D02*
G75*
G02*
X42731000Y-34668000I-100000J0D01*
G01*
X42731000Y-34668000D02*
G75*
G02*
X42931000Y-34668000I100000J0D01*
G01*
D15*
%TO.C,TP4*%
X58100000Y-62992000D02*
G75*
G02*
X56200000Y-62992000I-950000J0D01*
G01*
X56200000Y-62992000D02*
G75*
G02*
X58100000Y-62992000I950000J0D01*
G01*
%TO.C,C4*%
X41452748Y-44360000D02*
X42875252Y-44360000D01*
X41452748Y-47080000D02*
X42875252Y-47080000D01*
%TO.C,C3*%
X36447000Y-52310420D02*
X36447000Y-52591580D01*
X37467000Y-52310420D02*
X37467000Y-52591580D01*
%TO.C,C6*%
X60981000Y-31388164D02*
X60981000Y-31603836D01*
X61701000Y-31388164D02*
X61701000Y-31603836D01*
%TD*%
M02*
