%TF.GenerationSoftware,KiCad,Pcbnew,9.0.7*%
%TF.CreationDate,2026-02-06T08:29:47-08:00*%
%TF.ProjectId,Esp32_Lightcontroller,45737033-325f-44c6-9967-6874636f6e74,rev?*%
%TF.SameCoordinates,Original*%
%TF.FileFunction,Copper,L2,Inr*%
%TF.FilePolarity,Positive*%
%FSLAX46Y46*%
G04 Gerber Fmt 4.6, Leading zero omitted, Abs format (unit mm)*
G04 Created by KiCad (PCBNEW 9.0.7) date 2026-02-06 08:29:47*
%MOMM*%
%LPD*%
G01*
G04 APERTURE LIST*
G04 Aperture macros list*
%AMRoundRect*
0 Rectangle with rounded corners*
0 $1 Rounding radius*
0 $2 $3 $4 $5 $6 $7 $8 $9 X,Y pos of 4 corners*
0 Add a 4 corners polygon primitive as box body*
4,1,4,$2,$3,$4,$5,$6,$7,$8,$9,$2,$3,0*
0 Add four circle primitives for the rounded corners*
1,1,$1+$1,$2,$3*
1,1,$1+$1,$4,$5*
1,1,$1+$1,$6,$7*
1,1,$1+$1,$8,$9*
0 Add four rect primitives between the rounded corners*
20,1,$1+$1,$2,$3,$4,$5,0*
20,1,$1+$1,$4,$5,$6,$7,0*
20,1,$1+$1,$6,$7,$8,$9,0*
20,1,$1+$1,$8,$9,$2,$3,0*%
G04 Aperture macros list end*
%TA.AperFunction,ComponentPad*%
%ADD10C,3.600000*%
%TD*%
%TA.AperFunction,ComponentPad*%
%ADD11RoundRect,0.250001X1.149999X1.149999X-1.149999X1.149999X-1.149999X-1.149999X1.149999X-1.149999X0*%
%TD*%
%TA.AperFunction,ComponentPad*%
%ADD12C,2.800000*%
%TD*%
%TA.AperFunction,ComponentPad*%
%ADD13RoundRect,0.250000X0.750000X-0.750000X0.750000X0.750000X-0.750000X0.750000X-0.750000X-0.750000X0*%
%TD*%
%TA.AperFunction,ComponentPad*%
%ADD14C,2.000000*%
%TD*%
%TA.AperFunction,ComponentPad*%
%ADD15R,1.000000X1.000000*%
%TD*%
%TA.AperFunction,ComponentPad*%
%ADD16C,1.000000*%
%TD*%
%TA.AperFunction,ComponentPad*%
%ADD17C,0.800000*%
%TD*%
%TA.AperFunction,ComponentPad*%
%ADD18RoundRect,0.250001X-0.949999X0.949999X-0.949999X-0.949999X0.949999X-0.949999X0.949999X0.949999X0*%
%TD*%
%TA.AperFunction,ComponentPad*%
%ADD19C,2.400000*%
%TD*%
%TA.AperFunction,ViaPad*%
%ADD20C,0.600000*%
%TD*%
G04 APERTURE END LIST*
D10*
%TO.N,GND*%
%TO.C,H2*%
X65786000Y-18542000D03*
%TD*%
D11*
%TO.N,/LED_WW_GND*%
%TO.C,J3*%
X58801000Y-18288000D03*
D12*
%TO.N,/LED_CW_GND*%
X53801000Y-18288000D03*
%TO.N,/LED_B_GND*%
X48801000Y-18288000D03*
%TO.N,/LED_G_GND*%
X43801000Y-18288000D03*
%TO.N,/LED_R_GND*%
X38801000Y-18288000D03*
%TO.N,VCC*%
X33801000Y-18288000D03*
%TD*%
D10*
%TO.N,GND*%
%TO.C,H3*%
X65786000Y-62484000D03*
%TD*%
D13*
%TO.N,VCC*%
%TO.C,C17*%
X25019000Y-29545677D03*
D14*
%TO.N,GND*%
X25019000Y-24545677D03*
%TD*%
D15*
%TO.N,/EN*%
%TO.C,J1*%
X39751000Y-64008000D03*
D16*
%TO.N,+3.3V*%
X39751000Y-62738000D03*
%TO.N,/TX*%
X41021000Y-64008000D03*
%TO.N,GND*%
X41021000Y-62738000D03*
%TO.N,/RX*%
X42291000Y-64008000D03*
%TO.N,/BOOT*%
X42291000Y-62738000D03*
%TD*%
D10*
%TO.N,GND*%
%TO.C,H1*%
X23749000Y-62484000D03*
%TD*%
D17*
%TO.N,GND*%
%TO.C,3.3v1*%
X51181000Y-44541000D03*
%TD*%
D18*
%TO.N,/VIN*%
%TO.C,J2*%
X24106500Y-49885600D03*
D19*
%TO.N,GND*%
X24106500Y-54965600D03*
%TD*%
D10*
%TO.N,GND*%
%TO.C,H4*%
X23749000Y-18542000D03*
%TD*%
D20*
%TO.N,+3.3V*%
X33959800Y-42849800D03*
X39800000Y-41300000D03*
X36195000Y-41275000D03*
X38227000Y-42773600D03*
X36220400Y-42773600D03*
X39800000Y-42700000D03*
X38227000Y-41275000D03*
X44297600Y-55880000D03*
X34544000Y-63373000D03*
X34036000Y-41275000D03*
X45278250Y-38521750D03*
%TO.N,GND*%
X20574000Y-20828000D03*
X20574000Y-33274000D03*
X64262000Y-47625000D03*
X56007000Y-25781000D03*
X32512000Y-62738000D03*
X68834000Y-38354000D03*
X60550000Y-22250000D03*
X49403000Y-47650400D03*
X42900000Y-42500000D03*
X55626000Y-27686000D03*
X51300000Y-22250000D03*
X61300000Y-33500000D03*
X20574000Y-37084000D03*
X42418000Y-65900000D03*
X53340000Y-53086000D03*
X51300000Y-33250000D03*
X31877000Y-58547000D03*
X36500000Y-39750000D03*
X38608000Y-52832000D03*
X51308000Y-30607000D03*
X29438600Y-50723800D03*
X41300000Y-22250000D03*
X54102000Y-30988000D03*
X55626000Y-26670000D03*
X53300000Y-56800000D03*
X58674000Y-15494000D03*
X49911000Y-43307000D03*
X26990000Y-43688000D03*
X26162000Y-65786000D03*
X30734000Y-65786000D03*
X39878000Y-26162000D03*
X62992000Y-15494000D03*
X47371000Y-47625000D03*
X52550000Y-25000000D03*
X68834000Y-26670000D03*
X42900000Y-45700000D03*
X20447000Y-28956000D03*
X68834000Y-31242000D03*
X20574000Y-42291000D03*
X48514000Y-37592000D03*
X38248200Y-59720800D03*
X43992800Y-52730400D03*
X22800000Y-40100000D03*
X56400000Y-33400000D03*
X56134000Y-18288000D03*
X46300000Y-22250000D03*
X22275800Y-46482000D03*
X44100000Y-47600000D03*
X38989000Y-34544000D03*
X65532000Y-38862000D03*
X38608000Y-15494000D03*
X41021000Y-47625000D03*
X49403000Y-50800000D03*
X46300000Y-33500000D03*
X53340000Y-48260000D03*
X56550000Y-22250000D03*
X41500000Y-33600000D03*
X29083000Y-17018000D03*
X52324000Y-36068000D03*
X39243000Y-30988000D03*
X20701000Y-59436000D03*
X31800000Y-47450000D03*
X52832000Y-61722000D03*
X39624000Y-55245000D03*
X51054000Y-25781000D03*
X57550000Y-25000000D03*
X60706000Y-26924000D03*
X46101000Y-25781000D03*
X47879000Y-43307000D03*
X36322000Y-18288000D03*
X31902400Y-53060600D03*
X47752000Y-54356000D03*
X42545000Y-53340000D03*
X43800000Y-34500000D03*
X58876556Y-34509377D03*
X48768000Y-15494000D03*
X35356800Y-53136800D03*
X26400000Y-37700000D03*
X47550000Y-25000000D03*
X25552400Y-39497000D03*
X68834000Y-35560000D03*
X44200000Y-39700000D03*
X64008000Y-24765000D03*
X53850000Y-34700000D03*
X49784000Y-26162000D03*
X62738000Y-65786000D03*
X51816000Y-65786000D03*
X39624000Y-52832000D03*
X41021000Y-36830000D03*
X63500000Y-43180000D03*
X39624000Y-39751000D03*
X25933400Y-41071800D03*
X54864000Y-26162000D03*
X47498000Y-65786000D03*
X20701000Y-54864000D03*
X30480000Y-15240000D03*
X58420000Y-53340000D03*
X50546000Y-26670000D03*
X20574000Y-26162000D03*
X22800000Y-41097200D03*
X26990000Y-42850000D03*
X23200000Y-42400000D03*
X20574000Y-45339000D03*
X53848000Y-15494000D03*
X61400000Y-17000000D03*
X41148000Y-25781000D03*
X61214000Y-38862000D03*
X22580600Y-45212000D03*
X41402000Y-30607000D03*
X51689000Y-42926000D03*
X65000000Y-33000000D03*
X65000000Y-29500000D03*
X44831000Y-26162000D03*
X40640000Y-26670000D03*
X50292000Y-36576000D03*
X41402000Y-18288000D03*
X41529000Y-59720800D03*
X51308000Y-18288000D03*
X61087000Y-25908000D03*
X45466000Y-27686000D03*
X33700000Y-36449000D03*
X68834000Y-22098000D03*
X35356800Y-55803800D03*
X46939200Y-56794400D03*
X58420000Y-43180000D03*
X58420000Y-48260000D03*
X33050000Y-39750000D03*
X45339000Y-45516800D03*
X45339000Y-53314600D03*
X31750000Y-26416000D03*
X38735000Y-56769000D03*
X46228000Y-18288000D03*
X26162000Y-15367000D03*
X46355000Y-30607000D03*
X40640000Y-52832000D03*
X20447000Y-23368000D03*
X26990000Y-42037000D03*
X24714200Y-39344600D03*
X59055000Y-30988000D03*
X40640000Y-27686000D03*
X46710600Y-38125400D03*
X31750000Y-50622200D03*
X36300000Y-22250000D03*
X44196000Y-30988000D03*
X27432000Y-37719000D03*
X23291800Y-39344600D03*
X45466000Y-26670000D03*
X61341000Y-30353000D03*
X43688000Y-15494000D03*
X56388000Y-30480000D03*
X30353000Y-45500000D03*
X33648200Y-59720800D03*
X37550000Y-25000000D03*
X52574485Y-59637093D03*
X66040000Y-48260000D03*
X66040000Y-53340000D03*
X48800000Y-34750000D03*
X42550000Y-25000000D03*
X62357000Y-59817000D03*
X63500000Y-38862000D03*
X32004000Y-24003000D03*
X59944000Y-26162000D03*
X60706000Y-27940000D03*
X51384200Y-39573200D03*
X49377600Y-54178200D03*
X57404000Y-65786000D03*
X58420000Y-39116000D03*
X50546000Y-27686000D03*
X35648200Y-59720800D03*
X36576000Y-65786000D03*
X49149000Y-30988000D03*
X27686000Y-58674000D03*
%TO.N,VCC*%
X27178000Y-30480000D03*
X41021000Y-50292000D03*
X30124400Y-22961600D03*
X23700000Y-37150000D03*
X42291000Y-48768000D03*
X44069000Y-48768000D03*
X23700000Y-38450000D03*
X46990000Y-50292000D03*
X22606000Y-27305000D03*
X47371000Y-48768000D03*
X32448500Y-20637500D03*
X42545000Y-50292000D03*
X22000000Y-38450000D03*
X22606000Y-28956000D03*
X22733000Y-34671000D03*
X44958000Y-50292000D03*
X27165300Y-25920700D03*
X45720000Y-48768000D03*
X24511000Y-32893000D03*
X22733000Y-32893000D03*
X27178000Y-28448000D03*
X24511000Y-34671000D03*
X22606000Y-30734000D03*
X21971000Y-37150000D03*
%TO.N,/EN*%
X61468000Y-53721000D03*
%TO.N,/TX*%
X38735000Y-61468000D03*
%TO.N,Net-(U1-IO6{slash}SPICLK{slash}MTCK)*%
X51054000Y-56388000D03*
X51054000Y-61722000D03*
%TO.N,Net-(U1-IO7{slash}SPID{slash}MTDO)*%
X54102000Y-54737000D03*
X54102000Y-61722000D03*
%TO.N,Net-(U1-IO10{slash}SPICS)*%
X57150000Y-64262000D03*
X62484000Y-55626000D03*
%TO.N,Net-(U1-IO18)*%
X61341000Y-61722000D03*
X64484000Y-55213000D03*
%TO.N,+10V*%
X37211000Y-32131000D03*
X33274000Y-32258000D03*
X37084000Y-34036000D03*
X35052000Y-30607000D03*
X35052000Y-32258000D03*
X33274000Y-30607000D03*
%TO.N,/VIN*%
X29337000Y-47625000D03*
X26162000Y-49022000D03*
X29337000Y-49022000D03*
X29000000Y-41700000D03*
X28100000Y-41700000D03*
X28150000Y-42750000D03*
X29050000Y-43850000D03*
X29000000Y-42750000D03*
X27813000Y-50419000D03*
X27813000Y-49022000D03*
X28200000Y-43850000D03*
X26162000Y-50419000D03*
X24400000Y-47600000D03*
X27813000Y-47625000D03*
X26162000Y-47625000D03*
%TD*%
%TA.AperFunction,Conductor*%
%TO.N,GND*%
G36*
X66803472Y-14800695D02*
G01*
X67095306Y-14817084D01*
X67109103Y-14818638D01*
X67393827Y-14867015D01*
X67407384Y-14870109D01*
X67684899Y-14950060D01*
X67698025Y-14954653D01*
X67964841Y-15065172D01*
X67977355Y-15071198D01*
X68143444Y-15162992D01*
X68230125Y-15210899D01*
X68241899Y-15218297D01*
X68477430Y-15385415D01*
X68488302Y-15394085D01*
X68703642Y-15586524D01*
X68713475Y-15596357D01*
X68905914Y-15811697D01*
X68914584Y-15822569D01*
X69081702Y-16058100D01*
X69089100Y-16069874D01*
X69228797Y-16322637D01*
X69234830Y-16335165D01*
X69345346Y-16601975D01*
X69349939Y-16615100D01*
X69429890Y-16892615D01*
X69432984Y-16906172D01*
X69481359Y-17190885D01*
X69482916Y-17204703D01*
X69499305Y-17496527D01*
X69499500Y-17503480D01*
X69499500Y-39084881D01*
X69479815Y-39151920D01*
X69427011Y-39197675D01*
X69389194Y-39208123D01*
X69175395Y-39231878D01*
X69175395Y-39231879D01*
X69225395Y-59081879D01*
X69392363Y-59104796D01*
X69456101Y-59133412D01*
X69494251Y-59191947D01*
X69499500Y-59227643D01*
X69499500Y-63496519D01*
X69499305Y-63503472D01*
X69482916Y-63795296D01*
X69481359Y-63809114D01*
X69432984Y-64093827D01*
X69429890Y-64107384D01*
X69349939Y-64384899D01*
X69345346Y-64398024D01*
X69234830Y-64664834D01*
X69228797Y-64677362D01*
X69089100Y-64930125D01*
X69081702Y-64941899D01*
X68914584Y-65177430D01*
X68905914Y-65188302D01*
X68713475Y-65403642D01*
X68703642Y-65413475D01*
X68488302Y-65605914D01*
X68477430Y-65614584D01*
X68241899Y-65781702D01*
X68230125Y-65789100D01*
X67977362Y-65928797D01*
X67964834Y-65934830D01*
X67698024Y-66045346D01*
X67684899Y-66049939D01*
X67407384Y-66129890D01*
X67393827Y-66132984D01*
X67109114Y-66181359D01*
X67095296Y-66182916D01*
X66803472Y-66199305D01*
X66796519Y-66199500D01*
X22803481Y-66199500D01*
X22796528Y-66199305D01*
X22504703Y-66182916D01*
X22490885Y-66181359D01*
X22206172Y-66132984D01*
X22192615Y-66129890D01*
X21915100Y-66049939D01*
X21901975Y-66045346D01*
X21635165Y-65934830D01*
X21622637Y-65928797D01*
X21369874Y-65789100D01*
X21358100Y-65781702D01*
X21122569Y-65614584D01*
X21111697Y-65605914D01*
X20896357Y-65413475D01*
X20886524Y-65403642D01*
X20694085Y-65188302D01*
X20685415Y-65177430D01*
X20518297Y-64941899D01*
X20510899Y-64930125D01*
X20425155Y-64774982D01*
X20371198Y-64677355D01*
X20365172Y-64664841D01*
X20254653Y-64398024D01*
X20250060Y-64384899D01*
X20170109Y-64107384D01*
X20167015Y-64093827D01*
X20159486Y-64049515D01*
X20118638Y-63809103D01*
X20117084Y-63795306D01*
X20100695Y-63503472D01*
X20100500Y-63496519D01*
X20100500Y-63300525D01*
X33993500Y-63300525D01*
X33993500Y-63445475D01*
X34031016Y-63585485D01*
X34031017Y-63585488D01*
X34103488Y-63711011D01*
X34103490Y-63711013D01*
X34103491Y-63711015D01*
X34205985Y-63813509D01*
X34205986Y-63813510D01*
X34205988Y-63813511D01*
X34331511Y-63885982D01*
X34331512Y-63885982D01*
X34331515Y-63885984D01*
X34471525Y-63923500D01*
X34471528Y-63923500D01*
X34616472Y-63923500D01*
X34616475Y-63923500D01*
X34756485Y-63885984D01*
X34882015Y-63813509D01*
X34984509Y-63711015D01*
X35056984Y-63585485D01*
X35094500Y-63445475D01*
X35094500Y-63300525D01*
X35056984Y-63160515D01*
X35018293Y-63093501D01*
X34984511Y-63034988D01*
X34984506Y-63034982D01*
X34882017Y-62932493D01*
X34882011Y-62932488D01*
X34756488Y-62860017D01*
X34756489Y-62860017D01*
X34745006Y-62856940D01*
X34616475Y-62822500D01*
X34471525Y-62822500D01*
X34342993Y-62856940D01*
X34331511Y-62860017D01*
X34205988Y-62932488D01*
X34205982Y-62932493D01*
X34103493Y-63034982D01*
X34103488Y-63034988D01*
X34031017Y-63160511D01*
X34031016Y-63160515D01*
X33993500Y-63300525D01*
X20100500Y-63300525D01*
X20100500Y-62811920D01*
X39000499Y-62811920D01*
X39029340Y-62956907D01*
X39029343Y-62956917D01*
X39085912Y-63093488D01*
X39085919Y-63093500D01*
X39120285Y-63144932D01*
X39141163Y-63211609D01*
X39122679Y-63278989D01*
X39086075Y-63316924D01*
X39070400Y-63327397D01*
X39015033Y-63410260D01*
X39015032Y-63410264D01*
X39000500Y-63483321D01*
X39000500Y-64532678D01*
X39015032Y-64605735D01*
X39015033Y-64605739D01*
X39015034Y-64605740D01*
X39070399Y-64688601D01*
X39131848Y-64729659D01*
X39153260Y-64743966D01*
X39153264Y-64743967D01*
X39226321Y-64758499D01*
X39226324Y-64758500D01*
X39226326Y-64758500D01*
X40275676Y-64758500D01*
X40275677Y-64758499D01*
X40348740Y-64743966D01*
X40431601Y-64688601D01*
X40442074Y-64672925D01*
X40495683Y-64628122D01*
X40565008Y-64619412D01*
X40614068Y-64638715D01*
X40665496Y-64673079D01*
X40665511Y-64673087D01*
X40736543Y-64702509D01*
X40802087Y-64729658D01*
X40802091Y-64729658D01*
X40802092Y-64729659D01*
X40947079Y-64758500D01*
X40947082Y-64758500D01*
X41094920Y-64758500D01*
X41192462Y-64739096D01*
X41239913Y-64729658D01*
X41376495Y-64673084D01*
X41499416Y-64590951D01*
X41499419Y-64590948D01*
X41568319Y-64522049D01*
X41629642Y-64488564D01*
X41699334Y-64493548D01*
X41743681Y-64522049D01*
X41812580Y-64590948D01*
X41812584Y-64590951D01*
X41935498Y-64673080D01*
X41935511Y-64673087D01*
X42006543Y-64702509D01*
X42072087Y-64729658D01*
X42072091Y-64729658D01*
X42072092Y-64729659D01*
X42217079Y-64758500D01*
X42217082Y-64758500D01*
X42364920Y-64758500D01*
X42462462Y-64739096D01*
X42509913Y-64729658D01*
X42646495Y-64673084D01*
X42769416Y-64590951D01*
X42873951Y-64486416D01*
X42956084Y-64363495D01*
X43012658Y-64226913D01*
X43020095Y-64189525D01*
X56599500Y-64189525D01*
X56599500Y-64334475D01*
X56619340Y-64408518D01*
X56637017Y-64474488D01*
X56709488Y-64600011D01*
X56709490Y-64600013D01*
X56709491Y-64600015D01*
X56811985Y-64702509D01*
X56811986Y-64702510D01*
X56811988Y-64702511D01*
X56937511Y-64774982D01*
X56937512Y-64774982D01*
X56937515Y-64774984D01*
X57077525Y-64812500D01*
X57077528Y-64812500D01*
X57222472Y-64812500D01*
X57222475Y-64812500D01*
X57362485Y-64774984D01*
X57488015Y-64702509D01*
X57590509Y-64600015D01*
X57662984Y-64474485D01*
X57700500Y-64334475D01*
X57700500Y-64189525D01*
X57662984Y-64049515D01*
X57590509Y-63923985D01*
X57488015Y-63821491D01*
X57488013Y-63821490D01*
X57488011Y-63821488D01*
X57362488Y-63749017D01*
X57362489Y-63749017D01*
X57351006Y-63745940D01*
X57222475Y-63711500D01*
X57077525Y-63711500D01*
X56948993Y-63745940D01*
X56937511Y-63749017D01*
X56811988Y-63821488D01*
X56811982Y-63821493D01*
X56709493Y-63923982D01*
X56709488Y-63923988D01*
X56637017Y-64049511D01*
X56637016Y-64049515D01*
X56599500Y-64189525D01*
X43020095Y-64189525D01*
X43026524Y-64157206D01*
X43041500Y-64081920D01*
X43041500Y-63934079D01*
X43012659Y-63789092D01*
X43012658Y-63789091D01*
X43012658Y-63789087D01*
X43012656Y-63789082D01*
X42956087Y-63652511D01*
X42956080Y-63652498D01*
X42873951Y-63529584D01*
X42873948Y-63529580D01*
X42805049Y-63460681D01*
X42771564Y-63399358D01*
X42776548Y-63329666D01*
X42805049Y-63285319D01*
X42873948Y-63216419D01*
X42873951Y-63216416D01*
X42956084Y-63093495D01*
X43012658Y-62956913D01*
X43031932Y-62860017D01*
X43041500Y-62811920D01*
X43041500Y-62664079D01*
X43012659Y-62519092D01*
X43012658Y-62519091D01*
X43012658Y-62519087D01*
X43012656Y-62519082D01*
X42956087Y-62382511D01*
X42956080Y-62382498D01*
X42873951Y-62259584D01*
X42873948Y-62259580D01*
X42769419Y-62155051D01*
X42769415Y-62155048D01*
X42646501Y-62072919D01*
X42646488Y-62072912D01*
X42509917Y-62016343D01*
X42509907Y-62016340D01*
X42364920Y-61987500D01*
X42364918Y-61987500D01*
X42217082Y-61987500D01*
X42217080Y-61987500D01*
X42072092Y-62016340D01*
X42072082Y-62016343D01*
X41935511Y-62072912D01*
X41935498Y-62072919D01*
X41812584Y-62155048D01*
X41812580Y-62155051D01*
X41708051Y-62259580D01*
X41708048Y-62259584D01*
X41625919Y-62382498D01*
X41625912Y-62382511D01*
X41569343Y-62519082D01*
X41569340Y-62519092D01*
X41540500Y-62664079D01*
X41540500Y-62664082D01*
X41540500Y-62811918D01*
X41540500Y-62811920D01*
X41540499Y-62811920D01*
X41569340Y-62956907D01*
X41569343Y-62956917D01*
X41625912Y-63093488D01*
X41625919Y-63093501D01*
X41708048Y-63216415D01*
X41708051Y-63216419D01*
X41776951Y-63285319D01*
X41781289Y-63293264D01*
X41788537Y-63298690D01*
X41797771Y-63323449D01*
X41810436Y-63346642D01*
X41809790Y-63355671D01*
X41812954Y-63364154D01*
X41807337Y-63389974D01*
X41805452Y-63416334D01*
X41799633Y-63425387D01*
X41798102Y-63432427D01*
X41776951Y-63460681D01*
X41743681Y-63493951D01*
X41682358Y-63527436D01*
X41612666Y-63522452D01*
X41568319Y-63493951D01*
X41499419Y-63425051D01*
X41499415Y-63425048D01*
X41376501Y-63342919D01*
X41376488Y-63342912D01*
X41239917Y-63286343D01*
X41239907Y-63286340D01*
X41094920Y-63257500D01*
X41094918Y-63257500D01*
X40947082Y-63257500D01*
X40947080Y-63257500D01*
X40802092Y-63286340D01*
X40802082Y-63286343D01*
X40665511Y-63342912D01*
X40665498Y-63342919D01*
X40614067Y-63377285D01*
X40547389Y-63398163D01*
X40480009Y-63379678D01*
X40457494Y-63361864D01*
X40448860Y-63353230D01*
X40431601Y-63327399D01*
X40405771Y-63310140D01*
X40397135Y-63301504D01*
X40386008Y-63281126D01*
X40371120Y-63263311D01*
X40369578Y-63251035D01*
X40363651Y-63240180D01*
X40365307Y-63217024D01*
X40362414Y-63193986D01*
X40367964Y-63179880D01*
X40368636Y-63170488D01*
X40375009Y-63161973D01*
X40381715Y-63144932D01*
X40383048Y-63142935D01*
X40416084Y-63093495D01*
X40472658Y-62956913D01*
X40491932Y-62860017D01*
X40501500Y-62811920D01*
X40501500Y-62664079D01*
X40472659Y-62519092D01*
X40472658Y-62519091D01*
X40472658Y-62519087D01*
X40472656Y-62519082D01*
X40416087Y-62382511D01*
X40416080Y-62382498D01*
X40333951Y-62259584D01*
X40333948Y-62259580D01*
X40229419Y-62155051D01*
X40229415Y-62155048D01*
X40106501Y-62072919D01*
X40106488Y-62072912D01*
X39969917Y-62016343D01*
X39969907Y-62016340D01*
X39824920Y-61987500D01*
X39824918Y-61987500D01*
X39677082Y-61987500D01*
X39677080Y-61987500D01*
X39532092Y-62016340D01*
X39532082Y-62016343D01*
X39395511Y-62072912D01*
X39395498Y-62072919D01*
X39272584Y-62155048D01*
X39272580Y-62155051D01*
X39168051Y-62259580D01*
X39168048Y-62259584D01*
X39085919Y-62382498D01*
X39085912Y-62382511D01*
X39029343Y-62519082D01*
X39029340Y-62519092D01*
X39000500Y-62664079D01*
X39000500Y-62664082D01*
X39000500Y-62811918D01*
X39000500Y-62811920D01*
X39000499Y-62811920D01*
X20100500Y-62811920D01*
X20100500Y-61395525D01*
X38184500Y-61395525D01*
X38184500Y-61540475D01*
X38213721Y-61649527D01*
X38222017Y-61680488D01*
X38294488Y-61806011D01*
X38294490Y-61806013D01*
X38294491Y-61806015D01*
X38396985Y-61908509D01*
X38396986Y-61908510D01*
X38396988Y-61908511D01*
X38522511Y-61980982D01*
X38522512Y-61980982D01*
X38522515Y-61980984D01*
X38662525Y-62018500D01*
X38662528Y-62018500D01*
X38807472Y-62018500D01*
X38807475Y-62018500D01*
X38947485Y-61980984D01*
X39073015Y-61908509D01*
X39175509Y-61806015D01*
X39247984Y-61680485D01*
X39256280Y-61649525D01*
X50503500Y-61649525D01*
X50503500Y-61794475D01*
X50541016Y-61934485D01*
X50541017Y-61934488D01*
X50613488Y-62060011D01*
X50613490Y-62060013D01*
X50613491Y-62060015D01*
X50715985Y-62162509D01*
X50715986Y-62162510D01*
X50715988Y-62162511D01*
X50841511Y-62234982D01*
X50841512Y-62234982D01*
X50841515Y-62234984D01*
X50981525Y-62272500D01*
X50981528Y-62272500D01*
X51126472Y-62272500D01*
X51126475Y-62272500D01*
X51266485Y-62234984D01*
X51392015Y-62162509D01*
X51494509Y-62060015D01*
X51566984Y-61934485D01*
X51604500Y-61794475D01*
X51604500Y-61649525D01*
X53551500Y-61649525D01*
X53551500Y-61794475D01*
X53589016Y-61934485D01*
X53589017Y-61934488D01*
X53661488Y-62060011D01*
X53661490Y-62060013D01*
X53661491Y-62060015D01*
X53763985Y-62162509D01*
X53763986Y-62162510D01*
X53763988Y-62162511D01*
X53889511Y-62234982D01*
X53889512Y-62234982D01*
X53889515Y-62234984D01*
X54029525Y-62272500D01*
X54029528Y-62272500D01*
X54174472Y-62272500D01*
X54174475Y-62272500D01*
X54314485Y-62234984D01*
X54440015Y-62162509D01*
X54542509Y-62060015D01*
X54614984Y-61934485D01*
X54652500Y-61794475D01*
X54652500Y-61649525D01*
X60790500Y-61649525D01*
X60790500Y-61794475D01*
X60828016Y-61934485D01*
X60828017Y-61934488D01*
X60900488Y-62060011D01*
X60900490Y-62060013D01*
X60900491Y-62060015D01*
X61002985Y-62162509D01*
X61002986Y-62162510D01*
X61002988Y-62162511D01*
X61128511Y-62234982D01*
X61128512Y-62234982D01*
X61128515Y-62234984D01*
X61268525Y-62272500D01*
X61268528Y-62272500D01*
X61413472Y-62272500D01*
X61413475Y-62272500D01*
X61553485Y-62234984D01*
X61679015Y-62162509D01*
X61781509Y-62060015D01*
X61853984Y-61934485D01*
X61891500Y-61794475D01*
X61891500Y-61649525D01*
X61853984Y-61509515D01*
X61781509Y-61383985D01*
X61679015Y-61281491D01*
X61679013Y-61281490D01*
X61679011Y-61281488D01*
X61553488Y-61209017D01*
X61553489Y-61209017D01*
X61542006Y-61205940D01*
X61413475Y-61171500D01*
X61268525Y-61171500D01*
X61139993Y-61205940D01*
X61128511Y-61209017D01*
X61002988Y-61281488D01*
X61002982Y-61281493D01*
X60900493Y-61383982D01*
X60900488Y-61383988D01*
X60828017Y-61509511D01*
X60828016Y-61509515D01*
X60790500Y-61649525D01*
X54652500Y-61649525D01*
X54614984Y-61509515D01*
X54542509Y-61383985D01*
X54440015Y-61281491D01*
X54440013Y-61281490D01*
X54440011Y-61281488D01*
X54314488Y-61209017D01*
X54314489Y-61209017D01*
X54303006Y-61205940D01*
X54174475Y-61171500D01*
X54029525Y-61171500D01*
X53900993Y-61205940D01*
X53889511Y-61209017D01*
X53763988Y-61281488D01*
X53763982Y-61281493D01*
X53661493Y-61383982D01*
X53661488Y-61383988D01*
X53589017Y-61509511D01*
X53589016Y-61509515D01*
X53551500Y-61649525D01*
X51604500Y-61649525D01*
X51566984Y-61509515D01*
X51494509Y-61383985D01*
X51392015Y-61281491D01*
X51392013Y-61281490D01*
X51392011Y-61281488D01*
X51266488Y-61209017D01*
X51266489Y-61209017D01*
X51255006Y-61205940D01*
X51126475Y-61171500D01*
X50981525Y-61171500D01*
X50852993Y-61205940D01*
X50841511Y-61209017D01*
X50715988Y-61281488D01*
X50715982Y-61281493D01*
X50613493Y-61383982D01*
X50613488Y-61383988D01*
X50541017Y-61509511D01*
X50541016Y-61509515D01*
X50503500Y-61649525D01*
X39256280Y-61649525D01*
X39285500Y-61540475D01*
X39285500Y-61395525D01*
X39247984Y-61255515D01*
X39221138Y-61209017D01*
X39175511Y-61129988D01*
X39175506Y-61129982D01*
X39073017Y-61027493D01*
X39073011Y-61027488D01*
X38947488Y-60955017D01*
X38947489Y-60955017D01*
X38936006Y-60951940D01*
X38807475Y-60917500D01*
X38662525Y-60917500D01*
X38533993Y-60951940D01*
X38522511Y-60955017D01*
X38396988Y-61027488D01*
X38396982Y-61027493D01*
X38294493Y-61129982D01*
X38294488Y-61129988D01*
X38222017Y-61255511D01*
X38222016Y-61255515D01*
X38184500Y-61395525D01*
X20100500Y-61395525D01*
X20100500Y-55807525D01*
X43747100Y-55807525D01*
X43747100Y-55952475D01*
X43784616Y-56092485D01*
X43784617Y-56092488D01*
X43857088Y-56218011D01*
X43857090Y-56218013D01*
X43857091Y-56218015D01*
X43959585Y-56320509D01*
X43959586Y-56320510D01*
X43959588Y-56320511D01*
X44085111Y-56392982D01*
X44085112Y-56392982D01*
X44085115Y-56392984D01*
X44225125Y-56430500D01*
X44225128Y-56430500D01*
X44370072Y-56430500D01*
X44370075Y-56430500D01*
X44510085Y-56392984D01*
X44635615Y-56320509D01*
X44640599Y-56315525D01*
X50503500Y-56315525D01*
X50503500Y-56460475D01*
X50541016Y-56600485D01*
X50541017Y-56600488D01*
X50613488Y-56726011D01*
X50613490Y-56726013D01*
X50613491Y-56726015D01*
X50715985Y-56828509D01*
X50715986Y-56828510D01*
X50715988Y-56828511D01*
X50841511Y-56900982D01*
X50841512Y-56900982D01*
X50841515Y-56900984D01*
X50981525Y-56938500D01*
X50981528Y-56938500D01*
X51126472Y-56938500D01*
X51126475Y-56938500D01*
X51266485Y-56900984D01*
X51392015Y-56828509D01*
X51494509Y-56726015D01*
X51566984Y-56600485D01*
X51604500Y-56460475D01*
X51604500Y-56315525D01*
X51566984Y-56175515D01*
X51519046Y-56092485D01*
X51494511Y-56049988D01*
X51494506Y-56049982D01*
X51392017Y-55947493D01*
X51392011Y-55947488D01*
X51266488Y-55875017D01*
X51266489Y-55875017D01*
X51255006Y-55871940D01*
X51126475Y-55837500D01*
X50981525Y-55837500D01*
X50852993Y-55871940D01*
X50841511Y-55875017D01*
X50715988Y-55947488D01*
X50715982Y-55947493D01*
X50613493Y-56049982D01*
X50613488Y-56049988D01*
X50541017Y-56175511D01*
X50541016Y-56175515D01*
X50503500Y-56315525D01*
X44640599Y-56315525D01*
X44738109Y-56218015D01*
X44810584Y-56092485D01*
X44848100Y-55952475D01*
X44848100Y-55807525D01*
X44810584Y-55667515D01*
X44802496Y-55653506D01*
X44775877Y-55607400D01*
X44775876Y-55607399D01*
X44772615Y-55601752D01*
X44744772Y-55553525D01*
X61933500Y-55553525D01*
X61933500Y-55698475D01*
X61962721Y-55807527D01*
X61971017Y-55838488D01*
X62043488Y-55964011D01*
X62043490Y-55964013D01*
X62043491Y-55964015D01*
X62145985Y-56066509D01*
X62145986Y-56066510D01*
X62145988Y-56066511D01*
X62271511Y-56138982D01*
X62271512Y-56138982D01*
X62271515Y-56138984D01*
X62411525Y-56176500D01*
X62411528Y-56176500D01*
X62556472Y-56176500D01*
X62556475Y-56176500D01*
X62696485Y-56138984D01*
X62822015Y-56066509D01*
X62924509Y-55964015D01*
X62996984Y-55838485D01*
X63034500Y-55698475D01*
X63034500Y-55553525D01*
X62996984Y-55413515D01*
X62970138Y-55367017D01*
X62924511Y-55287988D01*
X62924506Y-55287982D01*
X62822017Y-55185493D01*
X62822011Y-55185488D01*
X62744133Y-55140525D01*
X63933500Y-55140525D01*
X63933500Y-55285475D01*
X63967808Y-55413511D01*
X63971017Y-55425488D01*
X64043488Y-55551011D01*
X64043490Y-55551013D01*
X64043491Y-55551015D01*
X64145985Y-55653509D01*
X64145986Y-55653510D01*
X64145988Y-55653511D01*
X64271511Y-55725982D01*
X64271512Y-55725982D01*
X64271515Y-55725984D01*
X64411525Y-55763500D01*
X64411528Y-55763500D01*
X64556472Y-55763500D01*
X64556475Y-55763500D01*
X64696485Y-55725984D01*
X64822015Y-55653509D01*
X64924509Y-55551015D01*
X64996984Y-55425485D01*
X65034500Y-55285475D01*
X65034500Y-55140525D01*
X64996984Y-55000515D01*
X64967523Y-54949488D01*
X64924511Y-54874988D01*
X64924506Y-54874982D01*
X64822017Y-54772493D01*
X64822011Y-54772488D01*
X64696488Y-54700017D01*
X64696489Y-54700017D01*
X64685006Y-54696940D01*
X64556475Y-54662500D01*
X64411525Y-54662500D01*
X64282993Y-54696940D01*
X64271511Y-54700017D01*
X64145988Y-54772488D01*
X64145982Y-54772493D01*
X64043493Y-54874982D01*
X64043488Y-54874988D01*
X63971017Y-55000511D01*
X63971016Y-55000515D01*
X63933500Y-55140525D01*
X62744133Y-55140525D01*
X62696488Y-55113017D01*
X62696489Y-55113017D01*
X62685006Y-55109940D01*
X62556475Y-55075500D01*
X62411525Y-55075500D01*
X62282993Y-55109940D01*
X62271511Y-55113017D01*
X62145988Y-55185488D01*
X62145982Y-55185493D01*
X62043493Y-55287982D01*
X62043488Y-55287988D01*
X61971017Y-55413511D01*
X61971016Y-55413515D01*
X61933500Y-55553525D01*
X44744772Y-55553525D01*
X44738109Y-55541985D01*
X44635615Y-55439491D01*
X44635613Y-55439490D01*
X44635611Y-55439488D01*
X44510088Y-55367017D01*
X44510089Y-55367017D01*
X44498606Y-55363940D01*
X44370075Y-55329500D01*
X44225125Y-55329500D01*
X44096593Y-55363940D01*
X44085111Y-55367017D01*
X43959588Y-55439488D01*
X43959582Y-55439493D01*
X43857093Y-55541982D01*
X43857088Y-55541988D01*
X43784617Y-55667511D01*
X43784616Y-55667515D01*
X43747100Y-55807525D01*
X20100500Y-55807525D01*
X20100500Y-54664525D01*
X53551500Y-54664525D01*
X53551500Y-54809475D01*
X53589016Y-54949485D01*
X53589017Y-54949488D01*
X53661488Y-55075011D01*
X53661490Y-55075013D01*
X53661491Y-55075015D01*
X53763985Y-55177509D01*
X53763986Y-55177510D01*
X53763988Y-55177511D01*
X53889511Y-55249982D01*
X53889512Y-55249982D01*
X53889515Y-55249984D01*
X54029525Y-55287500D01*
X54029528Y-55287500D01*
X54174472Y-55287500D01*
X54174475Y-55287500D01*
X54314485Y-55249984D01*
X54440015Y-55177509D01*
X54542509Y-55075015D01*
X54614984Y-54949485D01*
X54652500Y-54809475D01*
X54652500Y-54664525D01*
X54614984Y-54524515D01*
X54542509Y-54398985D01*
X54440015Y-54296491D01*
X54440013Y-54296490D01*
X54440011Y-54296488D01*
X54314488Y-54224017D01*
X54314489Y-54224017D01*
X54303006Y-54220940D01*
X54174475Y-54186500D01*
X54029525Y-54186500D01*
X53900993Y-54220940D01*
X53889511Y-54224017D01*
X53763988Y-54296488D01*
X53763982Y-54296493D01*
X53661493Y-54398982D01*
X53661488Y-54398988D01*
X53589017Y-54524511D01*
X53589016Y-54524515D01*
X53551500Y-54664525D01*
X20100500Y-54664525D01*
X20100500Y-53648525D01*
X60917500Y-53648525D01*
X60917500Y-53793475D01*
X60955016Y-53933485D01*
X60955017Y-53933488D01*
X61027488Y-54059011D01*
X61027490Y-54059013D01*
X61027491Y-54059015D01*
X61129985Y-54161509D01*
X61129986Y-54161510D01*
X61129988Y-54161511D01*
X61255511Y-54233982D01*
X61255512Y-54233982D01*
X61255515Y-54233984D01*
X61395525Y-54271500D01*
X61395528Y-54271500D01*
X61540472Y-54271500D01*
X61540475Y-54271500D01*
X61680485Y-54233984D01*
X61806015Y-54161509D01*
X61908509Y-54059015D01*
X61980984Y-53933485D01*
X62018500Y-53793475D01*
X62018500Y-53648525D01*
X61980984Y-53508515D01*
X61908509Y-53382985D01*
X61806015Y-53280491D01*
X61806013Y-53280490D01*
X61806011Y-53280488D01*
X61680488Y-53208017D01*
X61680489Y-53208017D01*
X61669006Y-53204940D01*
X61540475Y-53170500D01*
X61395525Y-53170500D01*
X61266993Y-53204940D01*
X61255511Y-53208017D01*
X61129988Y-53280488D01*
X61129982Y-53280493D01*
X61027493Y-53382982D01*
X61027488Y-53382988D01*
X60955017Y-53508511D01*
X60955016Y-53508515D01*
X60917500Y-53648525D01*
X20100500Y-53648525D01*
X20100500Y-48887736D01*
X22656000Y-48887736D01*
X22656000Y-50883463D01*
X22656001Y-50883482D01*
X22662408Y-50943081D01*
X22712702Y-51077927D01*
X22712703Y-51077928D01*
X22712704Y-51077930D01*
X22798954Y-51193146D01*
X22914170Y-51279396D01*
X22914171Y-51279396D01*
X22914172Y-51279397D01*
X23049018Y-51329691D01*
X23049017Y-51329691D01*
X23055945Y-51330435D01*
X23108628Y-51336100D01*
X23108637Y-51336100D01*
X25104363Y-51336100D01*
X25104372Y-51336100D01*
X25163982Y-51329691D01*
X25298830Y-51279396D01*
X25414046Y-51193146D01*
X25500296Y-51077930D01*
X25550591Y-50943082D01*
X25557000Y-50883472D01*
X25557355Y-50880171D01*
X25558579Y-50880302D01*
X25580143Y-50819126D01*
X25635309Y-50776248D01*
X25704899Y-50770002D01*
X25766818Y-50802371D01*
X25768421Y-50803945D01*
X25823985Y-50859509D01*
X25823986Y-50859510D01*
X25823988Y-50859511D01*
X25949511Y-50931982D01*
X25949512Y-50931982D01*
X25949515Y-50931984D01*
X26089525Y-50969500D01*
X26089528Y-50969500D01*
X26234472Y-50969500D01*
X26234475Y-50969500D01*
X26374485Y-50931984D01*
X26500015Y-50859509D01*
X26602509Y-50757015D01*
X26674984Y-50631485D01*
X26712500Y-50491475D01*
X26712500Y-50346525D01*
X27262500Y-50346525D01*
X27262500Y-50491475D01*
X27299621Y-50630011D01*
X27300017Y-50631488D01*
X27372488Y-50757011D01*
X27372490Y-50757013D01*
X27372491Y-50757015D01*
X27474985Y-50859509D01*
X27474986Y-50859510D01*
X27474988Y-50859511D01*
X27600511Y-50931982D01*
X27600512Y-50931982D01*
X27600515Y-50931984D01*
X27740525Y-50969500D01*
X27740528Y-50969500D01*
X27885472Y-50969500D01*
X27885475Y-50969500D01*
X28025485Y-50931984D01*
X28151015Y-50859509D01*
X28253509Y-50757015D01*
X28325984Y-50631485D01*
X28363500Y-50491475D01*
X28363500Y-50346525D01*
X28329470Y-50219525D01*
X40470500Y-50219525D01*
X40470500Y-50364475D01*
X40504529Y-50491472D01*
X40508017Y-50504488D01*
X40580488Y-50630011D01*
X40580490Y-50630013D01*
X40580491Y-50630015D01*
X40682985Y-50732509D01*
X40682986Y-50732510D01*
X40682988Y-50732511D01*
X40808511Y-50804982D01*
X40808512Y-50804982D01*
X40808515Y-50804984D01*
X40948525Y-50842500D01*
X40948528Y-50842500D01*
X41093472Y-50842500D01*
X41093475Y-50842500D01*
X41233485Y-50804984D01*
X41359015Y-50732509D01*
X41461509Y-50630015D01*
X41533984Y-50504485D01*
X41571500Y-50364475D01*
X41571500Y-50219525D01*
X41994500Y-50219525D01*
X41994500Y-50364475D01*
X42028529Y-50491472D01*
X42032017Y-50504488D01*
X42104488Y-50630011D01*
X42104490Y-50630013D01*
X42104491Y-50630015D01*
X42206985Y-50732509D01*
X42206986Y-50732510D01*
X42206988Y-50732511D01*
X42332511Y-50804982D01*
X42332512Y-50804982D01*
X42332515Y-50804984D01*
X42472525Y-50842500D01*
X42472528Y-50842500D01*
X42617472Y-50842500D01*
X42617475Y-50842500D01*
X42757485Y-50804984D01*
X42883015Y-50732509D01*
X42985509Y-50630015D01*
X43057984Y-50504485D01*
X43095500Y-50364475D01*
X43095500Y-50219525D01*
X44407500Y-50219525D01*
X44407500Y-50364475D01*
X44441529Y-50491472D01*
X44445017Y-50504488D01*
X44517488Y-50630011D01*
X44517490Y-50630013D01*
X44517491Y-50630015D01*
X44619985Y-50732509D01*
X44619986Y-50732510D01*
X44619988Y-50732511D01*
X44745511Y-50804982D01*
X44745512Y-50804982D01*
X44745515Y-50804984D01*
X44885525Y-50842500D01*
X44885528Y-50842500D01*
X45030472Y-50842500D01*
X45030475Y-50842500D01*
X45170485Y-50804984D01*
X45296015Y-50732509D01*
X45398509Y-50630015D01*
X45470984Y-50504485D01*
X45508500Y-50364475D01*
X45508500Y-50219525D01*
X46439500Y-50219525D01*
X46439500Y-50364475D01*
X46473529Y-50491472D01*
X46477017Y-50504488D01*
X46549488Y-50630011D01*
X46549490Y-50630013D01*
X46549491Y-50630015D01*
X46651985Y-50732509D01*
X46651986Y-50732510D01*
X46651988Y-50732511D01*
X46777511Y-50804982D01*
X46777512Y-50804982D01*
X46777515Y-50804984D01*
X46917525Y-50842500D01*
X46917528Y-50842500D01*
X47062472Y-50842500D01*
X47062475Y-50842500D01*
X47202485Y-50804984D01*
X47328015Y-50732509D01*
X47430509Y-50630015D01*
X47502984Y-50504485D01*
X47540500Y-50364475D01*
X47540500Y-50219525D01*
X47502984Y-50079515D01*
X47476587Y-50033795D01*
X47430511Y-49953988D01*
X47430506Y-49953982D01*
X47328017Y-49851493D01*
X47328011Y-49851488D01*
X47202488Y-49779017D01*
X47202489Y-49779017D01*
X47191006Y-49775940D01*
X47062475Y-49741500D01*
X46917525Y-49741500D01*
X46788993Y-49775940D01*
X46777511Y-49779017D01*
X46651988Y-49851488D01*
X46651982Y-49851493D01*
X46549493Y-49953982D01*
X46549488Y-49953988D01*
X46477017Y-50079511D01*
X46477016Y-50079515D01*
X46439500Y-50219525D01*
X45508500Y-50219525D01*
X45470984Y-50079515D01*
X45444587Y-50033795D01*
X45398511Y-49953988D01*
X45398506Y-49953982D01*
X45296017Y-49851493D01*
X45296011Y-49851488D01*
X45170488Y-49779017D01*
X45170489Y-49779017D01*
X45159006Y-49775940D01*
X45030475Y-49741500D01*
X44885525Y-49741500D01*
X44756993Y-49775940D01*
X44745511Y-49779017D01*
X44619988Y-49851488D01*
X44619982Y-49851493D01*
X44517493Y-49953982D01*
X44517488Y-49953988D01*
X44445017Y-50079511D01*
X44445016Y-50079515D01*
X44407500Y-50219525D01*
X43095500Y-50219525D01*
X43057984Y-50079515D01*
X43031587Y-50033795D01*
X42985511Y-49953988D01*
X42985506Y-49953982D01*
X42883017Y-49851493D01*
X42883011Y-49851488D01*
X42757488Y-49779017D01*
X42757489Y-49779017D01*
X42746006Y-49775940D01*
X42617475Y-49741500D01*
X42472525Y-49741500D01*
X42343993Y-49775940D01*
X42332511Y-49779017D01*
X42206988Y-49851488D01*
X42206982Y-49851493D01*
X42104493Y-49953982D01*
X42104488Y-49953988D01*
X42032017Y-50079511D01*
X42032016Y-50079515D01*
X41994500Y-50219525D01*
X41571500Y-50219525D01*
X41533984Y-50079515D01*
X41507587Y-50033795D01*
X41461511Y-49953988D01*
X41461506Y-49953982D01*
X41359017Y-49851493D01*
X41359011Y-49851488D01*
X41233488Y-49779017D01*
X41233489Y-49779017D01*
X41222006Y-49775940D01*
X41093475Y-49741500D01*
X40948525Y-49741500D01*
X40819993Y-49775940D01*
X40808511Y-49779017D01*
X40682988Y-49851488D01*
X40682982Y-49851493D01*
X40580493Y-49953982D01*
X40580488Y-49953988D01*
X40508017Y-50079511D01*
X40508016Y-50079515D01*
X40470500Y-50219525D01*
X28329470Y-50219525D01*
X28325984Y-50206515D01*
X28253509Y-50080985D01*
X28151015Y-49978491D01*
X28151013Y-49978490D01*
X28151011Y-49978488D01*
X28025488Y-49906017D01*
X28025489Y-49906017D01*
X28014006Y-49902940D01*
X27885475Y-49868500D01*
X27740525Y-49868500D01*
X27611993Y-49902940D01*
X27600511Y-49906017D01*
X27474988Y-49978488D01*
X27474982Y-49978493D01*
X27372493Y-50080982D01*
X27372488Y-50080988D01*
X27300017Y-50206511D01*
X27300016Y-50206515D01*
X27262500Y-50346525D01*
X26712500Y-50346525D01*
X26674984Y-50206515D01*
X26602509Y-50080985D01*
X26500015Y-49978491D01*
X26500013Y-49978490D01*
X26500011Y-49978488D01*
X26374488Y-49906017D01*
X26374489Y-49906017D01*
X26363006Y-49902940D01*
X26234475Y-49868500D01*
X26089525Y-49868500D01*
X25960993Y-49902940D01*
X25949511Y-49906017D01*
X25823988Y-49978488D01*
X25823982Y-49978493D01*
X25768681Y-50033795D01*
X25707358Y-50067280D01*
X25637666Y-50062296D01*
X25581733Y-50020424D01*
X25557316Y-49954960D01*
X25557000Y-49946114D01*
X25557000Y-49494886D01*
X25576685Y-49427847D01*
X25629489Y-49382092D01*
X25698647Y-49372148D01*
X25762203Y-49401173D01*
X25768681Y-49407205D01*
X25823985Y-49462509D01*
X25823986Y-49462510D01*
X25823988Y-49462511D01*
X25949511Y-49534982D01*
X25949512Y-49534982D01*
X25949515Y-49534984D01*
X26089525Y-49572500D01*
X26089528Y-49572500D01*
X26234472Y-49572500D01*
X26234475Y-49572500D01*
X26374485Y-49534984D01*
X26500015Y-49462509D01*
X26602509Y-49360015D01*
X26674984Y-49234485D01*
X26712500Y-49094475D01*
X26712500Y-48949525D01*
X27262500Y-48949525D01*
X27262500Y-49094475D01*
X27300016Y-49234485D01*
X27300017Y-49234488D01*
X27372488Y-49360011D01*
X27372490Y-49360013D01*
X27372491Y-49360015D01*
X27474985Y-49462509D01*
X27474986Y-49462510D01*
X27474988Y-49462511D01*
X27600511Y-49534982D01*
X27600512Y-49534982D01*
X27600515Y-49534984D01*
X27740525Y-49572500D01*
X27740528Y-49572500D01*
X27885472Y-49572500D01*
X27885475Y-49572500D01*
X28025485Y-49534984D01*
X28151015Y-49462509D01*
X28253509Y-49360015D01*
X28325984Y-49234485D01*
X28363500Y-49094475D01*
X28363500Y-48949525D01*
X28786500Y-48949525D01*
X28786500Y-49094475D01*
X28824016Y-49234485D01*
X28824017Y-49234488D01*
X28896488Y-49360011D01*
X28896490Y-49360013D01*
X28896491Y-49360015D01*
X28998985Y-49462509D01*
X28998986Y-49462510D01*
X28998988Y-49462511D01*
X29124511Y-49534982D01*
X29124512Y-49534982D01*
X29124515Y-49534984D01*
X29264525Y-49572500D01*
X29264528Y-49572500D01*
X29409472Y-49572500D01*
X29409475Y-49572500D01*
X29549485Y-49534984D01*
X29675015Y-49462509D01*
X29777509Y-49360015D01*
X29849984Y-49234485D01*
X29887500Y-49094475D01*
X29887500Y-48949525D01*
X29849984Y-48809515D01*
X29818865Y-48755615D01*
X29815277Y-48749400D01*
X29815276Y-48749399D01*
X29793946Y-48712455D01*
X29784172Y-48695525D01*
X41740500Y-48695525D01*
X41740500Y-48840475D01*
X41769721Y-48949527D01*
X41778017Y-48980488D01*
X41850488Y-49106011D01*
X41850490Y-49106013D01*
X41850491Y-49106015D01*
X41952985Y-49208509D01*
X41952986Y-49208510D01*
X41952988Y-49208511D01*
X42078511Y-49280982D01*
X42078512Y-49280982D01*
X42078515Y-49280984D01*
X42218525Y-49318500D01*
X42218528Y-49318500D01*
X42363472Y-49318500D01*
X42363475Y-49318500D01*
X42503485Y-49280984D01*
X42629015Y-49208509D01*
X42731509Y-49106015D01*
X42803984Y-48980485D01*
X42841500Y-48840475D01*
X42841500Y-48695525D01*
X43518500Y-48695525D01*
X43518500Y-48840475D01*
X43547721Y-48949527D01*
X43556017Y-48980488D01*
X43628488Y-49106011D01*
X43628490Y-49106013D01*
X43628491Y-49106015D01*
X43730985Y-49208509D01*
X43730986Y-49208510D01*
X43730988Y-49208511D01*
X43856511Y-49280982D01*
X43856512Y-49280982D01*
X43856515Y-49280984D01*
X43996525Y-49318500D01*
X43996528Y-49318500D01*
X44141472Y-49318500D01*
X44141475Y-49318500D01*
X44281485Y-49280984D01*
X44407015Y-49208509D01*
X44509509Y-49106015D01*
X44581984Y-48980485D01*
X44619500Y-48840475D01*
X44619500Y-48695525D01*
X45169500Y-48695525D01*
X45169500Y-48840475D01*
X45198721Y-48949527D01*
X45207017Y-48980488D01*
X45279488Y-49106011D01*
X45279490Y-49106013D01*
X45279491Y-49106015D01*
X45381985Y-49208509D01*
X45381986Y-49208510D01*
X45381988Y-49208511D01*
X45507511Y-49280982D01*
X45507512Y-49280982D01*
X45507515Y-49280984D01*
X45647525Y-49318500D01*
X45647528Y-49318500D01*
X45792472Y-49318500D01*
X45792475Y-49318500D01*
X45932485Y-49280984D01*
X46058015Y-49208509D01*
X46160509Y-49106015D01*
X46232984Y-48980485D01*
X46270500Y-48840475D01*
X46270500Y-48695525D01*
X46820500Y-48695525D01*
X46820500Y-48840475D01*
X46849721Y-48949527D01*
X46858017Y-48980488D01*
X46930488Y-49106011D01*
X46930490Y-49106013D01*
X46930491Y-49106015D01*
X47032985Y-49208509D01*
X47032986Y-49208510D01*
X47032988Y-49208511D01*
X47158511Y-49280982D01*
X47158512Y-49280982D01*
X47158515Y-49280984D01*
X47298525Y-49318500D01*
X47298528Y-49318500D01*
X47443472Y-49318500D01*
X47443475Y-49318500D01*
X47583485Y-49280984D01*
X47709015Y-49208509D01*
X47811509Y-49106015D01*
X47883984Y-48980485D01*
X47921500Y-48840475D01*
X47921500Y-48712457D01*
X50455499Y-48712457D01*
X50483379Y-48852614D01*
X50483381Y-48852620D01*
X50538069Y-48984650D01*
X50538074Y-48984659D01*
X50617467Y-49103478D01*
X50617470Y-49103482D01*
X50718517Y-49204529D01*
X50718521Y-49204532D01*
X50837340Y-49283925D01*
X50837346Y-49283928D01*
X50837347Y-49283929D01*
X50969380Y-49338619D01*
X50969384Y-49338619D01*
X50969385Y-49338620D01*
X51109542Y-49366500D01*
X51109545Y-49366500D01*
X51252457Y-49366500D01*
X51346751Y-49347742D01*
X51392620Y-49338619D01*
X51524653Y-49283929D01*
X51643479Y-49204532D01*
X51744532Y-49103479D01*
X51823929Y-48984653D01*
X51878619Y-48852620D01*
X51899151Y-48749400D01*
X51906500Y-48712457D01*
X51906500Y-48569542D01*
X51878620Y-48429385D01*
X51878619Y-48429384D01*
X51878619Y-48429380D01*
X51823929Y-48297347D01*
X51823928Y-48297346D01*
X51823925Y-48297340D01*
X51744532Y-48178521D01*
X51744529Y-48178517D01*
X51643482Y-48077470D01*
X51643478Y-48077467D01*
X51524659Y-47998074D01*
X51524650Y-47998069D01*
X51392620Y-47943381D01*
X51392614Y-47943379D01*
X51252457Y-47915500D01*
X51252455Y-47915500D01*
X51109545Y-47915500D01*
X51109543Y-47915500D01*
X50969385Y-47943379D01*
X50969379Y-47943381D01*
X50837349Y-47998069D01*
X50837340Y-47998074D01*
X50718521Y-48077467D01*
X50718517Y-48077470D01*
X50617470Y-48178517D01*
X50617467Y-48178521D01*
X50538074Y-48297340D01*
X50538069Y-48297349D01*
X50483381Y-48429379D01*
X50483379Y-48429385D01*
X50455500Y-48569542D01*
X50455500Y-48569545D01*
X50455500Y-48712455D01*
X50455500Y-48712457D01*
X50455499Y-48712457D01*
X47921500Y-48712457D01*
X47921500Y-48695525D01*
X47883984Y-48555515D01*
X47857138Y-48509017D01*
X47811511Y-48429988D01*
X47811506Y-48429982D01*
X47709017Y-48327493D01*
X47709011Y-48327488D01*
X47583488Y-48255017D01*
X47583489Y-48255017D01*
X47572006Y-48251940D01*
X47443475Y-48217500D01*
X47298525Y-48217500D01*
X47169993Y-48251940D01*
X47158511Y-48255017D01*
X47032988Y-48327488D01*
X47032982Y-48327493D01*
X46930493Y-48429982D01*
X46930488Y-48429988D01*
X46858017Y-48555511D01*
X46858016Y-48555515D01*
X46820500Y-48695525D01*
X46270500Y-48695525D01*
X46232984Y-48555515D01*
X46206138Y-48509017D01*
X46160511Y-48429988D01*
X46160506Y-48429982D01*
X46058017Y-48327493D01*
X46058011Y-48327488D01*
X45932488Y-48255017D01*
X45932489Y-48255017D01*
X45921006Y-48251940D01*
X45792475Y-48217500D01*
X45647525Y-48217500D01*
X45518993Y-48251940D01*
X45507511Y-48255017D01*
X45381988Y-48327488D01*
X45381982Y-48327493D01*
X45279493Y-48429982D01*
X45279488Y-48429988D01*
X45207017Y-48555511D01*
X45207016Y-48555515D01*
X45169500Y-48695525D01*
X44619500Y-48695525D01*
X44581984Y-48555515D01*
X44555138Y-48509017D01*
X44509511Y-48429988D01*
X44509506Y-48429982D01*
X44407017Y-48327493D01*
X44407011Y-48327488D01*
X44281488Y-48255017D01*
X44281489Y-48255017D01*
X44270006Y-48251940D01*
X44141475Y-48217500D01*
X43996525Y-48217500D01*
X43867993Y-48251940D01*
X43856511Y-48255017D01*
X43730988Y-48327488D01*
X43730982Y-48327493D01*
X43628493Y-48429982D01*
X43628488Y-48429988D01*
X43556017Y-48555511D01*
X43556016Y-48555515D01*
X43518500Y-48695525D01*
X42841500Y-48695525D01*
X42803984Y-48555515D01*
X42777138Y-48509017D01*
X42731511Y-48429988D01*
X42731506Y-48429982D01*
X42629017Y-48327493D01*
X42629011Y-48327488D01*
X42503488Y-48255017D01*
X42503489Y-48255017D01*
X42492006Y-48251940D01*
X42363475Y-48217500D01*
X42218525Y-48217500D01*
X42089993Y-48251940D01*
X42078511Y-48255017D01*
X41952988Y-48327488D01*
X41952982Y-48327493D01*
X41850493Y-48429982D01*
X41850488Y-48429988D01*
X41778017Y-48555511D01*
X41778016Y-48555515D01*
X41740500Y-48695525D01*
X29784172Y-48695525D01*
X29777509Y-48683985D01*
X29675015Y-48581491D01*
X29675013Y-48581490D01*
X29675011Y-48581488D01*
X29549488Y-48509017D01*
X29549489Y-48509017D01*
X29538006Y-48505940D01*
X29409475Y-48471500D01*
X29264525Y-48471500D01*
X29135993Y-48505940D01*
X29124511Y-48509017D01*
X28998988Y-48581488D01*
X28998982Y-48581493D01*
X28896493Y-48683982D01*
X28896488Y-48683988D01*
X28824017Y-48809511D01*
X28824016Y-48809515D01*
X28786500Y-48949525D01*
X28363500Y-48949525D01*
X28325984Y-48809515D01*
X28291276Y-48749400D01*
X28253511Y-48683988D01*
X28253506Y-48683982D01*
X28151017Y-48581493D01*
X28151011Y-48581488D01*
X28025488Y-48509017D01*
X28025489Y-48509017D01*
X28014006Y-48505940D01*
X27885475Y-48471500D01*
X27740525Y-48471500D01*
X27611993Y-48505940D01*
X27600511Y-48509017D01*
X27474988Y-48581488D01*
X27474982Y-48581493D01*
X27372493Y-48683982D01*
X27372488Y-48683988D01*
X27300017Y-48809511D01*
X27300016Y-48809515D01*
X27262500Y-48949525D01*
X26712500Y-48949525D01*
X26674984Y-48809515D01*
X26640276Y-48749400D01*
X26602511Y-48683988D01*
X26602506Y-48683982D01*
X26500017Y-48581493D01*
X26500011Y-48581488D01*
X26374488Y-48509017D01*
X26374489Y-48509017D01*
X26363006Y-48505940D01*
X26234475Y-48471500D01*
X26089525Y-48471500D01*
X25960993Y-48505940D01*
X25949511Y-48509017D01*
X25823988Y-48581488D01*
X25823982Y-48581493D01*
X25721493Y-48683982D01*
X25721486Y-48683991D01*
X25715604Y-48694180D01*
X25665036Y-48742394D01*
X25596428Y-48755615D01*
X25531564Y-48729645D01*
X25506339Y-48699824D01*
X25505611Y-48700370D01*
X25493350Y-48683991D01*
X25414046Y-48578054D01*
X25298830Y-48491804D01*
X25298828Y-48491803D01*
X25298827Y-48491802D01*
X25163981Y-48441508D01*
X25163982Y-48441508D01*
X25104382Y-48435101D01*
X25104380Y-48435100D01*
X25104372Y-48435100D01*
X23108628Y-48435100D01*
X23108620Y-48435100D01*
X23108617Y-48435101D01*
X23049018Y-48441508D01*
X22914172Y-48491802D01*
X22914170Y-48491804D01*
X22798954Y-48578054D01*
X22712704Y-48693270D01*
X22712702Y-48693272D01*
X22662408Y-48828118D01*
X22656001Y-48887717D01*
X22656000Y-48887736D01*
X20100500Y-48887736D01*
X20100500Y-47527525D01*
X23849500Y-47527525D01*
X23849500Y-47672475D01*
X23887016Y-47812485D01*
X23887017Y-47812488D01*
X23959488Y-47938011D01*
X23959490Y-47938013D01*
X23959491Y-47938015D01*
X24061985Y-48040509D01*
X24061986Y-48040510D01*
X24061988Y-48040511D01*
X24187511Y-48112982D01*
X24187512Y-48112982D01*
X24187515Y-48112984D01*
X24327525Y-48150500D01*
X24327528Y-48150500D01*
X24472472Y-48150500D01*
X24472475Y-48150500D01*
X24612485Y-48112984D01*
X24738015Y-48040509D01*
X24840509Y-47938015D01*
X24912984Y-47812485D01*
X24950500Y-47672475D01*
X24950500Y-47552525D01*
X25611500Y-47552525D01*
X25611500Y-47697475D01*
X25642317Y-47812485D01*
X25649017Y-47837488D01*
X25721488Y-47963011D01*
X25721490Y-47963013D01*
X25721491Y-47963015D01*
X25823985Y-48065509D01*
X25823986Y-48065510D01*
X25823988Y-48065511D01*
X25949511Y-48137982D01*
X25949512Y-48137982D01*
X25949515Y-48137984D01*
X26089525Y-48175500D01*
X26089528Y-48175500D01*
X26234472Y-48175500D01*
X26234475Y-48175500D01*
X26374485Y-48137984D01*
X26500015Y-48065509D01*
X26602509Y-47963015D01*
X26674984Y-47837485D01*
X26712500Y-47697475D01*
X26712500Y-47552525D01*
X27262500Y-47552525D01*
X27262500Y-47697475D01*
X27293317Y-47812485D01*
X27300017Y-47837488D01*
X27372488Y-47963011D01*
X27372490Y-47963013D01*
X27372491Y-47963015D01*
X27474985Y-48065509D01*
X27474986Y-48065510D01*
X27474988Y-48065511D01*
X27600511Y-48137982D01*
X27600512Y-48137982D01*
X27600515Y-48137984D01*
X27740525Y-48175500D01*
X27740528Y-48175500D01*
X27885472Y-48175500D01*
X27885475Y-48175500D01*
X28025485Y-48137984D01*
X28151015Y-48065509D01*
X28253509Y-47963015D01*
X28325984Y-47837485D01*
X28363500Y-47697475D01*
X28363500Y-47552525D01*
X28786500Y-47552525D01*
X28786500Y-47697475D01*
X28817317Y-47812485D01*
X28824017Y-47837488D01*
X28896488Y-47963011D01*
X28896490Y-47963013D01*
X28896491Y-47963015D01*
X28998985Y-48065509D01*
X28998986Y-48065510D01*
X28998988Y-48065511D01*
X29124511Y-48137982D01*
X29124512Y-48137982D01*
X29124515Y-48137984D01*
X29264525Y-48175500D01*
X29264528Y-48175500D01*
X29409472Y-48175500D01*
X29409475Y-48175500D01*
X29549485Y-48137984D01*
X29675015Y-48065509D01*
X29777509Y-47963015D01*
X29849984Y-47837485D01*
X29887500Y-47697475D01*
X29887500Y-47552525D01*
X29849984Y-47412515D01*
X29835550Y-47387515D01*
X29777511Y-47286988D01*
X29777506Y-47286982D01*
X29675017Y-47184493D01*
X29675011Y-47184488D01*
X29549488Y-47112017D01*
X29549489Y-47112017D01*
X29538006Y-47108940D01*
X29409475Y-47074500D01*
X29264525Y-47074500D01*
X29135993Y-47108940D01*
X29124511Y-47112017D01*
X28998988Y-47184488D01*
X28998982Y-47184493D01*
X28896493Y-47286982D01*
X28896488Y-47286988D01*
X28824017Y-47412511D01*
X28824016Y-47412515D01*
X28786500Y-47552525D01*
X28363500Y-47552525D01*
X28325984Y-47412515D01*
X28311550Y-47387515D01*
X28253511Y-47286988D01*
X28253506Y-47286982D01*
X28151017Y-47184493D01*
X28151011Y-47184488D01*
X28025488Y-47112017D01*
X28025489Y-47112017D01*
X28014006Y-47108940D01*
X27885475Y-47074500D01*
X27740525Y-47074500D01*
X27611993Y-47108940D01*
X27600511Y-47112017D01*
X27474988Y-47184488D01*
X27474982Y-47184493D01*
X27372493Y-47286982D01*
X27372488Y-47286988D01*
X27300017Y-47412511D01*
X27300016Y-47412515D01*
X27262500Y-47552525D01*
X26712500Y-47552525D01*
X26674984Y-47412515D01*
X26660550Y-47387515D01*
X26602511Y-47286988D01*
X26602506Y-47286982D01*
X26500017Y-47184493D01*
X26500011Y-47184488D01*
X26374488Y-47112017D01*
X26374489Y-47112017D01*
X26363006Y-47108940D01*
X26234475Y-47074500D01*
X26089525Y-47074500D01*
X25960993Y-47108940D01*
X25949511Y-47112017D01*
X25823988Y-47184488D01*
X25823982Y-47184493D01*
X25721493Y-47286982D01*
X25721488Y-47286988D01*
X25649017Y-47412511D01*
X25649016Y-47412515D01*
X25611500Y-47552525D01*
X24950500Y-47552525D01*
X24950500Y-47527525D01*
X24912984Y-47387515D01*
X24840509Y-47261985D01*
X24738015Y-47159491D01*
X24738013Y-47159490D01*
X24738011Y-47159488D01*
X24612488Y-47087017D01*
X24612489Y-47087017D01*
X24601006Y-47083940D01*
X24472475Y-47049500D01*
X24327525Y-47049500D01*
X24198993Y-47083940D01*
X24187511Y-47087017D01*
X24061988Y-47159488D01*
X24061982Y-47159493D01*
X23959493Y-47261982D01*
X23959488Y-47261988D01*
X23887017Y-47387511D01*
X23887016Y-47387515D01*
X23849500Y-47527525D01*
X20100500Y-47527525D01*
X20100500Y-41627525D01*
X27549500Y-41627525D01*
X27549500Y-41772475D01*
X27570407Y-41850500D01*
X27587017Y-41912488D01*
X27659488Y-42038011D01*
X27659490Y-42038013D01*
X27659491Y-42038015D01*
X27761985Y-42140509D01*
X27761988Y-42140511D01*
X27768434Y-42145457D01*
X27767437Y-42146755D01*
X27809081Y-42190432D01*
X27822302Y-42259040D01*
X27796332Y-42323904D01*
X27786546Y-42334930D01*
X27709488Y-42411988D01*
X27637017Y-42537511D01*
X27637016Y-42537515D01*
X27599500Y-42677525D01*
X27599500Y-42822475D01*
X27626241Y-42922272D01*
X27637017Y-42962488D01*
X27709488Y-43088011D01*
X27709490Y-43088013D01*
X27709491Y-43088015D01*
X27811985Y-43190509D01*
X27842653Y-43208215D01*
X27890867Y-43258780D01*
X27904091Y-43327387D01*
X27878123Y-43392252D01*
X27867121Y-43403133D01*
X27867732Y-43403744D01*
X27759493Y-43511982D01*
X27759488Y-43511988D01*
X27687017Y-43637511D01*
X27687016Y-43637515D01*
X27649500Y-43777525D01*
X27649500Y-43922475D01*
X27687016Y-44062485D01*
X27687017Y-44062488D01*
X27759488Y-44188011D01*
X27759490Y-44188013D01*
X27759491Y-44188015D01*
X27861985Y-44290509D01*
X27861986Y-44290510D01*
X27861988Y-44290511D01*
X27987511Y-44362982D01*
X27987512Y-44362982D01*
X27987515Y-44362984D01*
X28127525Y-44400500D01*
X28127528Y-44400500D01*
X28272472Y-44400500D01*
X28272475Y-44400500D01*
X28412485Y-44362984D01*
X28538015Y-44290509D01*
X28538019Y-44290504D01*
X28544461Y-44285562D01*
X28545403Y-44286790D01*
X28598642Y-44257720D01*
X28668334Y-44262704D01*
X28704997Y-44286267D01*
X28705539Y-44285562D01*
X28711988Y-44290511D01*
X28837511Y-44362982D01*
X28837512Y-44362982D01*
X28837515Y-44362984D01*
X28977525Y-44400500D01*
X28977528Y-44400500D01*
X29122472Y-44400500D01*
X29122475Y-44400500D01*
X29262485Y-44362984D01*
X29388015Y-44290509D01*
X29490509Y-44188015D01*
X29562984Y-44062485D01*
X29600500Y-43922475D01*
X29600500Y-43777525D01*
X29562984Y-43637515D01*
X29490509Y-43511985D01*
X29388015Y-43409491D01*
X29357346Y-43391784D01*
X29309132Y-43341218D01*
X29295908Y-43272611D01*
X29321876Y-43207747D01*
X29332887Y-43196875D01*
X29332268Y-43196256D01*
X29340713Y-43187811D01*
X29440509Y-43088015D01*
X29512984Y-42962485D01*
X29550500Y-42822475D01*
X29550500Y-42777325D01*
X33409300Y-42777325D01*
X33409300Y-42922275D01*
X33446816Y-43062285D01*
X33446817Y-43062288D01*
X33519288Y-43187811D01*
X33519290Y-43187813D01*
X33519291Y-43187815D01*
X33621785Y-43290309D01*
X33621786Y-43290310D01*
X33621788Y-43290311D01*
X33747311Y-43362782D01*
X33747312Y-43362782D01*
X33747315Y-43362784D01*
X33887325Y-43400300D01*
X33887328Y-43400300D01*
X34032272Y-43400300D01*
X34032275Y-43400300D01*
X34172285Y-43362784D01*
X34297815Y-43290309D01*
X34400309Y-43187815D01*
X34472784Y-43062285D01*
X34510300Y-42922275D01*
X34510300Y-42777325D01*
X34489882Y-42701125D01*
X35669900Y-42701125D01*
X35669900Y-42846075D01*
X35701093Y-42962488D01*
X35707417Y-42986088D01*
X35779888Y-43111611D01*
X35779890Y-43111613D01*
X35779891Y-43111615D01*
X35882385Y-43214109D01*
X35882386Y-43214110D01*
X35882388Y-43214111D01*
X36007911Y-43286582D01*
X36007912Y-43286582D01*
X36007915Y-43286584D01*
X36147925Y-43324100D01*
X36147928Y-43324100D01*
X36292872Y-43324100D01*
X36292875Y-43324100D01*
X36432885Y-43286584D01*
X36558415Y-43214109D01*
X36660909Y-43111615D01*
X36733384Y-42986085D01*
X36770900Y-42846075D01*
X36770900Y-42701125D01*
X37676500Y-42701125D01*
X37676500Y-42846075D01*
X37707693Y-42962488D01*
X37714017Y-42986088D01*
X37786488Y-43111611D01*
X37786490Y-43111613D01*
X37786491Y-43111615D01*
X37888985Y-43214109D01*
X37888986Y-43214110D01*
X37888988Y-43214111D01*
X38014511Y-43286582D01*
X38014512Y-43286582D01*
X38014515Y-43286584D01*
X38154525Y-43324100D01*
X38154528Y-43324100D01*
X38299472Y-43324100D01*
X38299475Y-43324100D01*
X38439485Y-43286584D01*
X38565015Y-43214109D01*
X38667509Y-43111615D01*
X38739984Y-42986085D01*
X38777500Y-42846075D01*
X38777500Y-42701125D01*
X38757779Y-42627525D01*
X39249500Y-42627525D01*
X39249500Y-42772475D01*
X39287016Y-42912485D01*
X39287017Y-42912488D01*
X39359488Y-43038011D01*
X39359490Y-43038013D01*
X39359491Y-43038015D01*
X39461985Y-43140509D01*
X39461986Y-43140510D01*
X39461988Y-43140511D01*
X39587511Y-43212982D01*
X39587512Y-43212982D01*
X39587515Y-43212984D01*
X39727525Y-43250500D01*
X39727528Y-43250500D01*
X39872472Y-43250500D01*
X39872475Y-43250500D01*
X40012485Y-43212984D01*
X40138015Y-43140509D01*
X40240509Y-43038015D01*
X40312984Y-42912485D01*
X40350500Y-42772475D01*
X40350500Y-42627525D01*
X40312984Y-42487515D01*
X40283000Y-42435582D01*
X40240511Y-42361988D01*
X40240506Y-42361982D01*
X40138017Y-42259493D01*
X40138011Y-42259488D01*
X40012488Y-42187017D01*
X40012489Y-42187017D01*
X39992519Y-42181666D01*
X39872475Y-42149500D01*
X39727525Y-42149500D01*
X39607481Y-42181666D01*
X39587511Y-42187017D01*
X39461988Y-42259488D01*
X39461982Y-42259493D01*
X39359493Y-42361982D01*
X39359488Y-42361988D01*
X39287017Y-42487511D01*
X39287016Y-42487515D01*
X39249500Y-42627525D01*
X38757779Y-42627525D01*
X38739984Y-42561115D01*
X38726358Y-42537515D01*
X38667511Y-42435588D01*
X38667506Y-42435582D01*
X38565017Y-42333093D01*
X38565011Y-42333088D01*
X38439488Y-42260617D01*
X38439489Y-42260617D01*
X38404934Y-42251358D01*
X38299475Y-42223100D01*
X38154525Y-42223100D01*
X38049066Y-42251358D01*
X38014511Y-42260617D01*
X37888988Y-42333088D01*
X37888982Y-42333093D01*
X37786493Y-42435582D01*
X37786488Y-42435588D01*
X37714017Y-42561111D01*
X37714016Y-42561115D01*
X37676500Y-42701125D01*
X36770900Y-42701125D01*
X36733384Y-42561115D01*
X36719758Y-42537515D01*
X36660911Y-42435588D01*
X36660906Y-42435582D01*
X36558417Y-42333093D01*
X36558411Y-42333088D01*
X36432888Y-42260617D01*
X36432889Y-42260617D01*
X36398334Y-42251358D01*
X36292875Y-42223100D01*
X36147925Y-42223100D01*
X36042466Y-42251358D01*
X36007911Y-42260617D01*
X35882388Y-42333088D01*
X35882382Y-42333093D01*
X35779893Y-42435582D01*
X35779888Y-42435588D01*
X35707417Y-42561111D01*
X35707416Y-42561115D01*
X35669900Y-42701125D01*
X34489882Y-42701125D01*
X34472784Y-42637315D01*
X34428787Y-42561111D01*
X34400311Y-42511788D01*
X34400306Y-42511782D01*
X34297817Y-42409293D01*
X34297811Y-42409288D01*
X34172288Y-42336817D01*
X34172289Y-42336817D01*
X34158372Y-42333088D01*
X34032275Y-42299300D01*
X33887325Y-42299300D01*
X33761228Y-42333088D01*
X33747311Y-42336817D01*
X33621788Y-42409288D01*
X33621782Y-42409293D01*
X33519293Y-42511782D01*
X33519288Y-42511788D01*
X33446817Y-42637311D01*
X33446816Y-42637315D01*
X33409300Y-42777325D01*
X29550500Y-42777325D01*
X29550500Y-42677525D01*
X29512984Y-42537515D01*
X29498130Y-42511788D01*
X29440511Y-42411988D01*
X29440506Y-42411982D01*
X29341205Y-42312681D01*
X29307720Y-42251358D01*
X29312704Y-42181666D01*
X29341205Y-42137319D01*
X29440509Y-42038015D01*
X29512984Y-41912485D01*
X29550500Y-41772475D01*
X29550500Y-41627525D01*
X29512984Y-41487515D01*
X29512968Y-41487488D01*
X29440511Y-41361988D01*
X29440506Y-41361982D01*
X29338017Y-41259493D01*
X29338011Y-41259488D01*
X29239349Y-41202525D01*
X33485500Y-41202525D01*
X33485500Y-41347475D01*
X33493793Y-41378423D01*
X33523017Y-41487488D01*
X33595488Y-41613011D01*
X33595490Y-41613013D01*
X33595491Y-41613015D01*
X33697985Y-41715509D01*
X33697986Y-41715510D01*
X33697988Y-41715511D01*
X33823511Y-41787982D01*
X33823512Y-41787982D01*
X33823515Y-41787984D01*
X33963525Y-41825500D01*
X33963528Y-41825500D01*
X34108472Y-41825500D01*
X34108475Y-41825500D01*
X34248485Y-41787984D01*
X34374015Y-41715509D01*
X34476509Y-41613015D01*
X34548984Y-41487485D01*
X34586500Y-41347475D01*
X34586500Y-41202525D01*
X35644500Y-41202525D01*
X35644500Y-41347475D01*
X35652793Y-41378423D01*
X35682017Y-41487488D01*
X35754488Y-41613011D01*
X35754490Y-41613013D01*
X35754491Y-41613015D01*
X35856985Y-41715509D01*
X35856986Y-41715510D01*
X35856988Y-41715511D01*
X35982511Y-41787982D01*
X35982512Y-41787982D01*
X35982515Y-41787984D01*
X36122525Y-41825500D01*
X36122528Y-41825500D01*
X36267472Y-41825500D01*
X36267475Y-41825500D01*
X36407485Y-41787984D01*
X36533015Y-41715509D01*
X36635509Y-41613015D01*
X36707984Y-41487485D01*
X36745500Y-41347475D01*
X36745500Y-41202525D01*
X37676500Y-41202525D01*
X37676500Y-41347475D01*
X37684793Y-41378423D01*
X37714017Y-41487488D01*
X37786488Y-41613011D01*
X37786490Y-41613013D01*
X37786491Y-41613015D01*
X37888985Y-41715509D01*
X37888986Y-41715510D01*
X37888988Y-41715511D01*
X38014511Y-41787982D01*
X38014512Y-41787982D01*
X38014515Y-41787984D01*
X38154525Y-41825500D01*
X38154528Y-41825500D01*
X38299472Y-41825500D01*
X38299475Y-41825500D01*
X38439485Y-41787984D01*
X38565015Y-41715509D01*
X38667509Y-41613015D01*
X38739984Y-41487485D01*
X38777500Y-41347475D01*
X38777500Y-41227525D01*
X39249500Y-41227525D01*
X39249500Y-41372475D01*
X39287016Y-41512485D01*
X39287017Y-41512488D01*
X39359488Y-41638011D01*
X39359490Y-41638013D01*
X39359491Y-41638015D01*
X39461985Y-41740509D01*
X39461986Y-41740510D01*
X39461988Y-41740511D01*
X39587511Y-41812982D01*
X39587512Y-41812982D01*
X39587515Y-41812984D01*
X39727525Y-41850500D01*
X39727528Y-41850500D01*
X39872472Y-41850500D01*
X39872475Y-41850500D01*
X40012485Y-41812984D01*
X40138015Y-41740509D01*
X40240509Y-41638015D01*
X40312984Y-41512485D01*
X40350500Y-41372475D01*
X40350500Y-41227525D01*
X40312984Y-41087515D01*
X40298550Y-41062515D01*
X40240511Y-40961988D01*
X40240506Y-40961982D01*
X40138017Y-40859493D01*
X40138011Y-40859488D01*
X40012488Y-40787017D01*
X40012489Y-40787017D01*
X40001006Y-40783940D01*
X39872475Y-40749500D01*
X39727525Y-40749500D01*
X39598993Y-40783940D01*
X39587511Y-40787017D01*
X39461988Y-40859488D01*
X39461982Y-40859493D01*
X39359493Y-40961982D01*
X39359488Y-40961988D01*
X39287017Y-41087511D01*
X39287016Y-41087515D01*
X39249500Y-41227525D01*
X38777500Y-41227525D01*
X38777500Y-41202525D01*
X38739984Y-41062515D01*
X38667509Y-40936985D01*
X38565015Y-40834491D01*
X38565013Y-40834490D01*
X38565011Y-40834488D01*
X38439488Y-40762017D01*
X38439489Y-40762017D01*
X38428006Y-40758940D01*
X38299475Y-40724500D01*
X38154525Y-40724500D01*
X38025993Y-40758940D01*
X38014511Y-40762017D01*
X37888988Y-40834488D01*
X37888982Y-40834493D01*
X37786493Y-40936982D01*
X37786488Y-40936988D01*
X37714017Y-41062511D01*
X37714016Y-41062515D01*
X37676500Y-41202525D01*
X36745500Y-41202525D01*
X36707984Y-41062515D01*
X36635509Y-40936985D01*
X36533015Y-40834491D01*
X36533013Y-40834490D01*
X36533011Y-40834488D01*
X36407488Y-40762017D01*
X36407489Y-40762017D01*
X36396006Y-40758940D01*
X36267475Y-40724500D01*
X36122525Y-40724500D01*
X35993993Y-40758940D01*
X35982511Y-40762017D01*
X35856988Y-40834488D01*
X35856982Y-40834493D01*
X35754493Y-40936982D01*
X35754488Y-40936988D01*
X35682017Y-41062511D01*
X35682016Y-41062515D01*
X35644500Y-41202525D01*
X34586500Y-41202525D01*
X34548984Y-41062515D01*
X34476509Y-40936985D01*
X34374015Y-40834491D01*
X34374013Y-40834490D01*
X34374011Y-40834488D01*
X34248488Y-40762017D01*
X34248489Y-40762017D01*
X34237006Y-40758940D01*
X34108475Y-40724500D01*
X33963525Y-40724500D01*
X33834993Y-40758940D01*
X33823511Y-40762017D01*
X33697988Y-40834488D01*
X33697982Y-40834493D01*
X33595493Y-40936982D01*
X33595488Y-40936988D01*
X33523017Y-41062511D01*
X33523016Y-41062515D01*
X33485500Y-41202525D01*
X29239349Y-41202525D01*
X29212488Y-41187017D01*
X29212489Y-41187017D01*
X29201006Y-41183940D01*
X29072475Y-41149500D01*
X28927525Y-41149500D01*
X28798993Y-41183940D01*
X28787511Y-41187017D01*
X28661988Y-41259488D01*
X28637680Y-41283796D01*
X28576356Y-41317280D01*
X28506665Y-41312294D01*
X28462320Y-41283796D01*
X28438015Y-41259491D01*
X28438012Y-41259489D01*
X28438011Y-41259488D01*
X28312488Y-41187017D01*
X28312489Y-41187017D01*
X28301006Y-41183940D01*
X28172475Y-41149500D01*
X28027525Y-41149500D01*
X27898993Y-41183940D01*
X27887511Y-41187017D01*
X27761988Y-41259488D01*
X27761982Y-41259493D01*
X27659493Y-41361982D01*
X27659488Y-41361988D01*
X27587017Y-41487511D01*
X27587016Y-41487515D01*
X27549500Y-41627525D01*
X20100500Y-41627525D01*
X20100500Y-37077525D01*
X21420500Y-37077525D01*
X21420500Y-37222475D01*
X21458016Y-37362485D01*
X21458017Y-37362488D01*
X21530488Y-37488011D01*
X21530490Y-37488013D01*
X21530491Y-37488015D01*
X21632985Y-37590509D01*
X21632986Y-37590510D01*
X21632988Y-37590511D01*
X21758511Y-37662982D01*
X21758512Y-37662982D01*
X21758515Y-37662984D01*
X21837362Y-37684111D01*
X21897020Y-37720475D01*
X21927549Y-37783322D01*
X21919254Y-37852698D01*
X21874769Y-37906576D01*
X21837361Y-37923659D01*
X21787516Y-37937015D01*
X21787511Y-37937017D01*
X21661988Y-38009488D01*
X21661982Y-38009493D01*
X21559493Y-38111982D01*
X21559488Y-38111988D01*
X21487017Y-38237511D01*
X21487016Y-38237515D01*
X21449500Y-38377525D01*
X21449500Y-38522475D01*
X21468725Y-38594222D01*
X21487017Y-38662488D01*
X21559488Y-38788011D01*
X21559490Y-38788013D01*
X21559491Y-38788015D01*
X21661985Y-38890509D01*
X21661986Y-38890510D01*
X21661988Y-38890511D01*
X21787511Y-38962982D01*
X21787512Y-38962982D01*
X21787515Y-38962984D01*
X21927525Y-39000500D01*
X21927528Y-39000500D01*
X22072472Y-39000500D01*
X22072475Y-39000500D01*
X22212485Y-38962984D01*
X22338015Y-38890509D01*
X22440509Y-38788015D01*
X22512984Y-38662485D01*
X22550500Y-38522475D01*
X22550500Y-38377525D01*
X22512984Y-38237515D01*
X22481932Y-38183732D01*
X22440511Y-38111988D01*
X22440506Y-38111982D01*
X22338017Y-38009493D01*
X22338011Y-38009488D01*
X22212488Y-37937017D01*
X22212484Y-37937015D01*
X22133638Y-37915888D01*
X22073978Y-37879523D01*
X22043450Y-37816676D01*
X22051745Y-37747300D01*
X22096231Y-37693423D01*
X22133636Y-37676340D01*
X22183485Y-37662984D01*
X22309015Y-37590509D01*
X22411509Y-37488015D01*
X22483984Y-37362485D01*
X22521500Y-37222475D01*
X22521500Y-37077525D01*
X23149500Y-37077525D01*
X23149500Y-37222475D01*
X23187016Y-37362485D01*
X23187017Y-37362488D01*
X23259488Y-37488011D01*
X23259490Y-37488013D01*
X23259491Y-37488015D01*
X23361985Y-37590509D01*
X23361986Y-37590510D01*
X23361988Y-37590511D01*
X23487511Y-37662982D01*
X23487512Y-37662982D01*
X23487515Y-37662984D01*
X23551861Y-37680225D01*
X23611520Y-37716591D01*
X23642049Y-37779438D01*
X23633754Y-37848813D01*
X23589268Y-37902691D01*
X23551862Y-37919774D01*
X23497516Y-37934336D01*
X23487511Y-37937017D01*
X23361988Y-38009488D01*
X23361982Y-38009493D01*
X23259493Y-38111982D01*
X23259488Y-38111988D01*
X23187017Y-38237511D01*
X23187016Y-38237515D01*
X23149500Y-38377525D01*
X23149500Y-38522475D01*
X23168725Y-38594222D01*
X23187017Y-38662488D01*
X23259488Y-38788011D01*
X23259490Y-38788013D01*
X23259491Y-38788015D01*
X23361985Y-38890509D01*
X23361986Y-38890510D01*
X23361988Y-38890511D01*
X23487511Y-38962982D01*
X23487512Y-38962982D01*
X23487515Y-38962984D01*
X23627525Y-39000500D01*
X23627528Y-39000500D01*
X23772472Y-39000500D01*
X23772475Y-39000500D01*
X23912485Y-38962984D01*
X24038015Y-38890509D01*
X24140509Y-38788015D01*
X24212984Y-38662485D01*
X24250500Y-38522475D01*
X24250500Y-38449275D01*
X44727750Y-38449275D01*
X44727750Y-38594225D01*
X44765266Y-38734235D01*
X44765267Y-38734238D01*
X44837738Y-38859761D01*
X44837740Y-38859763D01*
X44837741Y-38859765D01*
X44940235Y-38962259D01*
X44940236Y-38962260D01*
X44940238Y-38962261D01*
X45065761Y-39034732D01*
X45065762Y-39034732D01*
X45065765Y-39034734D01*
X45205775Y-39072250D01*
X45205778Y-39072250D01*
X45350722Y-39072250D01*
X45350725Y-39072250D01*
X45490735Y-39034734D01*
X45616265Y-38962259D01*
X45718759Y-38859765D01*
X45791234Y-38734235D01*
X45828750Y-38594225D01*
X45828750Y-38449275D01*
X45791234Y-38309265D01*
X45718759Y-38183735D01*
X45616265Y-38081241D01*
X45616263Y-38081240D01*
X45616261Y-38081238D01*
X45490738Y-38008767D01*
X45490739Y-38008767D01*
X45479256Y-38005690D01*
X45350725Y-37971250D01*
X45205775Y-37971250D01*
X45077243Y-38005690D01*
X45065761Y-38008767D01*
X44940238Y-38081238D01*
X44940232Y-38081243D01*
X44837743Y-38183732D01*
X44837738Y-38183738D01*
X44765267Y-38309261D01*
X44765266Y-38309265D01*
X44727750Y-38449275D01*
X24250500Y-38449275D01*
X24250500Y-38377525D01*
X24212984Y-38237515D01*
X24181932Y-38183732D01*
X24140511Y-38111988D01*
X24140506Y-38111982D01*
X24038017Y-38009493D01*
X24038011Y-38009488D01*
X23912488Y-37937017D01*
X23912489Y-37937017D01*
X23906157Y-37935320D01*
X23848137Y-37919773D01*
X23788479Y-37883410D01*
X23757950Y-37820563D01*
X23766245Y-37751187D01*
X23810730Y-37697309D01*
X23848135Y-37680226D01*
X23912485Y-37662984D01*
X24038015Y-37590509D01*
X24140509Y-37488015D01*
X24212984Y-37362485D01*
X24250500Y-37222475D01*
X24250500Y-37077525D01*
X24212984Y-36937515D01*
X24140509Y-36811985D01*
X24038015Y-36709491D01*
X24038013Y-36709490D01*
X24038011Y-36709488D01*
X23912488Y-36637017D01*
X23912489Y-36637017D01*
X23901006Y-36633940D01*
X23772475Y-36599500D01*
X23627525Y-36599500D01*
X23498993Y-36633940D01*
X23487511Y-36637017D01*
X23361988Y-36709488D01*
X23361982Y-36709493D01*
X23259493Y-36811982D01*
X23259488Y-36811988D01*
X23187017Y-36937511D01*
X23187016Y-36937515D01*
X23149500Y-37077525D01*
X22521500Y-37077525D01*
X22483984Y-36937515D01*
X22411509Y-36811985D01*
X22309015Y-36709491D01*
X22309013Y-36709490D01*
X22309011Y-36709488D01*
X22183488Y-36637017D01*
X22183489Y-36637017D01*
X22172006Y-36633940D01*
X22043475Y-36599500D01*
X21898525Y-36599500D01*
X21769993Y-36633940D01*
X21758511Y-36637017D01*
X21632988Y-36709488D01*
X21632982Y-36709493D01*
X21530493Y-36811982D01*
X21530488Y-36811988D01*
X21458017Y-36937511D01*
X21458016Y-36937515D01*
X21420500Y-37077525D01*
X20100500Y-37077525D01*
X20100500Y-34598525D01*
X22182500Y-34598525D01*
X22182500Y-34743475D01*
X22220016Y-34883485D01*
X22220017Y-34883488D01*
X22292488Y-35009011D01*
X22292490Y-35009013D01*
X22292491Y-35009015D01*
X22394985Y-35111509D01*
X22394986Y-35111510D01*
X22394988Y-35111511D01*
X22520511Y-35183982D01*
X22520512Y-35183982D01*
X22520515Y-35183984D01*
X22660525Y-35221500D01*
X22660528Y-35221500D01*
X22805472Y-35221500D01*
X22805475Y-35221500D01*
X22945485Y-35183984D01*
X23071015Y-35111509D01*
X23173509Y-35009015D01*
X23245984Y-34883485D01*
X23283500Y-34743475D01*
X23283500Y-34598525D01*
X23960500Y-34598525D01*
X23960500Y-34743475D01*
X23998016Y-34883485D01*
X23998017Y-34883488D01*
X24070488Y-35009011D01*
X24070490Y-35009013D01*
X24070491Y-35009015D01*
X24172985Y-35111509D01*
X24172986Y-35111510D01*
X24172988Y-35111511D01*
X24298511Y-35183982D01*
X24298512Y-35183982D01*
X24298515Y-35183984D01*
X24438525Y-35221500D01*
X24438528Y-35221500D01*
X24583472Y-35221500D01*
X24583475Y-35221500D01*
X24723485Y-35183984D01*
X24849015Y-35111509D01*
X24951509Y-35009015D01*
X25023984Y-34883485D01*
X25061500Y-34743475D01*
X25061500Y-34598525D01*
X25023984Y-34458515D01*
X24975195Y-34374011D01*
X24951511Y-34332988D01*
X24951506Y-34332982D01*
X24849017Y-34230493D01*
X24849011Y-34230488D01*
X24723488Y-34158017D01*
X24723489Y-34158017D01*
X24712006Y-34154940D01*
X24583475Y-34120500D01*
X24438525Y-34120500D01*
X24309993Y-34154940D01*
X24298511Y-34158017D01*
X24172988Y-34230488D01*
X24172982Y-34230493D01*
X24070493Y-34332982D01*
X24070488Y-34332988D01*
X23998017Y-34458511D01*
X23998016Y-34458515D01*
X23960500Y-34598525D01*
X23283500Y-34598525D01*
X23245984Y-34458515D01*
X23197195Y-34374011D01*
X23173511Y-34332988D01*
X23173506Y-34332982D01*
X23071017Y-34230493D01*
X23071011Y-34230488D01*
X22945488Y-34158017D01*
X22945489Y-34158017D01*
X22934006Y-34154940D01*
X22805475Y-34120500D01*
X22660525Y-34120500D01*
X22531993Y-34154940D01*
X22520511Y-34158017D01*
X22394988Y-34230488D01*
X22394982Y-34230493D01*
X22292493Y-34332982D01*
X22292488Y-34332988D01*
X22220017Y-34458511D01*
X22220016Y-34458515D01*
X22182500Y-34598525D01*
X20100500Y-34598525D01*
X20100500Y-33963525D01*
X36533500Y-33963525D01*
X36533500Y-34108475D01*
X36566195Y-34230493D01*
X36571017Y-34248488D01*
X36643488Y-34374011D01*
X36643490Y-34374013D01*
X36643491Y-34374015D01*
X36745985Y-34476509D01*
X36745986Y-34476510D01*
X36745988Y-34476511D01*
X36871511Y-34548982D01*
X36871512Y-34548982D01*
X36871515Y-34548984D01*
X37011525Y-34586500D01*
X37011528Y-34586500D01*
X37156472Y-34586500D01*
X37156475Y-34586500D01*
X37296485Y-34548984D01*
X37422015Y-34476509D01*
X37524509Y-34374015D01*
X37596984Y-34248485D01*
X37634500Y-34108475D01*
X37634500Y-33963525D01*
X37596984Y-33823515D01*
X37524509Y-33697985D01*
X37422015Y-33595491D01*
X37422013Y-33595490D01*
X37422011Y-33595488D01*
X37296488Y-33523017D01*
X37296489Y-33523017D01*
X37285006Y-33519940D01*
X37156475Y-33485500D01*
X37011525Y-33485500D01*
X36882993Y-33519940D01*
X36871511Y-33523017D01*
X36745988Y-33595488D01*
X36745982Y-33595493D01*
X36643493Y-33697982D01*
X36643488Y-33697988D01*
X36571017Y-33823511D01*
X36571016Y-33823515D01*
X36533500Y-33963525D01*
X20100500Y-33963525D01*
X20100500Y-32820525D01*
X22182500Y-32820525D01*
X22182500Y-32965475D01*
X22220016Y-33105485D01*
X22220017Y-33105488D01*
X22292488Y-33231011D01*
X22292490Y-33231013D01*
X22292491Y-33231015D01*
X22394985Y-33333509D01*
X22394986Y-33333510D01*
X22394988Y-33333511D01*
X22520511Y-33405982D01*
X22520512Y-33405982D01*
X22520515Y-33405984D01*
X22660525Y-33443500D01*
X22660528Y-33443500D01*
X22805472Y-33443500D01*
X22805475Y-33443500D01*
X22945485Y-33405984D01*
X23071015Y-33333509D01*
X23173509Y-33231015D01*
X23245984Y-33105485D01*
X23283500Y-32965475D01*
X23283500Y-32820525D01*
X23960500Y-32820525D01*
X23960500Y-32965475D01*
X23998016Y-33105485D01*
X23998017Y-33105488D01*
X24070488Y-33231011D01*
X24070490Y-33231013D01*
X24070491Y-33231015D01*
X24172985Y-33333509D01*
X24172986Y-33333510D01*
X24172988Y-33333511D01*
X24298511Y-33405982D01*
X24298512Y-33405982D01*
X24298515Y-33405984D01*
X24438525Y-33443500D01*
X24438528Y-33443500D01*
X24583472Y-33443500D01*
X24583475Y-33443500D01*
X24723485Y-33405984D01*
X24849015Y-33333509D01*
X24951509Y-33231015D01*
X25023984Y-33105485D01*
X25061500Y-32965475D01*
X25061500Y-32820525D01*
X25023984Y-32680515D01*
X24975195Y-32596011D01*
X24951511Y-32554988D01*
X24951506Y-32554982D01*
X24849017Y-32452493D01*
X24849011Y-32452488D01*
X24723488Y-32380017D01*
X24723489Y-32380017D01*
X24712006Y-32376940D01*
X24583475Y-32342500D01*
X24438525Y-32342500D01*
X24309993Y-32376940D01*
X24298511Y-32380017D01*
X24172988Y-32452488D01*
X24172982Y-32452493D01*
X24070493Y-32554982D01*
X24070488Y-32554988D01*
X23998017Y-32680511D01*
X23998016Y-32680515D01*
X23960500Y-32820525D01*
X23283500Y-32820525D01*
X23245984Y-32680515D01*
X23197195Y-32596011D01*
X23173511Y-32554988D01*
X23173506Y-32554982D01*
X23071017Y-32452493D01*
X23071011Y-32452488D01*
X22945488Y-32380017D01*
X22945489Y-32380017D01*
X22934006Y-32376940D01*
X22805475Y-32342500D01*
X22660525Y-32342500D01*
X22531993Y-32376940D01*
X22520511Y-32380017D01*
X22394988Y-32452488D01*
X22394982Y-32452493D01*
X22292493Y-32554982D01*
X22292488Y-32554988D01*
X22220017Y-32680511D01*
X22220016Y-32680515D01*
X22182500Y-32820525D01*
X20100500Y-32820525D01*
X20100500Y-32185525D01*
X32723500Y-32185525D01*
X32723500Y-32330475D01*
X32756195Y-32452493D01*
X32761017Y-32470488D01*
X32833488Y-32596011D01*
X32833490Y-32596013D01*
X32833491Y-32596015D01*
X32935985Y-32698509D01*
X32935986Y-32698510D01*
X32935988Y-32698511D01*
X33061511Y-32770982D01*
X33061512Y-32770982D01*
X33061515Y-32770984D01*
X33201525Y-32808500D01*
X33201528Y-32808500D01*
X33346472Y-32808500D01*
X33346475Y-32808500D01*
X33486485Y-32770984D01*
X33612015Y-32698509D01*
X33714509Y-32596015D01*
X33786984Y-32470485D01*
X33824500Y-32330475D01*
X33824500Y-32185525D01*
X34501500Y-32185525D01*
X34501500Y-32330475D01*
X34534195Y-32452493D01*
X34539017Y-32470488D01*
X34611488Y-32596011D01*
X34611490Y-32596013D01*
X34611491Y-32596015D01*
X34713985Y-32698509D01*
X34713986Y-32698510D01*
X34713988Y-32698511D01*
X34839511Y-32770982D01*
X34839512Y-32770982D01*
X34839515Y-32770984D01*
X34979525Y-32808500D01*
X34979528Y-32808500D01*
X35124472Y-32808500D01*
X35124475Y-32808500D01*
X35264485Y-32770984D01*
X35390015Y-32698509D01*
X35492509Y-32596015D01*
X35564984Y-32470485D01*
X35602500Y-32330475D01*
X35602500Y-32185525D01*
X35568470Y-32058525D01*
X36660500Y-32058525D01*
X36660500Y-32203475D01*
X36694529Y-32330472D01*
X36698017Y-32343488D01*
X36770488Y-32469011D01*
X36770490Y-32469013D01*
X36770491Y-32469015D01*
X36872985Y-32571509D01*
X36872986Y-32571510D01*
X36872988Y-32571511D01*
X36998511Y-32643982D01*
X36998512Y-32643982D01*
X36998515Y-32643984D01*
X37138525Y-32681500D01*
X37138528Y-32681500D01*
X37283472Y-32681500D01*
X37283475Y-32681500D01*
X37423485Y-32643984D01*
X37549015Y-32571509D01*
X37651509Y-32469015D01*
X37723984Y-32343485D01*
X37761500Y-32203475D01*
X37761500Y-32058525D01*
X37723984Y-31918515D01*
X37651509Y-31792985D01*
X37549015Y-31690491D01*
X37549013Y-31690490D01*
X37549011Y-31690488D01*
X37423488Y-31618017D01*
X37423489Y-31618017D01*
X37412006Y-31614940D01*
X37283475Y-31580500D01*
X37138525Y-31580500D01*
X37009993Y-31614940D01*
X36998511Y-31618017D01*
X36872988Y-31690488D01*
X36872982Y-31690493D01*
X36770493Y-31792982D01*
X36770488Y-31792988D01*
X36698017Y-31918511D01*
X36698016Y-31918515D01*
X36660500Y-32058525D01*
X35568470Y-32058525D01*
X35564984Y-32045515D01*
X35492509Y-31919985D01*
X35390015Y-31817491D01*
X35390013Y-31817490D01*
X35390011Y-31817488D01*
X35264488Y-31745017D01*
X35264489Y-31745017D01*
X35253006Y-31741940D01*
X35124475Y-31707500D01*
X34979525Y-31707500D01*
X34850993Y-31741940D01*
X34839511Y-31745017D01*
X34713988Y-31817488D01*
X34713982Y-31817493D01*
X34611493Y-31919982D01*
X34611488Y-31919988D01*
X34539017Y-32045511D01*
X34539016Y-32045515D01*
X34501500Y-32185525D01*
X33824500Y-32185525D01*
X33786984Y-32045515D01*
X33714509Y-31919985D01*
X33612015Y-31817491D01*
X33612013Y-31817490D01*
X33612011Y-31817488D01*
X33486488Y-31745017D01*
X33486489Y-31745017D01*
X33475006Y-31741940D01*
X33346475Y-31707500D01*
X33201525Y-31707500D01*
X33072993Y-31741940D01*
X33061511Y-31745017D01*
X32935988Y-31817488D01*
X32935982Y-31817493D01*
X32833493Y-31919982D01*
X32833488Y-31919988D01*
X32761017Y-32045511D01*
X32761016Y-32045515D01*
X32723500Y-32185525D01*
X20100500Y-32185525D01*
X20100500Y-30661525D01*
X22055500Y-30661525D01*
X22055500Y-30806475D01*
X22092621Y-30945011D01*
X22093017Y-30946488D01*
X22165488Y-31072011D01*
X22165490Y-31072013D01*
X22165491Y-31072015D01*
X22267985Y-31174509D01*
X22267986Y-31174510D01*
X22267988Y-31174511D01*
X22393511Y-31246982D01*
X22393512Y-31246982D01*
X22393515Y-31246984D01*
X22533525Y-31284500D01*
X22533528Y-31284500D01*
X22678472Y-31284500D01*
X22678475Y-31284500D01*
X22818485Y-31246984D01*
X22944015Y-31174509D01*
X23046509Y-31072015D01*
X23118984Y-30946485D01*
X23156500Y-30806475D01*
X23156500Y-30661525D01*
X23118984Y-30521515D01*
X23046509Y-30395985D01*
X22944015Y-30293491D01*
X22944013Y-30293490D01*
X22944011Y-30293488D01*
X22818488Y-30221017D01*
X22818489Y-30221017D01*
X22807006Y-30217940D01*
X22678475Y-30183500D01*
X22533525Y-30183500D01*
X22404993Y-30217940D01*
X22393511Y-30221017D01*
X22267988Y-30293488D01*
X22267982Y-30293493D01*
X22165493Y-30395982D01*
X22165488Y-30395988D01*
X22093017Y-30521511D01*
X22093016Y-30521515D01*
X22055500Y-30661525D01*
X20100500Y-30661525D01*
X20100500Y-28883525D01*
X22055500Y-28883525D01*
X22055500Y-29028475D01*
X22093016Y-29168485D01*
X22093017Y-29168488D01*
X22165488Y-29294011D01*
X22165490Y-29294013D01*
X22165491Y-29294015D01*
X22267985Y-29396509D01*
X22267986Y-29396510D01*
X22267988Y-29396511D01*
X22393511Y-29468982D01*
X22393512Y-29468982D01*
X22393515Y-29468984D01*
X22533525Y-29506500D01*
X22533528Y-29506500D01*
X22678472Y-29506500D01*
X22678475Y-29506500D01*
X22818485Y-29468984D01*
X22944015Y-29396509D01*
X23046509Y-29294015D01*
X23118984Y-29168485D01*
X23156500Y-29028475D01*
X23156500Y-28883525D01*
X23120135Y-28747812D01*
X23768500Y-28747812D01*
X23768500Y-30343547D01*
X23768501Y-30343553D01*
X23774908Y-30403160D01*
X23825202Y-30538005D01*
X23825206Y-30538012D01*
X23911452Y-30653221D01*
X23911455Y-30653224D01*
X24026664Y-30739470D01*
X24026671Y-30739474D01*
X24161517Y-30789768D01*
X24161516Y-30789768D01*
X24168444Y-30790512D01*
X24221127Y-30796177D01*
X25816872Y-30796176D01*
X25876483Y-30789768D01*
X26011331Y-30739473D01*
X26126546Y-30653223D01*
X26212796Y-30538008D01*
X26261463Y-30407525D01*
X26627500Y-30407525D01*
X26627500Y-30552475D01*
X26656721Y-30661527D01*
X26665017Y-30692488D01*
X26737488Y-30818011D01*
X26737490Y-30818013D01*
X26737491Y-30818015D01*
X26839985Y-30920509D01*
X26839986Y-30920510D01*
X26839988Y-30920511D01*
X26965511Y-30992982D01*
X26965512Y-30992982D01*
X26965515Y-30992984D01*
X27105525Y-31030500D01*
X27105528Y-31030500D01*
X27250472Y-31030500D01*
X27250475Y-31030500D01*
X27390485Y-30992984D01*
X27516015Y-30920509D01*
X27618509Y-30818015D01*
X27690984Y-30692485D01*
X27728500Y-30552475D01*
X27728500Y-30534525D01*
X32723500Y-30534525D01*
X32723500Y-30679475D01*
X32754771Y-30796177D01*
X32761017Y-30819488D01*
X32833488Y-30945011D01*
X32833490Y-30945013D01*
X32833491Y-30945015D01*
X32935985Y-31047509D01*
X32935986Y-31047510D01*
X32935988Y-31047511D01*
X33061511Y-31119982D01*
X33061512Y-31119982D01*
X33061515Y-31119984D01*
X33201525Y-31157500D01*
X33201528Y-31157500D01*
X33346472Y-31157500D01*
X33346475Y-31157500D01*
X33486485Y-31119984D01*
X33612015Y-31047509D01*
X33714509Y-30945015D01*
X33786984Y-30819485D01*
X33824500Y-30679475D01*
X33824500Y-30534525D01*
X34501500Y-30534525D01*
X34501500Y-30679475D01*
X34532771Y-30796177D01*
X34539017Y-30819488D01*
X34611488Y-30945011D01*
X34611490Y-30945013D01*
X34611491Y-30945015D01*
X34713985Y-31047509D01*
X34713986Y-31047510D01*
X34713988Y-31047511D01*
X34839511Y-31119982D01*
X34839512Y-31119982D01*
X34839515Y-31119984D01*
X34979525Y-31157500D01*
X34979528Y-31157500D01*
X35124472Y-31157500D01*
X35124475Y-31157500D01*
X35264485Y-31119984D01*
X35390015Y-31047509D01*
X35492509Y-30945015D01*
X35564984Y-30819485D01*
X35602500Y-30679475D01*
X35602500Y-30534525D01*
X35564984Y-30394515D01*
X35560150Y-30386143D01*
X35492511Y-30268988D01*
X35492506Y-30268982D01*
X35390017Y-30166493D01*
X35390011Y-30166488D01*
X35264488Y-30094017D01*
X35264489Y-30094017D01*
X35253006Y-30090940D01*
X35124475Y-30056500D01*
X34979525Y-30056500D01*
X34850993Y-30090940D01*
X34839511Y-30094017D01*
X34713988Y-30166488D01*
X34713982Y-30166493D01*
X34611493Y-30268982D01*
X34611488Y-30268988D01*
X34539017Y-30394511D01*
X34539016Y-30394515D01*
X34501500Y-30534525D01*
X33824500Y-30534525D01*
X33786984Y-30394515D01*
X33782150Y-30386143D01*
X33714511Y-30268988D01*
X33714506Y-30268982D01*
X33612017Y-30166493D01*
X33612011Y-30166488D01*
X33486488Y-30094017D01*
X33486489Y-30094017D01*
X33475006Y-30090940D01*
X33346475Y-30056500D01*
X33201525Y-30056500D01*
X33072993Y-30090940D01*
X33061511Y-30094017D01*
X32935988Y-30166488D01*
X32935982Y-30166493D01*
X32833493Y-30268982D01*
X32833488Y-30268988D01*
X32761017Y-30394511D01*
X32761016Y-30394515D01*
X32723500Y-30534525D01*
X27728500Y-30534525D01*
X27728500Y-30407525D01*
X27690984Y-30267515D01*
X27664138Y-30221017D01*
X27618511Y-30141988D01*
X27618506Y-30141982D01*
X27516017Y-30039493D01*
X27516011Y-30039488D01*
X27390488Y-29967017D01*
X27390489Y-29967017D01*
X27379006Y-29963940D01*
X27250475Y-29929500D01*
X27105525Y-29929500D01*
X26976993Y-29963940D01*
X26965511Y-29967017D01*
X26839988Y-30039488D01*
X26839982Y-30039493D01*
X26737493Y-30141982D01*
X26737488Y-30141988D01*
X26665017Y-30267511D01*
X26665016Y-30267515D01*
X26627500Y-30407525D01*
X26261463Y-30407525D01*
X26263091Y-30403160D01*
X26269500Y-30343550D01*
X26269499Y-28747805D01*
X26263091Y-28688194D01*
X26252757Y-28660488D01*
X26212797Y-28553348D01*
X26212793Y-28553341D01*
X26129227Y-28441712D01*
X26129225Y-28441710D01*
X26126546Y-28438131D01*
X26126544Y-28438130D01*
X26126544Y-28438129D01*
X26042916Y-28375525D01*
X26627500Y-28375525D01*
X26627500Y-28520475D01*
X26653628Y-28617985D01*
X26665017Y-28660488D01*
X26737488Y-28786011D01*
X26737490Y-28786013D01*
X26737491Y-28786015D01*
X26839985Y-28888509D01*
X26839986Y-28888510D01*
X26839988Y-28888511D01*
X26965511Y-28960982D01*
X26965512Y-28960982D01*
X26965515Y-28960984D01*
X27105525Y-28998500D01*
X27105528Y-28998500D01*
X27250472Y-28998500D01*
X27250475Y-28998500D01*
X27390485Y-28960984D01*
X27516015Y-28888509D01*
X27618509Y-28786015D01*
X27690984Y-28660485D01*
X27728500Y-28520475D01*
X27728500Y-28375525D01*
X27690984Y-28235515D01*
X27618509Y-28109985D01*
X27516015Y-28007491D01*
X27516013Y-28007490D01*
X27516011Y-28007488D01*
X27390488Y-27935017D01*
X27390489Y-27935017D01*
X27379006Y-27931940D01*
X27250475Y-27897500D01*
X27105525Y-27897500D01*
X26976993Y-27931940D01*
X26965511Y-27935017D01*
X26839988Y-28007488D01*
X26839982Y-28007493D01*
X26737493Y-28109982D01*
X26737488Y-28109988D01*
X26665017Y-28235511D01*
X26665016Y-28235515D01*
X26627500Y-28375525D01*
X26042916Y-28375525D01*
X26011335Y-28351883D01*
X26011328Y-28351879D01*
X25876482Y-28301585D01*
X25876483Y-28301585D01*
X25816883Y-28295178D01*
X25816881Y-28295177D01*
X25816873Y-28295177D01*
X25816864Y-28295177D01*
X24221129Y-28295177D01*
X24221123Y-28295178D01*
X24161516Y-28301585D01*
X24026671Y-28351879D01*
X24026664Y-28351883D01*
X23911455Y-28438129D01*
X23911452Y-28438132D01*
X23825206Y-28553341D01*
X23825202Y-28553348D01*
X23774908Y-28688194D01*
X23768961Y-28743515D01*
X23768501Y-28747800D01*
X23768500Y-28747812D01*
X23120135Y-28747812D01*
X23118984Y-28743515D01*
X23087044Y-28688194D01*
X23046511Y-28617988D01*
X23046506Y-28617982D01*
X22944017Y-28515493D01*
X22944011Y-28515488D01*
X22818488Y-28443017D01*
X22818489Y-28443017D01*
X22800247Y-28438129D01*
X22678475Y-28405500D01*
X22533525Y-28405500D01*
X22411753Y-28438129D01*
X22393511Y-28443017D01*
X22267988Y-28515488D01*
X22267982Y-28515493D01*
X22165493Y-28617982D01*
X22165488Y-28617988D01*
X22093017Y-28743511D01*
X22093016Y-28743515D01*
X22055500Y-28883525D01*
X20100500Y-28883525D01*
X20100500Y-27232525D01*
X22055500Y-27232525D01*
X22055500Y-27377475D01*
X22093016Y-27517485D01*
X22093017Y-27517488D01*
X22165488Y-27643011D01*
X22165490Y-27643013D01*
X22165491Y-27643015D01*
X22267985Y-27745509D01*
X22267986Y-27745510D01*
X22267988Y-27745511D01*
X22393511Y-27817982D01*
X22393512Y-27817982D01*
X22393515Y-27817984D01*
X22533525Y-27855500D01*
X22533528Y-27855500D01*
X22678472Y-27855500D01*
X22678475Y-27855500D01*
X22818485Y-27817984D01*
X22944015Y-27745509D01*
X23046509Y-27643015D01*
X23118984Y-27517485D01*
X23156500Y-27377475D01*
X23156500Y-27232525D01*
X23118984Y-27092515D01*
X23046509Y-26966985D01*
X22944015Y-26864491D01*
X22944013Y-26864490D01*
X22944011Y-26864488D01*
X22818488Y-26792017D01*
X22818489Y-26792017D01*
X22807006Y-26788940D01*
X22678475Y-26754500D01*
X22533525Y-26754500D01*
X22404993Y-26788940D01*
X22393511Y-26792017D01*
X22267988Y-26864488D01*
X22267982Y-26864493D01*
X22165493Y-26966982D01*
X22165488Y-26966988D01*
X22093017Y-27092511D01*
X22093016Y-27092515D01*
X22055500Y-27232525D01*
X20100500Y-27232525D01*
X20100500Y-25848225D01*
X26614800Y-25848225D01*
X26614800Y-25993175D01*
X26652316Y-26133185D01*
X26652317Y-26133188D01*
X26724788Y-26258711D01*
X26724790Y-26258713D01*
X26724791Y-26258715D01*
X26827285Y-26361209D01*
X26827286Y-26361210D01*
X26827288Y-26361211D01*
X26952811Y-26433682D01*
X26952812Y-26433682D01*
X26952815Y-26433684D01*
X27092825Y-26471200D01*
X27092828Y-26471200D01*
X27237772Y-26471200D01*
X27237775Y-26471200D01*
X27377785Y-26433684D01*
X27503315Y-26361209D01*
X27605809Y-26258715D01*
X27678284Y-26133185D01*
X27715800Y-25993175D01*
X27715800Y-25848225D01*
X27678284Y-25708215D01*
X27605809Y-25582685D01*
X27503315Y-25480191D01*
X27503313Y-25480190D01*
X27503311Y-25480188D01*
X27377788Y-25407717D01*
X27377789Y-25407717D01*
X27366306Y-25404640D01*
X27237775Y-25370200D01*
X27092825Y-25370200D01*
X26964293Y-25404640D01*
X26952811Y-25407717D01*
X26827288Y-25480188D01*
X26827282Y-25480193D01*
X26724793Y-25582682D01*
X26724788Y-25582688D01*
X26652317Y-25708211D01*
X26652316Y-25708215D01*
X26614800Y-25848225D01*
X20100500Y-25848225D01*
X20100500Y-22889125D01*
X29573900Y-22889125D01*
X29573900Y-23034075D01*
X29611416Y-23174085D01*
X29611417Y-23174088D01*
X29683888Y-23299611D01*
X29683890Y-23299613D01*
X29683891Y-23299615D01*
X29786385Y-23402109D01*
X29786386Y-23402110D01*
X29786388Y-23402111D01*
X29911911Y-23474582D01*
X29911912Y-23474582D01*
X29911915Y-23474584D01*
X30051925Y-23512100D01*
X30051928Y-23512100D01*
X30196872Y-23512100D01*
X30196875Y-23512100D01*
X30336885Y-23474584D01*
X30462415Y-23402109D01*
X30564909Y-23299615D01*
X30637384Y-23174085D01*
X30674900Y-23034075D01*
X30674900Y-22889125D01*
X30637384Y-22749115D01*
X30564909Y-22623585D01*
X30462415Y-22521091D01*
X30462413Y-22521090D01*
X30462411Y-22521088D01*
X30336888Y-22448617D01*
X30336889Y-22448617D01*
X30325406Y-22445540D01*
X30196875Y-22411100D01*
X30051925Y-22411100D01*
X29923393Y-22445540D01*
X29911911Y-22448617D01*
X29786388Y-22521088D01*
X29786382Y-22521093D01*
X29683893Y-22623582D01*
X29683888Y-22623588D01*
X29611417Y-22749111D01*
X29611416Y-22749115D01*
X29573900Y-22889125D01*
X20100500Y-22889125D01*
X20100500Y-20565025D01*
X31898000Y-20565025D01*
X31898000Y-20709975D01*
X31935516Y-20849985D01*
X31935517Y-20849988D01*
X32007988Y-20975511D01*
X32007990Y-20975513D01*
X32007991Y-20975515D01*
X32110485Y-21078009D01*
X32110486Y-21078010D01*
X32110488Y-21078011D01*
X32236011Y-21150482D01*
X32236012Y-21150482D01*
X32236015Y-21150484D01*
X32376025Y-21188000D01*
X32376028Y-21188000D01*
X32520972Y-21188000D01*
X32520975Y-21188000D01*
X32660985Y-21150484D01*
X32786515Y-21078009D01*
X32889009Y-20975515D01*
X32961484Y-20849985D01*
X32999000Y-20709975D01*
X32999000Y-20565025D01*
X32961484Y-20425015D01*
X32889009Y-20299485D01*
X32786515Y-20196991D01*
X32786513Y-20196990D01*
X32786511Y-20196988D01*
X32660988Y-20124517D01*
X32660989Y-20124517D01*
X32649506Y-20121440D01*
X32520975Y-20087000D01*
X32376025Y-20087000D01*
X32247493Y-20121440D01*
X32236011Y-20124517D01*
X32110488Y-20196988D01*
X32110482Y-20196993D01*
X32007993Y-20299482D01*
X32007988Y-20299488D01*
X31935517Y-20425011D01*
X31935516Y-20425015D01*
X31898000Y-20565025D01*
X20100500Y-20565025D01*
X20100500Y-18158097D01*
X32150500Y-18158097D01*
X32150500Y-18417902D01*
X32191140Y-18674493D01*
X32271422Y-18921576D01*
X32352534Y-19080764D01*
X32389366Y-19153051D01*
X32542069Y-19363229D01*
X32725771Y-19546931D01*
X32935949Y-19699634D01*
X33083445Y-19774787D01*
X33167423Y-19817577D01*
X33167425Y-19817577D01*
X33167428Y-19817579D01*
X33414507Y-19897860D01*
X33546706Y-19918797D01*
X33671098Y-19938500D01*
X33671103Y-19938500D01*
X33930902Y-19938500D01*
X34044298Y-19920539D01*
X34187493Y-19897860D01*
X34434572Y-19817579D01*
X34666051Y-19699634D01*
X34876229Y-19546931D01*
X35059931Y-19363229D01*
X35212634Y-19153051D01*
X35330579Y-18921572D01*
X35410860Y-18674493D01*
X35433539Y-18531298D01*
X35451500Y-18417902D01*
X35451500Y-18158097D01*
X37150500Y-18158097D01*
X37150500Y-18417902D01*
X37191140Y-18674493D01*
X37271422Y-18921576D01*
X37352534Y-19080764D01*
X37389366Y-19153051D01*
X37542069Y-19363229D01*
X37725771Y-19546931D01*
X37935949Y-19699634D01*
X38083445Y-19774787D01*
X38167423Y-19817577D01*
X38167425Y-19817577D01*
X38167428Y-19817579D01*
X38414507Y-19897860D01*
X38546706Y-19918797D01*
X38671098Y-19938500D01*
X38671103Y-19938500D01*
X38930902Y-19938500D01*
X39044298Y-19920539D01*
X39187493Y-19897860D01*
X39434572Y-19817579D01*
X39666051Y-19699634D01*
X39876229Y-19546931D01*
X40059931Y-19363229D01*
X40212634Y-19153051D01*
X40330579Y-18921572D01*
X40410860Y-18674493D01*
X40433539Y-18531298D01*
X40451500Y-18417902D01*
X40451500Y-18158097D01*
X42150500Y-18158097D01*
X42150500Y-18417902D01*
X42191140Y-18674493D01*
X42271422Y-18921576D01*
X42352534Y-19080764D01*
X42389366Y-19153051D01*
X42542069Y-19363229D01*
X42725771Y-19546931D01*
X42935949Y-19699634D01*
X43083445Y-19774787D01*
X43167423Y-19817577D01*
X43167425Y-19817577D01*
X43167428Y-19817579D01*
X43414507Y-19897860D01*
X43546706Y-19918797D01*
X43671098Y-19938500D01*
X43671103Y-19938500D01*
X43930902Y-19938500D01*
X44044298Y-19920539D01*
X44187493Y-19897860D01*
X44434572Y-19817579D01*
X44666051Y-19699634D01*
X44876229Y-19546931D01*
X45059931Y-19363229D01*
X45212634Y-19153051D01*
X45330579Y-18921572D01*
X45410860Y-18674493D01*
X45433539Y-18531298D01*
X45451500Y-18417902D01*
X45451500Y-18158097D01*
X47150500Y-18158097D01*
X47150500Y-18417902D01*
X47191140Y-18674493D01*
X47271422Y-18921576D01*
X47352534Y-19080764D01*
X47389366Y-19153051D01*
X47542069Y-19363229D01*
X47725771Y-19546931D01*
X47935949Y-19699634D01*
X48083445Y-19774787D01*
X48167423Y-19817577D01*
X48167425Y-19817577D01*
X48167428Y-19817579D01*
X48414507Y-19897860D01*
X48546706Y-19918797D01*
X48671098Y-19938500D01*
X48671103Y-19938500D01*
X48930902Y-19938500D01*
X49044298Y-19920539D01*
X49187493Y-19897860D01*
X49434572Y-19817579D01*
X49666051Y-19699634D01*
X49876229Y-19546931D01*
X50059931Y-19363229D01*
X50212634Y-19153051D01*
X50330579Y-18921572D01*
X50410860Y-18674493D01*
X50433539Y-18531298D01*
X50451500Y-18417902D01*
X50451500Y-18158097D01*
X52150500Y-18158097D01*
X52150500Y-18417902D01*
X52191140Y-18674493D01*
X52271422Y-18921576D01*
X52352534Y-19080764D01*
X52389366Y-19153051D01*
X52542069Y-19363229D01*
X52725771Y-19546931D01*
X52935949Y-19699634D01*
X53083445Y-19774787D01*
X53167423Y-19817577D01*
X53167425Y-19817577D01*
X53167428Y-19817579D01*
X53414507Y-19897860D01*
X53546706Y-19918797D01*
X53671098Y-19938500D01*
X53671103Y-19938500D01*
X53930902Y-19938500D01*
X54044298Y-19920539D01*
X54187493Y-19897860D01*
X54434572Y-19817579D01*
X54666051Y-19699634D01*
X54876229Y-19546931D01*
X55059931Y-19363229D01*
X55212634Y-19153051D01*
X55330579Y-18921572D01*
X55410860Y-18674493D01*
X55433539Y-18531298D01*
X55451500Y-18417902D01*
X55451500Y-18158097D01*
X55429947Y-18022021D01*
X55410860Y-17901507D01*
X55330579Y-17654428D01*
X55330577Y-17654425D01*
X55330577Y-17654423D01*
X55287787Y-17570445D01*
X55212634Y-17422949D01*
X55059931Y-17212771D01*
X54937296Y-17090136D01*
X57150500Y-17090136D01*
X57150500Y-19485863D01*
X57150501Y-19485882D01*
X57156908Y-19545481D01*
X57207202Y-19680327D01*
X57207203Y-19680328D01*
X57207204Y-19680330D01*
X57293454Y-19795546D01*
X57408670Y-19881796D01*
X57408671Y-19881796D01*
X57408672Y-19881797D01*
X57543518Y-19932091D01*
X57543517Y-19932091D01*
X57550445Y-19932835D01*
X57603128Y-19938500D01*
X57603137Y-19938500D01*
X59998863Y-19938500D01*
X59998872Y-19938500D01*
X60058482Y-19932091D01*
X60193330Y-19881796D01*
X60308546Y-19795546D01*
X60394796Y-19680330D01*
X60445091Y-19545482D01*
X60451500Y-19485872D01*
X60451500Y-17090128D01*
X60445091Y-17030518D01*
X60444549Y-17029066D01*
X60394797Y-16895672D01*
X60394796Y-16895671D01*
X60394796Y-16895670D01*
X60308546Y-16780454D01*
X60193330Y-16694204D01*
X60193328Y-16694203D01*
X60193327Y-16694202D01*
X60058481Y-16643908D01*
X60058482Y-16643908D01*
X59998882Y-16637501D01*
X59998880Y-16637500D01*
X59998872Y-16637500D01*
X57603128Y-16637500D01*
X57603120Y-16637500D01*
X57603117Y-16637501D01*
X57543518Y-16643908D01*
X57408672Y-16694202D01*
X57408670Y-16694204D01*
X57293454Y-16780454D01*
X57207204Y-16895670D01*
X57207202Y-16895672D01*
X57156908Y-17030518D01*
X57150501Y-17090117D01*
X57150500Y-17090136D01*
X54937296Y-17090136D01*
X54876229Y-17029069D01*
X54697624Y-16899305D01*
X54666054Y-16876368D01*
X54666053Y-16876367D01*
X54666051Y-16876366D01*
X54593764Y-16839534D01*
X54434576Y-16758422D01*
X54187493Y-16678140D01*
X53930902Y-16637500D01*
X53930897Y-16637500D01*
X53671103Y-16637500D01*
X53671098Y-16637500D01*
X53414506Y-16678140D01*
X53167423Y-16758422D01*
X52935945Y-16876368D01*
X52725774Y-17029066D01*
X52725768Y-17029071D01*
X52542071Y-17212768D01*
X52542066Y-17212774D01*
X52389368Y-17422945D01*
X52271422Y-17654423D01*
X52191140Y-17901506D01*
X52150500Y-18158097D01*
X50451500Y-18158097D01*
X50429947Y-18022021D01*
X50410860Y-17901507D01*
X50330579Y-17654428D01*
X50330577Y-17654425D01*
X50330577Y-17654423D01*
X50287787Y-17570445D01*
X50212634Y-17422949D01*
X50059931Y-17212771D01*
X49876229Y-17029069D01*
X49697624Y-16899305D01*
X49666054Y-16876368D01*
X49666053Y-16876367D01*
X49666051Y-16876366D01*
X49593764Y-16839534D01*
X49434576Y-16758422D01*
X49187493Y-16678140D01*
X48930902Y-16637500D01*
X48930897Y-16637500D01*
X48671103Y-16637500D01*
X48671098Y-16637500D01*
X48414506Y-16678140D01*
X48167423Y-16758422D01*
X47935945Y-16876368D01*
X47725774Y-17029066D01*
X47725768Y-17029071D01*
X47542071Y-17212768D01*
X47542066Y-17212774D01*
X47389368Y-17422945D01*
X47271422Y-17654423D01*
X47191140Y-17901506D01*
X47150500Y-18158097D01*
X45451500Y-18158097D01*
X45429947Y-18022021D01*
X45410860Y-17901507D01*
X45330579Y-17654428D01*
X45330577Y-17654425D01*
X45330577Y-17654423D01*
X45287787Y-17570445D01*
X45212634Y-17422949D01*
X45059931Y-17212771D01*
X44876229Y-17029069D01*
X44697624Y-16899305D01*
X44666054Y-16876368D01*
X44666053Y-16876367D01*
X44666051Y-16876366D01*
X44593764Y-16839534D01*
X44434576Y-16758422D01*
X44187493Y-16678140D01*
X43930902Y-16637500D01*
X43930897Y-16637500D01*
X43671103Y-16637500D01*
X43671098Y-16637500D01*
X43414506Y-16678140D01*
X43167423Y-16758422D01*
X42935945Y-16876368D01*
X42725774Y-17029066D01*
X42725768Y-17029071D01*
X42542071Y-17212768D01*
X42542066Y-17212774D01*
X42389368Y-17422945D01*
X42271422Y-17654423D01*
X42191140Y-17901506D01*
X42150500Y-18158097D01*
X40451500Y-18158097D01*
X40429947Y-18022021D01*
X40410860Y-17901507D01*
X40330579Y-17654428D01*
X40330577Y-17654425D01*
X40330577Y-17654423D01*
X40287787Y-17570445D01*
X40212634Y-17422949D01*
X40059931Y-17212771D01*
X39876229Y-17029069D01*
X39697624Y-16899305D01*
X39666054Y-16876368D01*
X39666053Y-16876367D01*
X39666051Y-16876366D01*
X39593764Y-16839534D01*
X39434576Y-16758422D01*
X39187493Y-16678140D01*
X38930902Y-16637500D01*
X38930897Y-16637500D01*
X38671103Y-16637500D01*
X38671098Y-16637500D01*
X38414506Y-16678140D01*
X38167423Y-16758422D01*
X37935945Y-16876368D01*
X37725774Y-17029066D01*
X37725768Y-17029071D01*
X37542071Y-17212768D01*
X37542066Y-17212774D01*
X37389368Y-17422945D01*
X37271422Y-17654423D01*
X37191140Y-17901506D01*
X37150500Y-18158097D01*
X35451500Y-18158097D01*
X35429947Y-18022021D01*
X35410860Y-17901507D01*
X35330579Y-17654428D01*
X35330577Y-17654425D01*
X35330577Y-17654423D01*
X35287787Y-17570445D01*
X35212634Y-17422949D01*
X35059931Y-17212771D01*
X34876229Y-17029069D01*
X34697624Y-16899305D01*
X34666054Y-16876368D01*
X34666053Y-16876367D01*
X34666051Y-16876366D01*
X34593764Y-16839534D01*
X34434576Y-16758422D01*
X34187493Y-16678140D01*
X33930902Y-16637500D01*
X33930897Y-16637500D01*
X33671103Y-16637500D01*
X33671098Y-16637500D01*
X33414506Y-16678140D01*
X33167423Y-16758422D01*
X32935945Y-16876368D01*
X32725774Y-17029066D01*
X32725768Y-17029071D01*
X32542071Y-17212768D01*
X32542066Y-17212774D01*
X32389368Y-17422945D01*
X32271422Y-17654423D01*
X32191140Y-17901506D01*
X32150500Y-18158097D01*
X20100500Y-18158097D01*
X20100500Y-17503480D01*
X20100695Y-17496527D01*
X20116630Y-17212774D01*
X20117084Y-17204691D01*
X20118638Y-17190898D01*
X20167015Y-16906167D01*
X20170109Y-16892615D01*
X20174791Y-16876366D01*
X20250061Y-16615096D01*
X20254653Y-16601975D01*
X20365175Y-16335151D01*
X20371195Y-16322651D01*
X20510902Y-16069868D01*
X20518297Y-16058100D01*
X20559842Y-15999548D01*
X20685422Y-15822559D01*
X20694077Y-15811705D01*
X20886534Y-15596346D01*
X20896346Y-15586534D01*
X21111705Y-15394077D01*
X21122559Y-15385422D01*
X21358105Y-15218293D01*
X21369868Y-15210902D01*
X21622651Y-15071195D01*
X21635151Y-15065175D01*
X21901979Y-14954651D01*
X21915096Y-14950061D01*
X22192621Y-14870107D01*
X22206167Y-14867015D01*
X22490898Y-14818638D01*
X22504691Y-14817084D01*
X22796528Y-14800695D01*
X22803481Y-14800500D01*
X22847595Y-14800500D01*
X66752405Y-14800500D01*
X66796519Y-14800500D01*
X66803472Y-14800695D01*
G37*
%TD.AperFunction*%
%TD*%
M02*
