%TF.GenerationSoftware,KiCad,Pcbnew,9.0.7*%
%TF.CreationDate,2026-02-06T08:29:47-08:00*%
%TF.ProjectId,Esp32_Lightcontroller,45737033-325f-44c6-9967-6874636f6e74,rev?*%
%TF.SameCoordinates,Original*%
%TF.FileFunction,Paste,Bot*%
%TF.FilePolarity,Positive*%
%FSLAX46Y46*%
G04 Gerber Fmt 4.6, Leading zero omitted, Abs format (unit mm)*
G04 Created by KiCad (PCBNEW 9.0.7) date 2026-02-06 08:29:47*
%MOMM*%
%LPD*%
G01*
G04 APERTURE LIST*
G04 Aperture macros list*
%AMRoundRect*
0 Rectangle with rounded corners*
0 $1 Rounding radius*
0 $2 $3 $4 $5 $6 $7 $8 $9 X,Y pos of 4 corners*
0 Add a 4 corners polygon primitive as box body*
4,1,4,$2,$3,$4,$5,$6,$7,$8,$9,$2,$3,0*
0 Add four circle primitives for the rounded corners*
1,1,$1+$1,$2,$3*
1,1,$1+$1,$4,$5*
1,1,$1+$1,$6,$7*
1,1,$1+$1,$8,$9*
0 Add four rect primitives between the rounded corners*
20,1,$1+$1,$2,$3,$4,$5,0*
20,1,$1+$1,$4,$5,$6,$7,0*
20,1,$1+$1,$6,$7,$8,$9,0*
20,1,$1+$1,$8,$9,$2,$3,0*%
G04 Aperture macros list end*
%ADD10RoundRect,0.112500X-0.187500X-0.112500X0.187500X-0.112500X0.187500X0.112500X-0.187500X0.112500X0*%
%ADD11RoundRect,0.150000X-0.200000X0.150000X-0.200000X-0.150000X0.200000X-0.150000X0.200000X0.150000X0*%
%ADD12RoundRect,0.140000X-0.140000X-0.170000X0.140000X-0.170000X0.140000X0.170000X-0.140000X0.170000X0*%
%ADD13RoundRect,0.140000X0.140000X0.170000X-0.140000X0.170000X-0.140000X-0.170000X0.140000X-0.170000X0*%
%ADD14RoundRect,0.225000X-0.225000X-0.375000X0.225000X-0.375000X0.225000X0.375000X-0.225000X0.375000X0*%
%ADD15RoundRect,0.200000X-0.200000X-0.275000X0.200000X-0.275000X0.200000X0.275000X-0.200000X0.275000X0*%
%ADD16RoundRect,0.200000X0.200000X0.275000X-0.200000X0.275000X-0.200000X-0.275000X0.200000X-0.275000X0*%
%ADD17R,0.228600X0.787400*%
%ADD18R,0.787400X0.228600*%
%ADD19R,1.549400X2.794000*%
%ADD20R,0.939800X2.794000*%
%ADD21RoundRect,0.250000X-0.300000X0.300000X-0.300000X-0.300000X0.300000X-0.300000X0.300000X0.300000X0*%
G04 APERTURE END LIST*
D10*
%TO.C,D2*%
X41749000Y-20955000D03*
X43849000Y-20955000D03*
%TD*%
D11*
%TO.C,D11*%
X42291000Y-61279000D03*
X42291000Y-59879000D03*
%TD*%
D12*
%TO.C,C24*%
X23319800Y-41097200D03*
X24279800Y-41097200D03*
%TD*%
D13*
%TO.C,C27*%
X30350400Y-45999400D03*
X29390400Y-45999400D03*
%TD*%
D12*
%TO.C,C26*%
X23319800Y-40106600D03*
X24279800Y-40106600D03*
%TD*%
D11*
%TO.C,D12*%
X44831000Y-61279000D03*
X44831000Y-59879000D03*
%TD*%
D10*
%TO.C,D5*%
X56658671Y-21084485D03*
X58758671Y-21084485D03*
%TD*%
%TO.C,D3*%
X46702000Y-20955000D03*
X48802000Y-20955000D03*
%TD*%
D14*
%TO.C,D14*%
X24766000Y-37719000D03*
X28066000Y-37719000D03*
%TD*%
D15*
%TO.C,R18*%
X26124400Y-46482000D03*
X27774400Y-46482000D03*
%TD*%
D11*
%TO.C,D8*%
X34544000Y-61152000D03*
X34544000Y-59752000D03*
%TD*%
D10*
%TO.C,D4*%
X51655000Y-21082000D03*
X53755000Y-21082000D03*
%TD*%
D16*
%TO.C,R17*%
X24701000Y-46507400D03*
X23051000Y-46507400D03*
%TD*%
D10*
%TO.C,D1*%
X36669000Y-20955000D03*
X38769000Y-20955000D03*
%TD*%
D17*
%TO.C,U2*%
X29190000Y-44754800D03*
X28690001Y-44754800D03*
X28190000Y-44754800D03*
X27690000Y-44754800D03*
X27189999Y-44754800D03*
X26690000Y-44754800D03*
D18*
X25984200Y-44049000D03*
X25984200Y-43549001D03*
X25984200Y-43049000D03*
X25984200Y-42549000D03*
X25984200Y-42048999D03*
X25984200Y-41549000D03*
D17*
X26690000Y-40843200D03*
X27189999Y-40843200D03*
X27690000Y-40843200D03*
X28190000Y-40843200D03*
X28690001Y-40843200D03*
X29190000Y-40843200D03*
D18*
X29895800Y-41549000D03*
X29895800Y-42048999D03*
X29895800Y-42549000D03*
X29895800Y-43049000D03*
X29895800Y-43549001D03*
X29895800Y-44049000D03*
D19*
X28565000Y-42799000D03*
D20*
X26990000Y-42799000D03*
%TD*%
D16*
%TO.C,R8*%
X24193000Y-43916600D03*
X22543000Y-43916600D03*
%TD*%
D11*
%TO.C,D9*%
X37211000Y-61152000D03*
X37211000Y-59752000D03*
%TD*%
D12*
%TO.C,C25*%
X26567000Y-39573200D03*
X27527000Y-39573200D03*
%TD*%
D21*
%TO.C,D7*%
X30327600Y-47901400D03*
X30327600Y-50701400D03*
%TD*%
D12*
%TO.C,C23*%
X23319800Y-45186600D03*
X24279800Y-45186600D03*
%TD*%
D11*
%TO.C,D10*%
X39751000Y-61152000D03*
X39751000Y-59752000D03*
%TD*%
D16*
%TO.C,R16*%
X24218400Y-42367200D03*
X22568400Y-42367200D03*
%TD*%
M02*
